<svg width="203" height="38" viewBox="0 0 203 38" fill="none" xmlns="http://www.w3.org/2000/svg">
<g clip-path="url(#clip0_832_442)">
<path fill-rule="evenodd" clip-rule="evenodd" d="M155.776 9.97883C157.01 9.91424 157.432 9.78506 158.763 10.4309C159.608 10.8185 160.29 11.6581 160.647 12.4978C161.296 14.0479 161.524 15.049 160.16 15.6303C159.51 15.8886 158.796 16.1147 158.146 16.3407L154.672 17.4387C152.886 18.0846 150.937 18.9565 149.573 20.2806C149.346 20.5067 149.313 20.6358 149.053 20.8942C148.631 21.3463 148.436 21.7015 148.177 22.3151C146.813 25.8352 148.826 29.3875 152.788 29.3875C159.673 29.3875 161.004 21.8307 159.38 17.6002C159.251 17.2773 159.088 17.0189 159.056 16.5668C159.38 16.4053 159.738 16.3084 160.127 16.147C160.485 15.9855 160.809 15.824 161.102 15.6626V28.2572C161.102 29.5812 161.102 29.3875 163.277 29.3875C164.122 29.3875 163.602 27.6436 163.635 26.4487V15.8886C163.635 14.8552 163.505 13.8218 163.083 12.9176C162.238 11.1091 161.167 10.3341 159.316 9.6236C158.666 9.36524 157.01 9.20377 156.101 9.20377C155.971 9.20377 155.873 9.20377 155.776 9.20377V9.97883ZM158.634 16.8251L155.581 17.7617C153.892 18.3753 151.846 19.2149 150.547 20.4744C150.352 20.6358 150.19 20.8942 149.995 21.1202C149.671 21.4432 149.541 21.7015 149.378 22.0891C148.274 24.8663 149.735 27.5144 152.95 27.5144C154.802 27.5144 156.458 26.9331 157.627 25.5122C159.445 23.3162 159.738 19.5701 158.699 17.0189C158.699 16.9543 158.666 16.8897 158.634 16.8251ZM85.208 13.8541C85.4678 14.2093 86.8318 15.0167 87.1565 15.1136C87.7735 14.6614 87.6112 14.1125 87.9034 13.3374C88.0983 12.8207 88.488 12.1102 88.8777 11.7227C89.8194 10.7862 90.7612 10.0757 92.385 9.97883C93.7489 9.94653 94.1711 9.78506 95.5025 10.4309C96.3469 10.8185 97.0613 11.6581 97.3861 12.4978C98.0356 14.0479 98.2954 15.049 96.899 15.6303C96.5742 15.7594 95.7623 16.0501 95.4701 16.1147C95.4051 15.824 94.236 13.7895 93.4241 13.7249C93.0345 14.2093 93.2293 14.3385 93.554 14.6292L94.918 16.3407L91.4432 17.4387C89.6571 18.0846 87.6761 18.9565 86.3122 20.2806C86.1173 20.5067 86.0524 20.6358 85.825 20.8942C85.4029 21.3463 85.1756 21.7015 84.9482 22.3151C83.5518 25.8352 85.5977 29.3875 89.5596 29.3875C96.4118 29.3875 97.7758 21.8307 96.152 17.6002C96.0221 17.2773 95.8598 17.0189 95.8273 16.5668C96.152 16.4053 96.5093 16.3084 96.8665 16.147C97.2237 15.9855 97.5484 15.824 97.8732 15.6626V28.2572C97.8407 29.5812 97.8407 29.3875 100.049 29.3875C100.861 29.3875 100.374 27.6436 100.374 26.4487V15.8886C100.374 14.8552 100.276 13.8218 99.8217 12.9176C98.9773 11.1091 97.9057 10.3341 96.0871 9.6236C95.4376 9.36524 93.7489 9.20377 92.8396 9.20377C89.8844 9.20377 87.3189 10.657 85.7926 12.8207C85.5328 13.1759 85.3379 13.3374 85.208 13.8541ZM95.4051 16.8251L92.3525 17.7617C90.6313 18.3753 88.5854 19.2149 87.2864 20.4744C87.124 20.6358 86.9617 20.8942 86.7668 21.1202C86.4421 21.4432 86.3122 21.7015 86.1498 22.0891C85.0132 24.8663 86.4745 27.5144 89.6895 27.5144C91.5731 27.5144 93.1968 26.9331 94.3984 25.5122C96.1845 23.3162 96.4768 19.5701 95.4701 17.0189C95.4376 16.9543 95.4376 16.8897 95.4051 16.8251ZM20.9079 13.8541C21.1352 14.2093 22.5317 15.0167 22.8239 15.1136C23.4734 14.6614 23.311 14.1125 23.5708 13.3374C23.7982 12.8207 24.1879 12.1102 24.5776 11.7227C25.5193 10.7862 26.4286 10.0757 28.0848 9.97883C29.4163 9.94653 29.8385 9.78506 31.2024 10.4309C32.0468 10.8185 32.7287 11.6581 33.086 12.4978C33.7355 14.0479 33.9628 15.049 32.5988 15.6303C32.2741 15.7594 31.4297 16.0501 31.1699 16.1147C31.0725 15.824 29.9359 13.7895 29.0916 13.7249C28.7019 14.2093 28.8967 14.3385 29.2215 14.6292L30.5854 16.3407L27.1106 17.4387C25.3245 18.0846 23.376 18.9565 22.0121 20.2806C21.7847 20.5067 21.7523 20.6358 21.4925 20.8942C21.0703 21.3463 20.8754 21.7015 20.6156 22.3151C19.2517 25.8352 21.2651 29.3875 25.2271 29.3875C32.1117 29.3875 33.4432 21.8307 31.8194 17.6002C31.6895 17.2773 31.5272 17.0189 31.4947 16.5668C31.8194 16.4053 32.1767 16.3084 32.5664 16.147C32.9236 15.9855 33.2483 15.824 33.5406 15.6626V28.2572C33.5406 29.5812 33.5406 29.3875 35.7164 29.3875C36.5608 29.3875 36.0736 27.6436 36.0736 26.4487V15.8886C36.0736 14.8552 35.9437 13.8218 35.5216 12.9176C34.6772 11.1091 33.6056 10.3341 31.7545 9.6236C31.105 9.36524 29.4488 9.20377 28.5395 9.20377C25.5843 9.20377 23.0188 10.657 21.46 12.8207C21.2002 13.1759 21.0053 13.3374 20.9079 13.8541ZM31.0725 16.8251L28.0199 17.7617C26.3312 18.3753 24.2853 19.2149 22.9863 20.4744C22.7914 20.6358 22.6291 20.8942 22.4342 21.1202C22.1095 21.4432 21.9796 21.7015 21.8172 22.0891C20.7131 24.8663 22.1744 27.5144 25.3894 27.5144C27.2405 27.5144 28.8967 26.9331 30.0658 25.5122C31.8844 23.3162 32.1767 19.5701 31.1375 17.0189C31.1375 16.9543 31.105 16.8897 31.0725 16.8251ZM185.328 9.30066C185.36 9.65589 187.146 13.1759 187.471 13.8864L191.401 23.4454C191.79 24.285 192.05 25.0601 192.407 25.8674C192.635 26.3519 193.317 27.8051 193.317 28.3541C192.148 28.451 188.9 30.1302 187.828 30.9376C185.75 32.4877 184.419 33.4242 184.419 36.2984C184.419 36.9766 185.133 38.01 186.237 38.01C187.634 38.01 188.38 37.5578 189.517 36.6213C189.679 36.5244 189.777 36.4276 189.907 36.2984C190.037 36.1692 190.134 36.04 190.264 35.8786C191.531 34.5222 192.732 32.5846 193.576 30.873C193.739 30.5178 193.869 30.3886 194.031 30.0011C194.226 29.5812 194.323 29.3552 194.486 28.9677C195.752 26.3519 197.538 21.8953 198.707 19.0857L202.442 10.2372C202.637 9.75277 202.767 9.68818 203.027 9.30066C200.948 8.84854 201.663 9.49442 201.143 11.3029L197.798 19.441C197.636 19.8608 197.538 20.0545 197.376 20.5067L196.077 23.51C195.817 24.1559 195.428 24.9632 195.265 25.6414C194.843 25.3184 194.518 24.2527 194.258 23.6715L188.933 10.3986C188.575 9.01001 188.77 9.20377 185.912 9.20377C185.718 9.20377 185.49 9.26836 185.328 9.30066ZM193.804 28.9677L193.382 29C193.057 29.0323 192.57 29.1937 192.277 29.3229C191.725 29.5167 191.173 29.775 190.654 30.0334C190.167 30.2917 189.679 30.5178 189.225 30.8084C188.868 31.0022 188.51 31.2282 188.186 31.4543C186.27 32.9075 185.068 33.7149 185.068 36.2984C185.068 36.5244 185.23 36.8151 185.393 36.9766C185.62 37.2026 185.912 37.3641 186.237 37.3641C187.504 37.3641 188.186 36.912 189.127 36.1369C189.225 36.04 189.355 35.9431 189.452 35.8463C189.582 35.7494 189.679 35.5879 189.809 35.4587C191.043 34.1024 192.18 32.2616 192.992 30.6147C193.122 30.2917 193.317 30.0334 193.447 29.7104C193.576 29.4844 193.674 29.226 193.804 28.9677ZM122.034 28.5801C124.632 28.5801 127.75 27.6759 129.893 26.3196L132.102 24.4142C132.102 24.3819 132.134 24.3496 132.134 24.3496C132.167 24.3173 132.199 24.2527 132.232 24.2205C132.394 24.0267 132.394 24.0267 132.556 23.8652C133.108 23.2839 134.472 21.5724 134.472 20.6681C133.92 20.7973 133.725 21.5401 133.141 22.2505C131.777 23.9621 129.958 25.2216 127.912 26.0289C123.658 27.6759 119.144 26.6748 115.637 24.059C114.435 23.187 114.76 23.2193 113.981 22.4443C113.591 22.0568 113.559 21.9922 113.266 21.5724C113.039 21.2171 112.877 21.0234 112.617 20.6035C112.195 19.9254 111.87 19.2795 111.545 18.5044C111.058 17.2773 110.798 16.0178 110.603 14.6937C110.084 11.1737 110.766 7.71825 112.844 4.94098C113.721 3.81069 115.475 2.29287 116.774 1.80846C118.69 1.098 121.872 0.258355 123.886 1.25947C127.101 2.87416 122.392 6.84632 122.392 11.9165C122.392 12.3686 122.489 13.079 122.651 13.3697C122.911 13.7895 123.528 13.8218 123.528 13.2728C123.528 12.8207 122.327 11.1414 123.723 8.13807C124.925 5.45768 127.068 3.48775 127.068 0.71047C124.113 3.24007e-06 121.71 -0.322936 118.69 0.419824C117.131 0.807352 114.695 1.96993 113.396 3.00334L111.967 4.2951C110.116 6.13585 108.915 8.5579 108.298 11.1737C107.81 13.2405 107.875 15.5334 108.33 17.5033C108.947 20.1837 110.831 23.51 112.942 25.1893C114.89 26.7071 116.189 27.5144 118.819 28.1926C119.599 28.3864 121.158 28.5801 122.034 28.5801ZM43.7052 15.2104C43.7052 7.65367 44.2898 9.26836 41.2047 10.0111C41.2047 10.9476 41.0748 11.4321 41.0748 12.3686C41.0748 14.7583 40.9124 28.0311 41.2047 29.2583C42.0165 29.4521 42.2439 29.3875 43.2506 29.3875C43.9325 29.3875 43.7052 27.8374 43.7052 26.6748C43.7052 24.6726 43.5753 17.794 43.7377 16.8251C43.9325 15.5011 45.881 13.0468 47.0501 11.9488C47.6671 11.3675 49.4533 10.3341 50.4275 10.3341C52.4409 10.3341 53.9673 10.6247 55.0714 12.6269C55.3637 13.1759 55.6884 14.2739 55.7534 14.8875L55.7859 26.7717C55.7859 30.2594 55.4936 29.2583 58.2864 29.2583C58.3838 25.3184 58.2864 20.4098 58.2864 16.4699C58.2864 14.4677 58.2539 13.1113 56.89 11.3029C56.4678 10.7216 55.656 10.2372 55.0065 9.84965C52.7007 8.5256 49.1935 9.36524 47.0501 11.1737C45.0692 12.8207 44.03 14.9521 43.7052 15.2104ZM0.0266113 0.936527C1.03333 2.38975 0.773532 2.55122 1.42303 4.39198L8.92471 26.2227C9.9639 29.0645 9.50925 29.3875 11.1979 29.3875C11.815 29.3875 11.9449 28.3541 12.1072 27.902C12.3346 27.2884 12.4969 26.804 12.7243 26.1258C13.0815 24.9309 13.5361 23.7038 13.9583 22.4766L16.3939 15.275C16.8161 14.0156 17.1733 12.8853 17.5955 11.6904C18.0826 10.2049 20.3883 3.13251 20.9729 1.80846C21.1352 1.42094 21.2651 1.32405 21.3626 0.936527C18.6671 0.71047 20.5832 0.419824 19.0893 4.90868L17.7579 8.81625C17.563 9.39754 17.4331 9.88195 17.2383 10.4632C16.946 11.4643 16.4589 12.6592 16.1341 13.6603C15.582 15.3073 11.9124 25.8674 11.8799 26.3196H11.6526C11.5876 25.9966 11.5227 25.8674 11.3928 25.5768L5.22258 7.65367C4.54061 5.61915 4.18339 5.00556 3.79369 2.84187C3.69626 2.19599 3.69626 1.51782 3.56637 0.936527C2.65707 0.839646 0.838481 0.613588 0.0266113 0.936527ZM179.288 9.88195C179.19 10.3341 178.118 11.8842 177.794 12.3686C177.501 12.7884 177.274 13.1113 176.982 13.5957L167.369 28.1926C167.207 28.4187 166.46 29.3875 167.207 29.3875C171.721 29.3875 176.527 29.4844 181.009 29.2906C181.983 29.226 181.918 29.226 181.918 28.2572C180.684 28.8385 177.729 28.7093 176.332 28.7093C174.319 28.7093 172.305 28.7093 170.292 28.7093L178.638 15.9209C179.482 14.7906 181.236 11.8842 182.275 10.3664C182.438 10.1403 183.249 9.20377 182.503 9.20377H168.116C167.824 9.20377 167.791 9.33295 167.694 9.6236C167.499 10.3018 168.116 10.1403 169.448 9.94653C170.454 9.78506 177.924 9.88195 179.288 9.88195ZM70.7243 4.10133C70.7243 5.55456 70.8542 6.71714 70.8542 8.07349C70.8542 8.88084 70.7243 9.30066 70.7243 9.97883V28.9354C70.7243 29.6135 71.8284 29.3875 72.9975 29.3875C73.2573 29.3875 73.3547 29.3229 73.3547 29.0323V0.936527C72.9975 0.936527 71.3413 1.42094 71.1464 1.58241C70.7892 1.84076 70.8866 2.1637 70.8217 2.71269C70.7892 3.1971 70.7243 3.45545 70.7243 4.10133ZM78.4857 29.2583C79.2651 29.4521 80.1095 29.4521 80.8889 29.2583V0.936527C80.4018 0.936527 79.9796 1.16258 79.3301 1.32405C77.8362 1.74388 78.3558 1.77617 78.3558 5.90979C78.3558 8.91313 78.1935 27.9988 78.4857 29.2583ZM139.961 15.3396V9.30066C139.149 9.30066 138.304 9.72048 137.557 9.88195C137.265 11.1414 137.428 26.3519 137.428 28.9354C137.428 29.5167 138.402 29.2583 139.961 29.2583V17.245C139.961 16.4376 140.545 15.3719 140.935 14.8229C142.071 13.1113 144.02 10.2372 146.683 10.2372C149.216 10.2372 149.086 12.3686 150.093 12.5946C150.45 11.9488 151.132 10.4632 151.132 9.65589C150.482 9.49442 149.508 8.97772 148.274 8.97772C142.721 8.97772 140.578 14.8552 139.961 15.3396ZM63.1901 10.3341V28.9354C63.1901 29.5812 64.5865 29.3875 65.4958 29.3875C66.1128 29.3875 65.7231 28.6447 65.7231 27.579V9.30066C65.4633 9.33295 63.1901 9.72048 63.1901 10.3341ZM62.638 3.87528C62.638 4.10133 62.7355 4.39198 62.8329 4.58574C62.9953 4.97327 63.3525 5.3285 63.7422 5.48997C64.8788 5.97438 66.2752 5.3608 66.2752 3.52004C66.2752 2.29287 64.2943 1.25947 63.1252 2.55122C62.8329 2.84187 62.638 3.29398 62.638 3.87528ZM105.407 27.6759C105.407 28.1926 105.44 28.5801 105.894 29C106.966 29.9365 108.72 29 108.72 27.8051C108.72 25.8029 105.407 25.5768 105.407 27.6759Z" fill="#3F362D"/>
</g>
<defs>
<clipPath id="clip0_832_442">
<rect width="203" height="38" fill="white"/>
</clipPath>
</defs>
</svg>
