<svg width="203" height="128" viewBox="0 0 203 128" fill="none" xmlns="http://www.w3.org/2000/svg">
<path fill-rule="evenodd" clip-rule="evenodd" d="M155.755 99.7323C157.004 99.674 157.426 99.5429 158.733 100.169C159.576 100.577 160.288 101.437 160.622 102.267C161.261 103.841 161.508 104.832 160.142 105.414C159.503 105.691 158.791 105.91 158.137 106.143L154.665 107.236C152.878 107.906 150.903 108.766 149.551 110.121C149.319 110.354 149.29 110.485 149.028 110.747C148.622 111.184 148.418 111.563 148.171 112.175C146.791 115.73 148.81 119.299 152.777 119.299C159.648 119.299 160.985 111.665 159.372 107.425C159.242 107.09 159.082 106.828 159.038 106.376C159.372 106.216 159.736 106.114 160.099 105.954C160.462 105.793 160.782 105.633 161.101 105.458L161.087 118.163C161.072 119.489 161.072 119.299 163.266 119.299C164.094 119.299 163.6 117.551 163.6 116.327V105.691C163.615 104.642 163.484 103.608 163.062 102.69C162.205 100.869 161.145 100.097 159.314 99.368C158.646 99.1058 156.99 98.9455 156.075 98.9455C155.973 98.9455 155.857 98.9455 155.755 98.9455V99.7323ZM158.617 106.653L155.566 107.585C153.866 108.212 151.818 109.042 150.525 110.295C150.35 110.485 150.176 110.747 149.973 110.951C149.668 111.272 149.537 111.534 149.363 111.956C148.258 114.739 149.711 117.42 152.922 117.42C154.796 117.42 156.438 116.837 157.614 115.38C159.416 113.166 159.707 109.407 158.69 106.828C158.675 106.755 158.646 106.697 158.617 106.653ZM85.1923 103.637C85.4393 104.001 86.8194 104.803 87.1245 104.89C87.7638 104.467 87.5894 103.914 87.88 103.127C88.0834 102.573 88.4756 101.874 88.8679 101.481C89.8122 100.548 90.7275 99.8197 92.3837 99.7469C93.7202 99.6886 94.1416 99.5283 95.4927 100.169C96.3353 100.577 97.0326 101.437 97.3813 102.267C98.0205 103.841 98.253 104.832 96.8874 105.414C96.5677 105.56 95.7396 105.852 95.4491 105.924C95.3764 105.618 94.2287 103.593 93.4006 103.52C93.0084 104.001 93.1972 104.132 93.5314 104.424L94.8825 106.143L91.4103 107.236C89.6379 107.906 87.6621 108.766 86.311 110.121C86.0785 110.354 86.0495 110.485 85.7879 110.747C85.3812 111.184 85.1632 111.563 84.9308 112.175C83.5361 115.73 85.5555 119.299 89.5217 119.299C96.3934 119.299 97.7445 111.665 96.1174 107.425C96.0011 107.09 95.8413 106.828 95.7978 106.376C96.1174 106.216 96.4806 106.114 96.8583 105.954C97.2215 105.793 97.5411 105.633 97.8462 105.458V118.163C97.8317 119.489 97.8317 119.299 100.011 119.299C100.854 119.299 100.36 117.551 100.36 116.327V105.691C100.36 104.642 100.243 103.608 99.8075 102.69C98.9649 100.869 97.8898 100.097 96.0593 99.368C95.4055 99.1058 93.7348 98.9455 92.834 98.9455C89.8848 98.9455 87.3134 100.402 85.7589 102.603C85.5119 102.952 85.3085 103.127 85.1923 103.637ZM95.3764 106.653L92.3256 107.585C90.6113 108.212 88.5773 109.042 87.2843 110.295C87.0955 110.485 86.9357 110.747 86.7323 110.951C86.4127 111.272 86.2964 111.534 86.1221 111.956C85.0034 114.739 86.4562 117.42 89.6815 117.42C91.5556 117.42 93.1827 116.837 94.374 115.38C96.1755 113.166 96.466 109.407 95.4491 106.828C95.42 106.755 95.4055 106.697 95.3764 106.653ZM20.8768 103.637C21.1092 104.001 22.4894 104.803 22.809 104.89C23.4482 104.467 23.2739 103.914 23.5644 103.127C23.7678 102.573 24.1456 101.874 24.5524 101.481C25.4821 100.548 26.4119 99.8197 28.0536 99.7469C29.4047 99.6886 29.826 99.5283 31.1626 100.169C32.0052 100.577 32.7171 101.437 33.0658 102.267C33.705 103.841 33.9375 104.832 32.5718 105.414C32.2377 105.56 31.4241 105.852 31.1335 105.924C31.0464 105.618 29.8987 103.593 29.0851 103.52C28.6928 104.001 28.8817 104.132 29.2158 104.424L30.5669 106.143L27.0948 107.236C25.3223 107.906 23.332 108.766 21.9809 110.121C21.763 110.354 21.7194 110.485 21.4724 110.747C21.0511 111.184 20.8477 111.563 20.6007 112.175C19.2206 115.73 21.24 119.299 25.2061 119.299C32.0779 119.299 33.429 111.665 31.8018 107.425C31.6711 107.09 31.5113 106.828 31.4822 106.376C31.8018 106.216 32.165 106.114 32.5428 105.954C32.8914 105.793 33.2111 105.633 33.5307 105.458V118.163C33.5016 119.489 33.5161 119.299 35.6953 119.299C36.5234 119.299 36.0295 117.551 36.044 116.327V105.691C36.044 104.642 35.9133 103.608 35.4919 102.69C34.6493 100.869 33.5742 100.097 31.7437 99.368C31.0754 99.1058 29.4192 98.9455 28.504 98.9455C25.5548 98.9455 22.9979 100.402 21.4434 102.603C21.1819 102.952 20.993 103.127 20.8768 103.637ZM31.0609 106.653L27.9955 107.585C26.2957 108.212 24.2618 109.042 22.9543 110.295C22.7799 110.485 22.6201 110.747 22.4022 110.951C22.0971 111.272 21.9664 111.534 21.8066 111.956C20.6879 114.739 22.1407 117.42 25.3514 117.42C27.2255 117.42 28.8672 116.837 30.0439 115.38C31.8454 113.166 32.136 109.407 31.1335 106.828C31.1045 106.755 31.0754 106.697 31.0609 106.653ZM185.319 99.0621C185.348 99.3826 187.121 102.952 187.44 103.681L191.392 113.326C191.755 114.156 192.046 114.943 192.395 115.759C192.612 116.24 193.295 117.711 193.31 118.265C192.133 118.367 188.879 120.057 187.804 120.873C185.741 122.417 184.404 123.394 184.404 126.278C184.404 126.978 185.131 127.998 186.235 127.998C187.615 127.998 188.37 127.531 189.518 126.599C189.649 126.482 189.78 126.395 189.896 126.278C190.026 126.147 190.114 126.016 190.259 125.856C191.523 124.472 192.729 122.534 193.542 120.8C193.717 120.436 193.847 120.305 194.022 119.911C194.196 119.518 194.298 119.27 194.487 118.877C195.736 116.225 197.523 111.738 198.685 108.911L202.433 99.98C202.637 99.5137 202.753 99.4263 203 99.0621C200.952 98.5813 201.634 99.2369 201.126 101.073L197.784 109.261C197.61 109.683 197.537 109.902 197.363 110.339L196.07 113.384C195.794 114.04 195.402 114.841 195.242 115.526C194.821 115.22 194.516 114.127 194.254 113.544L188.908 100.155C188.574 98.7707 188.748 98.9455 185.886 98.9455C185.712 98.9455 185.465 99.0038 185.319 99.0621ZM193.775 118.877L193.353 118.921C193.034 118.935 192.569 119.11 192.264 119.227C191.712 119.445 191.174 119.693 190.637 119.955C190.157 120.203 189.678 120.45 189.198 120.727C188.864 120.931 188.501 121.15 188.181 121.383C186.249 122.84 185.058 123.656 185.058 126.278C185.058 126.511 185.232 126.788 185.378 126.949C185.61 127.196 185.901 127.342 186.235 127.342C187.499 127.342 188.152 126.876 189.111 126.104C189.213 126.016 189.344 125.929 189.431 125.827C189.562 125.71 189.663 125.55 189.78 125.419C191.043 124.049 192.162 122.199 192.961 120.523C193.106 120.217 193.295 119.941 193.441 119.635C193.557 119.387 193.658 119.125 193.775 118.877ZM122.021 118.498C124.607 118.498 127.745 117.58 129.88 116.196L132.074 114.273C132.089 114.258 132.103 114.229 132.132 114.215C132.161 114.171 132.19 114.127 132.234 114.098C132.379 113.909 132.394 113.894 132.554 113.734C133.091 113.166 134.442 111.432 134.457 110.499C133.919 110.645 133.687 111.374 133.106 112.117C131.755 113.821 129.939 115.089 127.876 115.905C123.633 117.58 119.115 116.56 115.629 113.938C114.423 113.034 114.728 113.093 113.958 112.291C113.58 111.913 113.536 111.84 113.246 111.417C112.999 111.068 112.839 110.878 112.592 110.456C112.171 109.742 111.851 109.101 111.532 108.314C111.038 107.09 110.776 105.808 110.573 104.482C110.064 100.927 110.747 97.4303 112.839 94.6474C113.696 93.4964 115.469 91.9666 116.762 91.4858C118.679 90.7865 121.861 89.9123 123.851 90.9322C127.062 92.564 122.369 96.5707 122.369 101.685C122.369 102.136 122.457 102.85 122.631 103.142C122.907 103.55 123.503 103.608 123.503 103.054C123.503 102.603 122.326 100.898 123.692 97.8674C124.897 95.172 127.048 93.1613 127.048 90.3639C124.084 89.6792 121.701 89.3295 118.679 90.1017C117.11 90.4951 114.67 91.6461 113.391 92.6805L111.967 93.9918C110.108 95.8422 108.887 98.3045 108.277 100.927C107.783 103.025 107.871 105.342 108.306 107.323C108.917 110.004 110.805 113.384 112.912 115.06C114.888 116.604 116.166 117.42 118.781 118.09C119.566 118.294 121.135 118.498 122.021 118.498ZM43.6858 105.007C43.6858 97.4011 44.2814 99.0184 41.1724 99.7469C41.1724 100.694 41.0562 101.175 41.0562 102.151C41.0562 104.555 40.8818 117.944 41.1724 119.183C42.0005 119.387 42.2329 119.299 43.2209 119.299C43.9182 119.299 43.6858 117.741 43.6858 116.56C43.6858 114.564 43.5405 107.615 43.7003 106.624C43.9182 105.298 45.8504 102.807 47.0127 101.714C47.6228 101.131 49.4243 100.082 50.4122 100.082C52.4026 100.082 53.9571 100.373 55.0467 102.413C55.3372 102.938 55.6568 104.06 55.744 104.686L55.7731 116.677C55.7731 120.188 55.468 119.183 58.2719 119.183C58.3591 115.205 58.2719 110.266 58.2719 106.26C58.2719 104.249 58.2138 102.879 56.8627 101.044C56.4414 100.475 55.6133 99.9654 54.9885 99.6012C52.6931 98.2462 49.1628 99.1058 47.0127 100.927C45.0514 102.603 44.0199 104.759 43.6858 105.007ZM0 90.5971C1.00243 92.0832 0.726401 92.2289 1.39469 94.1084L8.89115 116.094C9.93716 118.979 9.47227 119.299 11.172 119.299C11.7822 119.299 11.8984 118.265 12.0728 117.799C12.3052 117.172 12.4796 116.677 12.683 116.007C13.0607 114.812 13.5256 113.574 13.9324 112.335L16.3585 105.065C16.7799 103.812 17.1576 102.661 17.5644 101.466C18.0583 99.9654 20.3683 92.8262 20.9494 91.4712C21.1092 91.107 21.24 90.9904 21.3271 90.5971C18.654 90.3785 20.5717 90.0725 19.0753 94.6329L17.7532 98.5521C17.5353 99.1495 17.39 99.6303 17.2157 100.199C16.9106 101.248 16.4312 102.428 16.1116 103.433C15.5595 105.109 11.8694 115.759 11.8549 116.211H11.6369C11.5498 115.876 11.4771 115.759 11.3754 115.438L5.20103 97.3866C4.53274 95.3468 4.16954 94.7057 3.77728 92.5203C3.66106 91.8938 3.67559 91.1798 3.53031 90.5971C2.62957 90.5242 0.813569 90.2765 0 90.5971ZM179.276 99.6303C179.174 100.082 178.084 101.641 177.765 102.122C177.474 102.573 177.242 102.894 176.966 103.375L167.348 118.09C167.188 118.309 166.433 119.299 167.188 119.299C171.721 119.299 176.501 119.416 180.99 119.197C181.963 119.154 181.905 119.154 181.905 118.163C180.67 118.746 177.721 118.615 176.312 118.615C174.293 118.615 172.288 118.615 170.268 118.615L178.622 105.72C179.479 104.584 181.223 101.655 182.269 100.111C182.399 99.9071 183.242 98.9455 182.472 98.9455H168.104C167.799 98.9455 167.755 99.0912 167.682 99.3535C167.494 100.053 168.089 99.8926 169.411 99.6886C170.428 99.5429 177.896 99.6303 179.276 99.6303ZM70.7079 93.8024C70.7079 95.2739 70.8241 96.4395 70.8241 97.7945C70.8241 98.625 70.7079 99.0475 70.7079 99.7323V118.848C70.7079 119.518 71.7975 119.299 72.9888 119.299C73.2503 119.299 73.3374 119.227 73.3374 118.964V90.5971C72.9742 90.5971 71.3326 91.0924 71.1292 91.2527C70.766 91.5295 70.8531 91.8355 70.8096 92.4183C70.7805 92.8991 70.7079 93.1468 70.7079 93.8024ZM78.4658 119.183C79.2358 119.372 80.0784 119.372 80.863 119.183V90.5971C80.3981 90.6116 79.9622 90.8302 79.323 91.005C77.8266 91.4275 78.3496 91.4712 78.3496 95.6236C78.3496 98.6541 78.1607 117.915 78.4658 119.183ZM139.934 105.123V99.0621C139.12 99.0621 138.278 99.4555 137.537 99.6303C137.246 100.898 137.421 116.225 137.421 118.848C137.421 119.416 138.394 119.183 139.934 119.183V107.061C139.934 106.23 140.544 105.181 140.907 104.613C142.055 102.879 144.016 99.9654 146.66 99.9654C149.188 99.9654 149.072 102.136 150.089 102.369C150.438 101.699 151.106 100.199 151.106 99.3972C150.467 99.2224 149.493 98.7124 148.258 98.7124C142.709 98.7124 140.573 104.642 139.934 105.123ZM63.1824 100.082V118.848C63.1824 119.503 64.5625 119.299 65.4632 119.299C66.088 119.299 65.6957 118.556 65.6957 117.478V99.0621C65.4197 99.0621 63.1824 99.4555 63.1824 100.082ZM62.6158 93.5693C62.6158 93.8024 62.7029 94.0938 62.8046 94.2978C62.979 94.6766 63.3276 95.0408 63.7199 95.2011C64.8531 95.711 66.2623 95.0845 66.2623 93.2196C66.2623 91.9812 64.2865 90.9322 63.0952 92.2289C62.8046 92.5348 62.6158 93.0011 62.6158 93.5693ZM105.372 117.58C105.372 118.105 105.415 118.498 105.88 118.906C106.941 119.853 108.684 118.906 108.684 117.697C108.684 115.672 105.372 115.453 105.372 117.58ZM116.863 0.00231934C117.837 1.24075 115.309 8.5402 114.96 9.58922C112.214 17.7337 109.57 25.4265 106.825 33.571C107.595 33.5128 107.725 33.571 108.234 33.7167L116.994 7.69515C118.854 2.18778 118.854 1.63413 119.958 0.0605984L116.863 0.00231934ZM104.602 40.346L100.142 53.5899L87.9236 17.9377C86.5144 18.4185 84.3206 19.7006 83.478 20.4583L96.6113 59.0972H99.793L105.866 40.7539C105.415 40.4625 105.255 40.4188 104.602 40.346ZM87.0519 15.4317L84.9744 9.23954C84.6983 8.42364 82.1414 2.1295 82.7952 0.0314588L75.8508 0.00231934C77.2164 1.75069 77.4634 3.01826 79.7588 9.73492L82.5337 17.894C83.6087 17.0635 85.2795 16.1602 87.0519 15.4317ZM125.319 50.7633C123.416 55.9356 120.931 59.1118 118.287 61.443C116.965 62.6086 115.585 63.5556 114.089 64.4152C102.887 70.855 88.0979 68.1159 79.846 55.9356C79.3375 55.178 78.9307 54.4641 78.4804 53.6773C71.4779 41.4241 73.2648 26.7378 83.2601 19.7152C83.8702 19.2635 84.5385 18.8847 85.1923 18.5059C88.6064 16.539 92.1076 15.5774 95.5508 15.592C97.6138 15.592 99.27 16.4079 99.9964 17.6754C100.548 18.637 100.984 20.196 100.577 21.3033C97.1924 30.5114 96.2626 34.6929 97.3377 36.7327C97.8462 37.7234 98.9794 38.2334 100.025 38.481C103.439 39.2969 105.808 39.3407 108.917 40.987C109.222 41.1473 109.483 41.9924 109.846 41.9486L111.11 41.2493C111.444 41.0745 110.95 41.3367 110.573 40.9725C110.064 40.5062 108.263 40.0691 107.173 39.5301C104.558 38.2479 99.4733 38.6559 98.3111 35.5671C95.9721 29.4041 104.515 19.8463 103.338 13.7416C102.495 13.6687 101.594 13.625 100.752 13.5522C96.1319 13.4065 89.9284 14.2661 84.6548 17.2966C70.8241 25.2663 66.088 43.0122 74.0203 56.8826C81.9671 70.7676 98.7324 76.1293 113.478 67.6497C121.265 63.1622 124.752 55.4839 125.827 50.9528L125.319 50.7633ZM121.164 39.8943C121.338 39.7195 121.309 39.4718 121.265 39.2532C121.251 39.2095 121.193 39.1658 121.164 39.1367C121.12 39.1075 121.077 39.1075 121.033 39.1075C120.917 39.1367 120.83 39.1221 120.728 39.0638C120.583 38.9764 120.394 38.9764 120.234 38.9327C120.147 38.9036 119.725 38.6267 120.205 38.5539C120.495 38.5102 120.975 38.1751 121.178 38.3936C121.077 38.5102 121.483 38.4373 120.975 38.5685C120.888 38.583 120.786 38.8453 120.946 38.9036C120.975 38.9181 121.004 38.9181 121.033 38.9181C121.149 38.9473 121.251 38.9764 121.338 39.0493L121.44 39.2387C121.469 39.3261 121.512 39.4718 121.483 39.5592C121.382 39.7777 121.89 39.5738 121.977 39.6029C122.035 39.6175 122.326 39.6029 122.413 39.6029C122.646 39.6175 122.893 39.6175 123.125 39.6029C123.372 39.5883 123.706 39.5446 123.968 39.5009C124.389 39.4572 124.621 39.3844 124.999 39.2241C125.159 39.1512 125.319 39.0784 125.478 38.991C125.972 38.7724 126.19 38.5102 126.554 38.2625C126.975 38.0148 127.701 37.0241 127.818 36.5724C127.876 36.3393 127.934 36.3976 127.963 36.1499C127.963 36.0042 127.919 36.179 127.89 36.1936C127.818 36.2373 127.774 36.2956 127.716 36.3539C127.672 36.383 127.658 36.3247 127.672 36.3101C127.716 36.2373 127.774 36.1936 127.818 36.1207C127.832 36.0916 127.861 36.0625 127.89 36.0333C128.006 35.9168 127.992 35.7274 128.108 35.6108C128.195 35.5234 128.341 35.3048 128.384 35.2028C128.428 35.13 128.602 34.7949 128.602 34.7803C128.704 34.6346 128.747 34.5763 128.791 34.4015C128.82 34.3141 128.791 34.4306 128.82 34.3432C128.893 34.1247 128.399 34.285 128.253 34.3141C127.774 34.3869 127.178 34.3287 126.699 34.285C126.06 34.2267 125.406 34.1538 124.912 34.183C124.462 34.2121 124.04 34.3724 123.793 34.4161C123.386 34.4889 122.951 34.6783 122.529 34.7949C122.5 34.7949 122.195 34.8969 122.166 34.9115C121.629 35.1154 121.774 35.1009 121.265 35.3194C120.873 35.5525 120.684 35.6836 120.379 35.8439C120.35 35.8731 120.132 35.8731 120.205 35.9168C120.234 35.9313 120.307 35.9459 120.321 35.975C120.394 36.077 120.466 36.2227 120.394 36.3393C120.307 36.4996 120.35 36.6598 120.495 36.7472C120.655 36.8492 120.641 36.8347 120.8 36.8492C121.018 36.9658 121.12 37.1989 121.178 37.432C121.178 37.4612 122.108 37.3737 122.994 37.0969C123.793 36.8347 124.302 36.6744 125.377 36.2373C126.045 35.9605 127.077 35.2466 127.236 35.1883C127.265 35.1883 127.353 35.1883 127.353 35.232C127.353 35.2611 127.265 35.334 127.265 35.3485C127.251 35.3923 126.248 36.2227 125.232 36.6744C124.592 36.9658 123.808 37.1843 123.154 37.432C122.239 37.8108 121.28 37.9128 121.28 37.9274C121.309 38.2771 121.193 38.4228 121.251 38.481C120.771 38.4228 121.222 37.3737 120.67 37.1552C120.263 37.0678 120.394 37.228 120.06 37.228C119.798 36.8784 120.307 36.3101 119.9 36.2664C119.682 36.3247 119.696 36.4558 119.449 36.2227C118.97 36.0333 119.769 35.6836 119.566 35.4942C119.202 35.5671 119.246 35.3923 119.231 35.232C119.217 35.1446 119.13 35.0863 119.144 34.9989C119.217 34.6929 118.737 35.3923 118.52 34.9406C118.491 34.8677 118.185 34.8386 118.055 34.7658C117.677 34.4889 117.982 34.7366 117.415 34.6783C117.285 34.6492 117.241 34.5909 117.125 34.7949C117.052 34.926 116.936 34.9843 116.66 35.1009C116.602 35.1009 116.544 35.1009 116.5 35.13C116.471 35.1446 116.457 35.1883 116.486 35.2174C116.544 35.2903 116.689 35.5525 116.704 35.6545C116.704 35.7565 116.718 35.8585 116.689 35.9605C116.675 36.0479 116.631 36.1499 116.573 36.2227C116.457 36.383 116.544 36.4121 116.5 36.5287C116.457 36.6453 116.471 36.7618 116.471 36.8784L116.369 37.2718C116.239 37.6651 115.948 37.8545 115.934 38.2188C116.108 38.4082 115.977 38.5393 115.948 38.6122C115.934 38.6704 115.905 38.7142 115.89 38.7724C115.861 38.8453 115.745 39.0056 115.774 39.1075C115.788 39.1658 115.832 39.1804 115.875 39.1658C116.05 39.1221 116.166 39.7049 116.282 39.8797C116.442 40.142 116.573 40.0546 116.645 40.2731C116.762 40.6228 117.168 40.7976 117.168 40.8122C117.154 40.8705 117.648 41.3076 117.706 41.3367C117.793 41.395 117.924 41.4824 118.026 41.4678C118.214 41.4096 118.229 41.5407 118.476 41.4241C118.607 41.3659 118.737 41.3659 118.897 41.3367C118.897 41.3367 119.348 41.395 119.391 41.4241C119.551 41.6135 119.696 41.5844 119.9 41.7155C119.958 41.7447 119.929 41.9632 120.394 41.8612C120.423 41.7884 120.51 41.7447 120.481 41.6718C120.466 41.2202 120.423 41.3804 120.713 41.1619C121.178 40.9579 120.684 40.6519 120.684 40.5499C120.728 39.7777 121.004 40.346 121.164 39.8943ZM112.04 30.424C112.055 30.3657 112.055 30.3074 112.084 30.2637C112.113 30.1909 112.127 30.0014 112.142 29.9286C112.171 29.8412 112.171 29.7538 112.2 29.6809C112.229 29.5644 112.214 29.4332 112.258 29.3312L112.273 29.3167C112.302 29.1273 112.36 28.9524 112.403 28.7776C112.505 28.3696 112.621 27.9908 112.781 27.5974C112.839 27.4517 112.883 27.2915 112.926 27.1458C112.941 27.0875 112.955 27.0292 112.984 26.9709C113.028 26.9127 113.057 26.8252 113.072 26.7524C113.115 26.5921 113.202 26.3736 113.275 26.2279C113.319 26.155 113.362 26.0968 113.377 26.0239C113.42 25.9073 113.595 25.7034 113.682 25.6159C113.711 25.5868 113.74 25.5431 113.769 25.514C113.812 25.4411 113.856 25.3828 113.914 25.3391C114.045 25.2371 114.161 25.1206 114.292 25.0186C114.365 24.9603 114.437 24.9166 114.524 24.9166C114.597 24.902 114.684 24.9166 114.713 24.9749C114.742 25.0332 114.8 25.0623 114.829 25.1206C114.873 25.208 114.917 25.2954 114.96 25.3974C115.033 25.5868 115.12 25.8054 115.164 26.0093C115.207 26.2133 115.251 26.4173 115.309 26.6213C115.396 26.9709 115.541 27.2623 115.687 27.5829C115.716 27.6557 115.774 27.7286 115.803 27.7868C115.875 28.0054 116.006 28.1948 116.079 28.3988C116.137 28.5736 116.21 28.7339 116.282 28.9087C116.355 29.0544 116.398 29.2438 116.442 29.4041C116.5 29.6372 116.558 29.8412 116.602 30.0743C116.645 30.2054 116.66 30.3511 116.689 30.4822C116.718 30.5697 116.733 30.6717 116.733 30.7736V30.8028C116.762 30.9922 116.747 31.1962 116.747 31.4001C116.733 31.5458 116.747 31.677 116.718 31.8227C116.689 32.0121 116.645 32.2889 116.587 32.5512C116.558 32.7406 116.529 32.9154 116.486 33.0902C116.457 33.2068 116.413 33.3088 116.384 33.4253C116.311 33.6585 116.239 33.877 116.166 34.1101C116.152 34.1538 116.152 34.2121 116.122 34.2558C116.122 34.2995 116.05 34.4306 116.064 34.4744C116.05 34.4744 115.963 34.7949 116.108 34.722C116.544 34.9552 117.241 34.1538 117.546 34.2704C117.532 34.285 117.532 34.3432 117.561 34.3432C117.619 34.3432 117.662 34.3287 117.691 34.2995C117.924 34.2704 117.938 34.3141 117.968 34.3287C118.011 34.3578 118.055 34.4015 118.069 34.4744C118.098 34.5763 118.171 34.6783 118.302 34.6201C118.345 34.5909 118.403 34.5763 118.476 34.5909C118.636 34.6783 118.621 34.7366 118.65 34.7512C118.607 34.7803 118.65 34.8386 118.723 34.7949C118.81 34.7512 118.912 34.7366 118.999 34.6783C119.144 34.5909 119.246 34.6929 119.348 34.7949C119.391 34.8386 119.42 34.9843 119.406 35.0426C119.391 35.13 119.449 35.1883 119.478 35.2611C119.537 35.2757 119.537 35.2757 119.595 35.2611C119.725 35.2611 119.842 35.4942 119.784 35.5962C119.74 35.6836 119.696 35.7711 119.653 35.8585C119.638 35.8731 119.478 36.0333 119.551 36.0625C119.595 36.0625 119.885 35.7565 119.958 35.7274C120.06 35.6836 120.132 35.6108 120.205 35.5525C120.466 35.3485 120.742 35.2028 121.004 35.028C121.149 34.9406 121.294 34.8823 121.44 34.824C121.701 34.722 121.977 34.5763 122.239 34.4598L122.282 34.4452C122.399 34.4161 122.5 34.3578 122.616 34.3287C122.733 34.2995 122.863 34.2412 122.98 34.2267C123.052 34.2121 123.139 34.183 123.227 34.1684C123.241 34.1684 123.256 34.1538 123.27 34.1538C123.43 34.0955 123.59 34.0664 123.75 34.0227C123.88 33.979 124.011 33.9498 124.156 33.9353C124.215 33.9207 124.287 33.8916 124.36 33.8916C124.418 33.9061 124.476 33.877 124.534 33.877C124.65 33.8624 124.781 33.8624 124.897 33.8479C124.999 33.8333 125.072 33.8479 125.159 33.8479C125.261 33.8333 125.377 33.8333 125.493 33.8479C125.638 33.8479 125.769 33.8479 125.9 33.877C126.031 33.8916 126.161 33.9061 126.292 33.877C126.466 33.8479 126.655 33.8479 126.844 33.8479C126.931 33.8479 127.004 33.8624 127.091 33.8624C127.28 33.8916 127.454 33.877 127.643 33.877C127.847 33.8916 128.035 33.9061 128.239 33.9207C128.282 33.9207 128.341 33.9207 128.399 33.9207C128.515 33.9353 128.617 33.9353 128.733 33.9207C128.849 33.9061 128.994 33.9353 129.111 33.9353C129.227 33.9353 129.299 34.081 129.27 34.183C129.241 34.4015 129.125 34.7366 129.009 34.926C128.98 34.9843 128.965 35.0426 128.922 35.1009C128.864 35.1591 128.82 35.232 128.776 35.3048C128.762 35.334 128.747 35.3485 128.733 35.3631C128.631 35.4942 128.587 35.6545 128.515 35.8002C128.5 35.9022 128.442 36.0042 128.413 36.1062C128.37 36.2519 128.297 36.4267 128.268 36.587C128.224 36.7327 128.166 36.8929 128.094 37.0241C128.035 37.1261 127.992 37.2135 127.948 37.3155C127.934 37.3592 127.919 37.3883 127.905 37.4174C127.832 37.4903 127.788 37.5923 127.73 37.6651C127.716 37.6797 127.701 37.6797 127.701 37.6943C127.629 37.84 127.527 37.9565 127.44 38.0731C127.353 38.2042 127.222 38.3499 127.091 38.4373C127.062 38.4665 127.033 38.481 127.004 38.5102C126.888 38.6559 126.757 38.7579 126.612 38.8744C126.525 38.9327 126.423 39.0638 126.336 39.1075C126.321 39.1075 126.307 39.1221 126.292 39.1221C126.19 39.2241 126.06 39.2824 125.943 39.3552C125.827 39.4281 125.725 39.4864 125.595 39.5592C125.508 39.5883 125.449 39.6321 125.362 39.6612C125.202 39.7195 125.043 39.7486 124.883 39.8215C124.767 39.8652 124.65 39.8797 124.534 39.8943C124.52 39.8943 124.491 39.8943 124.476 39.9089C124.36 39.9672 124.215 39.9672 124.084 39.9817C123.924 39.9963 123.764 40.0109 123.604 40.0254C123.445 40.04 123.227 40.0837 123.081 40.0691C122.951 40.0546 122.834 40.0546 122.718 40.0546C122.602 40.0546 122.486 40.0691 122.369 40.04C122.355 40.04 122.34 40.04 122.326 40.04C122.108 40.0546 121.919 40.0109 121.701 39.9817C121.687 39.9672 121.498 39.9089 121.512 39.9817C121.527 40.142 121.556 40.1566 121.454 40.3168C121.411 40.3605 121.323 40.4334 121.251 40.4334C121.149 40.4334 121.106 40.4188 121.004 40.448C120.96 40.4625 120.946 40.5062 120.96 40.5499C121.062 40.7102 121.207 40.5937 121.265 40.9288C121.28 41.0308 121.091 41.2202 121.004 41.2493C120.902 41.2639 120.8 41.2639 120.786 41.3804C120.771 41.4678 120.757 41.5698 120.771 41.6572C120.8 41.8029 120.786 42.0069 120.641 42.0943C120.553 42.1381 120.495 42.1818 120.379 42.1235C120.336 42.0943 120.292 42.1089 120.263 42.1381C120.205 42.1672 120.147 42.1963 120.089 42.2109C120.045 42.2692 120.074 42.342 119.972 42.4294C119.9 42.5023 119.798 42.444 119.711 42.4294C119.667 42.4149 119.551 42.4294 119.537 42.4877C119.507 42.5606 119.493 42.6189 119.464 42.6917C119.449 42.7791 119.682 42.8228 119.74 42.8665C119.972 42.9977 120.176 42.9977 120.394 43.1725C120.539 43.2891 120.713 43.4056 120.859 43.5076C120.888 43.5222 120.931 43.5513 120.946 43.5805L121.425 43.9884C121.57 44.1195 121.701 44.2944 121.846 44.4401C121.919 44.5129 121.977 44.6003 122.035 44.6878C122.079 44.746 122.108 44.7897 122.152 44.8335C122.181 44.8626 122.21 44.8917 122.224 44.9209C122.268 45.0229 122.326 45.1103 122.384 45.1977C122.471 45.3143 122.529 45.46 122.602 45.5765C122.616 45.6057 122.631 45.6348 122.646 45.6639C122.747 45.8825 122.849 46.101 122.965 46.3196C123.023 46.4216 123.052 46.5381 123.11 46.6401C123.154 46.7275 123.198 46.8295 123.227 46.9315C123.256 47.0335 123.314 47.1209 123.357 47.2229C123.43 47.4851 123.575 47.7183 123.648 47.9805C123.648 47.9951 123.662 48.0242 123.662 48.0388C123.721 48.1699 123.764 48.2865 123.808 48.403C123.837 48.5196 123.895 48.6362 123.939 48.7527C123.968 48.811 124.011 48.8693 124.026 48.9276C124.113 49.1315 124.171 49.2044 124.287 49.3646C124.389 49.5395 124.592 49.7435 124.491 49.962C124.389 50.1951 123.909 50.1806 123.692 50.166C123.474 50.1514 123.256 50.064 123.038 50.0349C122.98 50.0349 122.936 50.0203 122.878 49.9911C122.747 49.9474 122.587 49.9329 122.442 49.8892C122.355 49.86 122.282 49.8309 122.195 49.8309C122.137 49.8163 122.079 49.8017 122.021 49.7872C121.934 49.758 121.861 49.7435 121.774 49.7289C121.541 49.6852 121.28 49.5686 121.047 49.4958C121.033 49.4958 121.018 49.4958 121.004 49.4812C120.873 49.4229 120.728 49.3792 120.583 49.3209C120.423 49.2335 120.248 49.1898 120.089 49.0878C120.03 49.0587 119.972 49.0295 119.914 49.0004C119.74 48.9421 119.551 48.8547 119.362 48.7964C119.333 48.7819 119.304 48.7673 119.29 48.7527L118.955 48.5779C118.926 48.5633 118.912 48.5487 118.883 48.5342C118.767 48.505 118.65 48.4322 118.549 48.3885C118.461 48.3448 118.374 48.3156 118.287 48.2719C118.229 48.2428 118.171 48.1991 118.098 48.1699C118.026 48.1408 117.953 48.1116 117.88 48.0825C117.677 47.9951 117.474 47.9222 117.285 47.8494C117.139 47.8057 117.023 47.6891 116.878 47.6163C116.834 47.6017 116.747 47.5289 116.704 47.4706C116.675 47.4123 116.602 47.3832 116.558 47.3395C116.398 47.1646 116.239 46.9898 116.108 46.8004C116.05 46.713 115.992 46.6692 115.948 46.5964C115.817 46.4361 115.701 46.2613 115.585 46.101C115.527 46.0282 115.469 45.9845 115.425 45.897C115.367 45.7805 115.309 45.6785 115.236 45.5765C115.222 45.5619 115.207 45.5474 115.207 45.5182C115.164 45.4308 115.091 45.358 115.062 45.256C115.004 45.154 114.917 45.0666 114.873 44.95C114.815 44.8043 114.742 44.7023 114.684 44.5858C114.641 44.4984 114.612 44.4109 114.568 44.3381C114.524 44.2652 114.495 44.1778 114.437 44.105C114.394 44.003 114.321 43.901 114.263 43.7844C114.19 43.6824 114.118 43.5659 114.045 43.4639C113.929 43.3328 113.871 43.2016 113.754 43.0559C113.711 43.0122 113.638 43.1142 113.609 43.1288C113.566 43.1871 113.551 43.2453 113.551 43.3182C113.464 43.4639 113.377 43.6096 113.289 43.7553C113.217 43.8718 113.115 43.9738 113.072 44.105C113.072 44.1341 113.057 44.1632 113.043 44.1924C112.984 44.2798 112.955 44.3672 112.941 44.4692C112.926 44.5566 112.868 44.5858 112.854 44.6732C112.825 44.95 112.752 45.2123 112.752 45.4745C112.737 45.6639 112.679 45.897 112.592 46.0719C112.534 46.1884 112.476 46.305 112.389 46.407C112.273 46.5235 112.214 46.6547 112.084 46.7712C111.779 47.0626 111.546 47.2812 111.139 47.3977C111.052 47.4269 110.965 47.4706 110.878 47.4997C110.776 47.5434 110.66 47.558 110.558 47.5871C110.457 47.6308 110.34 47.6308 110.239 47.66C110.108 47.6891 109.977 47.7037 109.861 47.6746C109.759 47.6454 109.657 47.6746 109.556 47.66C109.454 47.6454 109.367 47.6308 109.265 47.6308C109.12 47.6308 108.815 47.5726 108.67 47.5289C108.408 47.456 108.379 47.4851 108.103 47.4269C107.972 47.3832 107.58 47.2666 107.449 47.2375C107.377 47.2229 107.26 47.2229 107.202 47.2083C106.999 47.1209 106.781 47.1209 106.578 47.0335C106.447 46.9606 106.302 46.9898 106.185 46.8587C105.909 46.509 106.345 46.0719 106.432 45.7076C106.476 45.5474 106.578 45.4017 106.607 45.2414C106.636 45.1831 106.679 45.0374 106.694 44.8917C106.723 44.7315 106.737 44.6586 106.737 44.5858C106.737 44.4984 106.752 44.4109 106.781 44.3381C106.781 44.2944 106.795 44.2652 106.795 44.2215C106.766 44.0467 106.868 43.5659 106.941 43.391C107.013 43.2453 107.086 43.0997 107.144 42.954C107.348 42.4877 107.377 42.4732 107.565 42.2837C107.667 42.2109 107.711 42.1235 107.812 42.0361C107.871 41.9924 107.958 41.9632 108.001 41.9195C108.074 41.8612 108.161 41.8175 108.234 41.7738C108.277 41.7447 108.335 41.7301 108.379 41.701C108.423 41.6718 108.466 41.6427 108.51 41.6135C108.582 41.5698 108.742 41.497 108.786 41.4387C109.251 41.2202 109.105 41.2639 109.512 40.9288C109.527 40.9433 109.832 40.7685 109.701 40.7102C109.556 40.6228 109.411 40.5499 109.251 40.4771C109.236 40.4625 109.178 40.448 109.149 40.4771C108.96 40.3314 109.265 40.5208 108.902 40.3168C108.757 40.2294 108.597 40.142 108.437 40.0691C108.277 39.9963 108.147 39.9526 108.045 39.8797C108.045 39.8506 108.016 39.8215 107.987 39.8069C107.783 39.6758 107.565 39.5301 107.333 39.4281C107.144 39.3407 106.897 39.195 106.694 39.1367C106.447 39.0638 106.229 38.9181 105.982 38.8307C105.88 38.787 105.154 38.4519 104.979 38.3791C104.921 38.3499 104.878 38.3353 104.834 38.3062C104.747 38.2334 104.631 38.1896 104.529 38.1459C104.326 38.0439 104.05 37.8691 103.875 37.7088C103.788 37.6214 103.672 37.5631 103.585 37.4612C103.512 37.3737 103.425 37.3009 103.338 37.228C103.323 37.2135 103.294 37.1989 103.28 37.1698C103.163 37.0241 103.018 36.8929 102.916 36.7472C102.887 36.7181 102.873 36.689 102.844 36.6744C102.742 36.587 102.699 36.4121 102.597 36.2956C102.51 36.179 102.437 36.0625 102.379 35.9459C102.248 35.6691 102.132 35.3777 101.972 35.1154C101.929 35.028 101.9 34.926 101.87 34.824C101.827 34.7075 101.856 34.5763 101.972 34.5181C102.103 34.4452 102.161 34.4306 102.321 34.4744C102.452 34.5035 102.757 34.5326 102.887 34.5181C102.916 34.5035 102.946 34.5035 102.975 34.5035C103.091 34.5326 103.193 34.5035 103.294 34.5035C103.309 34.5035 103.323 34.5035 103.352 34.5035C103.556 34.4744 103.774 34.4889 103.992 34.4744C104.05 34.4744 104.108 34.4744 104.166 34.4598C104.239 34.4306 104.297 34.4452 104.369 34.4306C104.471 34.4452 104.587 34.4306 104.689 34.4306C104.863 34.4161 105.023 34.4161 105.197 34.4015C105.328 34.4015 105.459 34.3869 105.575 34.3724C105.604 34.3724 105.648 34.3869 105.677 34.3869C105.764 34.3578 105.851 34.3724 105.953 34.3724C106.156 34.3869 106.345 34.3724 106.563 34.4161C106.694 34.4306 106.825 34.4452 106.955 34.4744C107.042 34.4889 107.13 34.5035 107.217 34.5181C107.362 34.5181 107.507 34.5763 107.638 34.6055C107.769 34.6201 107.929 34.6638 108.03 34.722C108.103 34.7512 108.161 34.7803 108.219 34.8095C108.306 34.8386 108.394 34.8677 108.481 34.9115C108.582 34.9552 108.684 34.9989 108.8 35.0426C108.931 35.0863 109.047 35.1446 109.164 35.2174C109.207 35.2466 109.251 35.2757 109.28 35.2903C109.454 35.3777 109.846 35.6399 109.977 35.7856C110.05 35.8731 110.137 35.9605 110.239 36.0479C110.311 36.1353 110.398 36.2082 110.471 36.2956C110.515 36.3539 110.602 36.4121 110.645 36.4704C110.733 36.5578 110.82 36.6453 110.907 36.7181C110.98 36.8201 111.052 36.9075 111.125 36.9949C111.183 37.0823 111.256 37.1552 111.328 37.2426C111.459 37.4029 111.59 37.5631 111.735 37.7088C111.851 37.8254 111.967 37.9565 112.084 38.0731C112.098 38.0877 112.113 38.0877 112.127 38.0731C112.156 38.0002 112.055 37.5777 112.026 37.4903C112.011 37.432 112.026 37.3737 111.996 37.33C111.967 37.2426 111.938 37.0823 111.924 36.9949C111.909 36.8201 111.866 36.6453 111.866 36.4704C111.837 36.3539 111.822 36.2227 111.822 36.1062C111.793 36.0188 111.793 35.9168 111.779 35.8293C111.75 35.7274 111.75 35.6254 111.75 35.5088C111.735 35.2757 111.691 35.028 111.677 34.7803C111.677 34.6055 111.648 34.4452 111.648 34.2704C111.633 34.081 111.619 33.8916 111.619 33.7022C111.633 33.5128 111.633 33.3233 111.619 33.1339C111.604 33.0465 111.619 32.9737 111.619 32.9008C111.633 32.6968 111.633 32.4783 111.662 32.2743C111.691 32.0995 111.72 31.9101 111.75 31.7352C111.764 31.6187 111.793 31.4876 111.808 31.371C111.808 31.3273 111.837 31.2836 111.851 31.2399C111.88 31.1379 111.909 31.0505 111.909 30.9485C111.924 30.8902 111.938 30.8465 111.953 30.7882C111.982 30.7299 111.982 30.6571 111.996 30.5988C112.011 30.5405 112.04 30.4822 112.04 30.424ZM115.745 34.2995C115.875 33.7313 116.079 33.1194 116.239 32.5366C116.326 32.1723 116.384 31.473 116.369 31.0942C116.369 30.8174 116.398 30.4968 116.311 30.2346C116.137 29.4624 115.992 29.1273 115.759 28.4862C115.716 28.3696 115.672 28.2531 115.629 28.1511C115.498 27.8888 115.396 27.6703 115.28 27.408C115.193 27.2478 115.12 27.0729 115.047 26.9127C114.975 26.767 114.917 26.563 114.888 26.4173C114.873 26.3299 114.844 26.1259 114.829 26.053C114.786 25.9656 114.728 25.6597 114.699 25.6014C114.582 25.4703 114.713 25.4557 114.524 25.4265C114.452 25.412 114.51 25.4848 114.452 25.4994C114.321 25.5431 114.35 25.5577 114.263 25.6451C114.248 25.6597 114.234 25.6742 114.234 25.6888C114.205 25.7616 114.147 25.7908 114.103 25.8636C113.827 26.2716 113.188 27.6557 113.043 28.1511C112.926 28.5882 112.737 29.0107 112.65 29.4915C112.549 29.9577 112.403 30.4385 112.418 30.9339C112.418 31.065 112.273 31.8809 112.243 32.1286C112.171 32.7988 112.069 33.3962 112.127 34.0955C112.098 34.2412 112.156 34.4744 112.156 34.6346C112.185 35.3048 112.331 36.8201 112.534 37.3883C112.65 37.6943 112.679 38.0877 112.737 38.4228C112.766 38.5102 112.796 38.6122 112.81 38.7142C112.81 38.7433 112.839 38.7724 112.868 38.8016C112.912 38.8599 112.926 38.7287 112.941 38.6996C112.955 38.5976 112.97 38.4956 112.999 38.3791C113.086 38.1314 113.144 37.8691 113.246 37.6214C113.289 37.4612 113.333 37.2863 113.377 37.1261C113.42 36.9512 113.449 36.7472 113.522 36.5724C113.58 36.4267 113.624 36.2664 113.667 36.1207C113.725 36.0333 113.711 35.8731 113.754 35.7565C113.783 35.6254 113.827 35.4942 113.856 35.3631C113.885 35.2174 113.929 35.0717 113.958 34.9115C113.958 34.8823 113.972 34.8532 113.972 34.824C114.045 34.6055 114.059 34.3869 114.103 34.1684C114.132 34.0227 114.147 33.877 114.176 33.7167C114.205 33.6002 114.234 33.4108 114.219 33.2796C114.219 33.2359 114.234 33.1777 114.248 33.1194C114.321 32.7988 114.306 32.4637 114.408 32.1286C114.423 32.0849 114.423 32.0412 114.423 31.9975C114.437 31.8227 114.452 31.6478 114.481 31.473C114.495 31.2544 114.51 31.0213 114.539 30.8028C114.539 30.7882 114.553 30.7591 114.553 30.7299L114.597 30.0889C114.597 30.0452 114.597 30.0014 114.597 29.9577L114.553 29.2438C114.539 29.171 114.495 28.865 114.524 28.8213C114.553 28.8504 114.553 28.9087 114.582 28.9379C114.67 29.0981 114.742 29.3021 114.873 29.8849C114.946 30.6134 114.815 31.677 114.786 31.8809C114.684 32.7114 114.582 33.1339 114.539 33.9644C114.524 34.1393 114.365 34.7512 114.365 34.7512C114.306 34.9552 114.132 35.7711 114.132 35.7856C114.074 35.9168 114.059 36.1207 114.016 36.2519C113.929 36.5433 113.667 37.6214 113.667 37.636C113.667 37.636 113.202 38.3353 113.333 38.2188C113.435 38.1314 113.522 38.0294 113.653 37.9565C113.798 37.8545 113.929 37.738 114.045 37.6069C114.263 37.4174 113.885 37.2718 114.016 37.0241C114.045 36.9658 114.045 36.8347 114.132 36.8055C114.176 36.791 114.234 36.791 114.234 36.7472C114.263 36.6015 114.059 36.5578 114.132 36.2956C114.161 36.1936 114.248 36.1645 114.336 36.1353C114.481 36.0916 114.437 35.8148 114.612 35.7856C114.684 35.7711 114.8 35.7711 114.815 35.6836C114.829 35.5671 114.742 35.4651 114.771 35.3923C114.844 35.1883 115.033 35.1154 115.236 35.1154C115.323 35.1154 115.367 35.1737 115.425 35.232C115.469 35.2611 115.512 35.2028 115.512 35.1591C115.527 34.7803 115.527 34.926 115.745 34.2995ZM106.723 36.0625C107.26 36.1936 108.03 36.5287 108.466 36.8347C108.568 36.9221 108.742 37.0386 108.844 37.0969C109.425 37.432 109.992 38.0002 110.442 38.3353C110.834 38.6267 111.299 39.2241 111.924 39.6903C111.938 39.7049 112.026 39.7632 112.36 40.1711C112.374 40.0546 112.403 40.0254 112.461 39.9234C112.549 39.8069 112.621 39.6612 112.708 39.5446C112.839 39.2969 112.592 39.4135 112.49 39.2095C112.331 38.889 111.938 38.6559 111.822 38.4519C111.575 38.0148 111.27 37.8983 111.154 37.6651C111.11 37.6214 111.067 37.5777 111.023 37.534C110.921 37.4029 110.791 37.2718 110.674 37.1552C110.457 36.9512 110.297 36.7472 110.093 36.5578C109.963 36.4121 109.803 36.1936 109.643 36.0916C109.628 36.077 109.599 36.0479 109.57 36.0333C109.367 35.8293 109.091 35.7274 108.858 35.5525C108.757 35.4797 108.626 35.4068 108.524 35.3485C107.812 34.9843 107.071 34.7803 106.258 34.8095C105.866 34.8386 105.241 34.8095 104.82 34.7949C104.558 34.7803 103.788 34.7803 103.57 34.8532C103.309 34.9115 102.626 34.8095 102.321 34.7658C102.219 34.7366 102.248 34.9406 102.277 34.9843C102.379 35.1154 102.655 35.6108 102.786 35.8148C102.815 35.8585 102.844 35.9022 102.873 35.9459C102.931 36.0625 103.062 36.1645 103.134 36.281C103.251 36.4413 103.556 36.8638 103.701 36.9804C103.89 37.1261 104.064 37.2718 104.34 37.4903C104.456 37.5777 104.573 37.6651 104.689 37.7526C104.82 37.84 104.95 37.9128 105.081 37.9857C105.168 38.0439 105.502 38.2042 105.59 38.2479C105.735 38.2916 106.447 38.6413 106.476 38.6413C106.665 38.685 107.086 38.8161 107.289 38.9036C107.667 39.0493 107.682 38.991 108.03 39.1804C108.234 39.2824 108.408 39.3698 108.611 39.4718C108.757 39.5738 108.858 39.6175 109.004 39.7195C109.12 39.7923 109.309 39.8943 109.44 39.9526C109.846 40.1711 109.687 40.1711 110.239 40.3897C110.268 40.4042 110.282 40.4188 110.311 40.4188C110.398 40.4771 110.5 40.5208 110.587 40.5645C110.834 40.6665 111.038 40.987 111.299 40.9725C111.357 40.9579 111.459 40.9142 111.517 40.8851C111.677 40.7976 111.706 40.7976 111.909 40.7685C111.982 40.7539 112.069 40.7394 112.156 40.7248C112.2 40.7102 112.171 40.6228 112.156 40.6082C112.098 40.5354 112.04 40.4771 111.996 40.4042C111.866 40.2294 111.706 40.0837 111.561 39.938C111.546 39.9089 111.532 39.8943 111.503 39.8797C111.401 39.8069 111.314 39.7195 111.212 39.6321C111.197 39.6029 111.183 39.5883 111.168 39.5738C111.023 39.4718 110.936 39.3407 110.805 39.2241C110.718 39.1658 110.631 39.1075 110.558 39.0201C110.558 39.0056 110.544 39.0056 110.529 38.991C110.427 38.9181 110.355 38.8453 110.268 38.7579C110.224 38.7142 110.166 38.6704 110.108 38.6267C110.035 38.5539 109.948 38.4519 109.861 38.3936C109.788 38.3353 109.716 38.2771 109.657 38.2042C109.556 38.1168 109.454 38.0294 109.338 37.942C109.309 37.9128 109.265 37.8837 109.236 37.8545C109.062 37.6797 108.873 37.5631 108.684 37.4174C108.539 37.2863 108.364 37.1989 108.219 37.0678C108.19 37.0386 108.147 37.0241 108.103 36.9949C107.943 36.8929 107.769 36.8055 107.609 36.7181C107.464 36.6307 107.275 36.587 107.115 36.5287C107.042 36.5141 106.97 36.4704 106.897 36.4558C106.766 36.4121 106.621 36.383 106.476 36.3393C106.345 36.3101 106.2 36.281 106.069 36.2227C106.025 36.2082 105.996 36.1936 105.953 36.1936C105.851 36.179 105.764 36.1353 105.662 36.1062C105.575 36.077 105.502 36.0333 105.401 36.0188C105.372 36.0188 105.343 36.0042 105.314 35.9896C105.197 35.9459 105.067 35.9168 104.95 35.8731C104.718 35.7856 104.471 35.7128 104.239 35.5962C104.239 35.5962 104.239 35.5671 104.253 35.5671C104.311 35.538 104.515 35.5962 104.573 35.6108C104.631 35.6254 104.674 35.6254 104.732 35.6399C104.878 35.6836 105.023 35.6691 105.168 35.7128C105.851 35.8585 106.069 35.9168 106.723 36.0625ZM114.684 40.0254C114.612 39.9817 114.568 39.8943 114.539 39.8215C114.524 39.7632 114.626 39.5301 114.641 39.4718C114.684 39.3989 114.8 39.2678 114.815 39.2095C114.859 39.093 114.713 39.0784 114.641 39.0056C114.612 38.9618 114.553 38.8744 114.51 38.8453C114.437 38.8016 114.423 38.7142 114.379 38.6996C114.277 38.6704 114.176 38.6704 114.118 38.5685C114.074 38.4956 114.03 38.3936 114.001 38.3062C114.001 38.2188 114.001 38.1605 113.943 38.0877C113.914 38.0439 113.856 38.1605 113.842 38.1751C113.74 38.2479 113.507 38.3645 113.464 38.4665C113.42 38.5685 113.377 38.6413 113.319 38.7287C113.188 38.9473 113.13 39.1367 113.028 39.3552C113.028 39.3698 112.999 39.4718 113.057 39.4281C113.086 39.4135 113.115 39.3698 113.144 39.3407C113.231 39.2532 113.26 39.2241 113.362 39.1658C113.449 39.1075 113.217 39.4572 113.144 39.5446C113.057 39.6175 113.013 39.7049 112.926 39.7923C112.854 39.8652 112.81 39.9526 112.737 40.04C112.665 40.1129 112.621 40.2003 112.607 40.3023C112.723 40.3897 112.694 40.3605 112.665 40.5062C112.65 40.6228 112.723 40.6519 112.723 40.7539C112.723 40.9579 112.897 41.2056 113.072 41.293C113.159 41.3513 113.159 41.4096 113.289 41.4387C113.348 41.4387 113.566 41.4387 113.58 41.4824C113.609 41.5407 113.507 41.5553 113.478 41.5553C113.449 41.5553 113.435 41.599 113.478 41.599C113.653 41.6281 113.871 41.599 114.059 41.599C114.35 41.5698 114.641 41.5698 114.931 41.5844C114.946 41.5844 115.193 41.599 115.149 41.6572C114.975 41.6718 114.67 41.6427 114.539 41.7155C114.481 41.7592 114.365 41.7155 114.35 41.7592C114.321 41.8175 114.481 41.8321 114.51 41.8467C114.524 41.8467 114.815 41.9341 114.844 41.9341C115.004 41.9924 115.164 42.0215 115.323 42.0652C115.512 42.1089 115.716 42.0798 115.905 42.0652C116.05 42.0506 115.977 41.9924 115.919 41.9049C115.803 41.7301 115.905 41.6135 115.846 41.5116C115.803 41.4096 115.73 41.3367 115.614 41.395C115.454 41.497 115.309 41.3804 115.193 41.2784C115.091 41.2202 115.135 41.1182 115.12 41.0308C115.091 40.9579 115.076 40.8851 115.047 40.8122C114.975 40.6374 114.8 40.7685 114.728 40.5499C114.655 40.3751 114.713 40.3168 114.771 40.1566C114.8 40.0837 114.728 40.0546 114.684 40.0254ZM122.021 48.4613C121.527 48.2428 121.527 48.2573 121.077 47.9222C121.033 47.8785 120.699 47.6163 120.67 47.558C120.568 47.456 120.539 47.456 120.437 47.354C120.379 47.2812 120.248 47.1938 120.19 47.1063C120.089 46.9752 119.537 46.509 119.275 46.0573C119.231 45.999 119.159 45.9699 119.13 45.9116C118.708 45.358 118.607 45.2997 118.389 45.052C117.982 44.5858 117.415 44.0758 116.936 43.6824C116.762 43.5367 116.355 43.1725 116.166 43.0705C115.817 42.852 115.599 42.6771 115.222 42.5169C115.076 42.4586 114.917 42.342 114.786 42.2692C114.757 42.2546 114.742 42.2546 114.713 42.24C114.524 42.1672 114.336 42.1089 114.132 42.0506C113.958 41.9924 113.812 41.8758 113.638 41.8321C113.609 41.8321 113.58 41.8321 113.595 41.8612C113.624 41.9778 113.682 42.0943 113.74 42.1963C113.769 42.4877 113.972 42.7208 114.132 42.9394C114.219 43.0705 114.306 43.1725 114.394 43.3036C114.539 43.5513 114.8 43.9301 114.917 44.1778C114.989 44.3089 115.178 44.6149 115.251 44.746C115.338 44.8772 115.396 45.052 115.483 45.1686C115.57 45.3288 115.73 45.5474 115.832 45.7076C115.948 45.8679 116.137 46.1593 116.253 46.3341C116.253 46.3341 117.038 47.1355 117.038 47.15C117.198 47.2957 118.04 47.7474 118.214 47.7911C118.345 47.8348 118.491 47.9077 118.621 47.966C118.796 48.0388 118.941 48.0825 119.13 48.1699C119.348 48.2573 119.609 48.3739 119.827 48.4468C119.914 48.4759 120.001 48.505 120.089 48.5487C120.118 48.5779 120.161 48.5925 120.205 48.607C120.336 48.6507 120.481 48.7381 120.597 48.7819C120.728 48.8256 120.844 48.8984 120.96 48.9276C120.989 48.9276 121.004 48.9421 121.033 48.9567C121.716 49.3209 122.471 49.4375 123.328 49.5832C123.488 49.5978 123.997 49.758 124.026 49.5832C123.982 49.5395 123.953 49.4958 123.924 49.4375C123.88 49.3355 123.837 49.219 123.764 49.117C123.735 49.0878 123.706 49.0441 123.692 48.9858C123.633 48.8547 123.503 48.6799 123.445 48.5487C123.386 48.3739 123.314 48.2136 123.256 48.0534C123.154 47.7765 123.081 47.4851 122.98 47.2083C122.98 47.1646 122.965 47.1355 122.936 47.1063C122.834 46.9461 122.791 46.8004 122.704 46.6547C122.675 46.5964 122.646 46.5527 122.616 46.4944C122.587 46.4361 122.544 46.3778 122.529 46.305C122.515 46.2467 122.471 46.203 122.457 46.1447C122.413 46.0427 122.369 45.9553 122.311 45.8825C122.239 45.7805 122.21 45.7076 122.166 45.6057C122.137 45.5474 122.108 45.5037 122.064 45.4454C122.05 45.4308 122.035 45.4162 122.035 45.3871C121.817 45.052 121.745 44.9354 121.469 44.6295C121.382 44.6149 120.408 43.7116 120.103 43.5367C119.943 43.4493 119.769 43.3619 119.609 43.2599C119.377 43.1288 118.825 42.5314 118.563 42.7063C118.534 42.7354 118.491 42.75 118.447 42.7354C118.229 42.6771 118.244 42.5606 118.142 42.5169C118.084 42.4877 117.938 42.4586 117.895 42.5314C117.851 42.6334 117.837 42.6917 117.735 42.7791C117.648 42.852 117.619 42.8665 117.488 42.8665C117.401 42.8665 117.241 42.7354 117.212 42.648C117.168 42.5606 117.096 42.3857 117.009 42.3566C116.907 42.2983 116.863 42.3129 116.762 42.3275C116.631 42.3275 116.616 42.342 116.515 42.24C116.486 42.2109 116.442 42.1963 116.398 42.1963C116.152 42.24 115.89 42.3129 115.643 42.3129C115.629 42.3129 115.629 42.3275 115.614 42.3275C115.629 42.3566 115.643 42.3857 115.672 42.4003C115.817 42.4586 115.963 42.5169 116.108 42.6043C116.21 42.6626 116.311 42.7354 116.413 42.7937C116.529 42.852 116.631 42.9394 116.747 42.9977C116.994 43.1434 117.154 43.3473 117.372 43.5076C117.43 43.5513 117.474 43.6096 117.532 43.6679C117.59 43.7116 117.662 43.7553 117.721 43.8136C117.779 43.8718 118.287 44.3672 118.287 44.3672C118.389 44.4984 118.505 44.6003 118.621 44.7169C118.636 44.746 118.679 44.7897 118.694 44.8043C118.81 44.8772 118.926 45.0666 119.043 45.1686C119.057 45.1977 119.086 45.2123 119.101 45.2414C119.144 45.3288 119.202 45.3871 119.261 45.46C119.377 45.5765 119.478 45.7222 119.595 45.8388C119.609 45.8679 119.638 45.897 119.653 45.9408C119.711 46.0427 119.798 46.1302 119.871 46.2176C120.001 46.3778 120.161 46.5527 120.292 46.7275C120.307 46.7567 120.336 46.7858 120.365 46.8149C120.568 46.9898 120.728 47.2083 120.931 47.3832C121.047 47.4997 121.164 47.6308 121.294 47.7183C121.411 47.7911 121.483 47.8785 121.6 47.9368C121.774 48.0242 121.934 48.1408 122.123 48.2282H122.137C122.239 48.3302 122.384 48.3448 122.471 48.4613C122.558 48.5342 122.616 48.607 122.689 48.6799C122.733 48.709 122.704 48.7381 122.675 48.7236C122.21 48.5487 122.297 48.5925 122.021 48.4613ZM113.478 42.6043C113.493 42.5169 113.522 42.4586 113.493 42.3857C113.464 42.2983 113.464 42.1963 113.42 42.1235C113.406 42.0215 113.333 41.9632 113.304 41.8612C113.304 41.8321 113.217 41.8175 113.188 41.8175C113.072 41.8321 113.028 41.7884 112.926 41.7301C112.883 41.701 112.825 41.701 112.781 41.7592C112.694 41.9049 112.694 42.1672 112.592 42.3275C112.563 42.4003 112.52 42.4732 112.461 42.5314C112.447 42.5606 112.418 42.6043 112.403 42.6334C112.185 43.0705 111.299 43.8427 110.907 44.207C110.776 44.3235 110.369 44.7315 109.817 45.154C109.004 45.7514 109.134 45.5328 108.481 45.8825C108.394 45.9262 107.972 45.9553 108.074 45.8825C108.335 45.7368 108.597 45.5328 108.858 45.3725C109.047 45.256 109.222 45.0957 109.411 44.9646C109.469 44.9354 109.498 44.9063 109.541 44.8772C109.687 44.7606 109.817 44.6295 109.977 44.5275C110.006 44.4984 110.05 44.4692 110.079 44.4401C110.253 44.2798 110.442 44.1341 110.616 43.9738C110.791 43.799 110.965 43.6533 111.125 43.4785C111.168 43.4348 111.401 43.2016 111.415 43.1725C111.473 43.0705 111.575 43.0122 111.633 42.9102C111.706 42.7937 111.808 42.7354 111.88 42.6189C111.909 42.5897 111.924 42.5606 111.953 42.5314C112.055 42.444 112.142 42.3275 112.185 42.1963C112.229 42.0943 112.403 41.7592 112.403 41.6718C112.403 41.6572 112.447 41.4387 112.432 41.395C112.345 41.2493 112.36 41.1473 112.302 41.0016C112.273 40.8996 111.924 41.0162 111.837 41.0308C111.168 41.1473 110.355 41.8321 109.396 42.0798C109.265 42.1235 108.931 42.1818 108.786 42.1963C108.728 42.2109 108.597 42.24 108.539 42.2546C108.059 42.4586 108.132 42.3857 107.812 42.8228C107.682 42.9977 107.435 43.3036 107.362 43.493C107.275 43.7407 107.159 44.5566 107.13 44.8335C107.115 45.1249 106.839 45.8242 106.694 46.0865C106.49 46.5964 106.65 46.4361 106.766 46.6255C106.81 46.6401 106.955 46.6692 106.999 46.6838C107.086 46.713 107.173 46.713 107.246 46.7421C107.362 46.7712 107.464 46.8004 107.58 46.8149C107.595 46.8149 108.568 47.0335 108.582 47.0335C108.684 47.0772 108.786 47.0772 108.887 47.1209C109.004 47.1646 109.12 47.1792 109.236 47.2229C109.265 47.2229 109.294 47.2375 109.323 47.2375C109.454 47.2375 109.687 47.3686 110.384 47.15C110.529 47.1209 110.776 47.0626 110.907 47.0189C111.822 46.6401 112.389 45.9408 112.49 44.95C112.52 44.7023 112.52 44.5858 112.592 44.3527C112.636 44.207 112.665 44.0758 112.708 43.9301C112.825 43.5659 113.464 42.7354 113.478 42.6043ZM116.224 35.2903C116.137 35.1591 116.152 35.0863 116.006 35.0571C115.803 35.0134 115.745 34.9989 115.672 35.3777C115.614 35.6982 115.498 35.3194 115.251 35.4942C115.018 35.6691 115.265 36.0042 115.207 36.077C115.164 36.1207 115.004 36.0916 114.975 36.0625C114.917 36.0188 114.902 36.0479 114.829 36.0479C114.728 36.0625 114.786 36.2082 114.67 36.281C114.568 36.3539 114.423 36.3247 114.394 36.3976C114.306 36.6744 114.641 36.791 114.786 36.8638C114.786 36.8784 114.786 36.9075 114.771 36.9075C114.568 37.1989 114.292 36.8929 114.481 37.432C114.524 37.5923 114.336 37.7671 114.466 37.7963C114.495 37.7963 114.539 37.8691 114.553 37.9128C114.582 38.1168 114.19 37.8837 114.292 38.3499C114.394 38.6559 114.553 38.4665 114.684 38.481C114.655 38.4956 114.67 38.5976 114.728 38.6267C114.859 38.6996 114.829 38.6996 114.975 38.787C115.062 38.8453 115.004 39.3552 115.178 39.2969C115.73 39.0784 115.309 39.2532 115.556 38.6996C115.759 38.2334 115.57 37.8545 115.643 37.7234C115.759 37.4466 116.064 37.228 116.064 37.0969C116.093 36.587 116.457 35.8731 116.369 35.6836C116.326 35.5817 116.398 35.5671 116.34 35.4505C116.311 35.4068 116.253 35.334 116.224 35.2903ZM115.643 41.1036C115.832 41.0016 115.774 41.1182 115.817 41.1473C115.934 41.191 116.006 41.2347 116.064 41.1036C116.282 40.987 116.064 41.4678 116.093 41.599C116.108 41.6572 116.152 41.7884 116.224 41.7884C116.34 41.7884 116.311 41.8029 116.413 41.8175C116.587 41.8612 116.587 41.6864 116.587 41.9049C116.558 41.9778 116.892 41.9486 116.951 41.9778C117.299 42.1089 117.183 42.1089 117.401 42.4149C117.445 42.4586 117.561 42.5606 117.619 42.444C117.648 42.3857 117.648 42.3712 117.706 42.3275C117.822 42.1526 117.851 42.0798 118.185 42.1963C118.214 42.1963 118.505 41.8758 118.389 42.3275C118.491 42.5169 118.52 42.4732 118.636 42.3857C118.708 42.3129 118.636 42.1526 118.737 42.1963C118.781 42.2109 118.81 42.3275 118.883 42.4003C118.984 42.5314 118.984 42.5169 119.173 42.4586C119.319 42.4003 119.319 41.9341 119.667 42.1963C119.711 42.2255 119.769 42.24 119.813 42.1818C119.842 42.1235 119.769 42.0652 119.74 42.0361C119.595 41.8175 119.377 41.8029 119.144 41.7592C119.086 41.7447 119.028 41.7301 118.955 41.701C118.868 41.6427 118.796 41.6427 118.694 41.6718C118.592 41.7301 118.476 41.7447 118.374 41.7592C118.331 41.7592 118.302 41.7738 118.273 41.7884C118.171 41.8175 118.069 41.8321 117.968 41.8321C117.938 41.8321 117.909 41.8321 117.866 41.8467C117.706 41.8467 117.633 41.7884 117.488 41.7155C117.445 41.6864 117.328 41.4824 117.314 41.4387C117.314 41.4096 117.285 41.3804 117.256 41.3513C117.096 41.2493 116.936 41.1327 116.805 40.987C116.762 40.9433 116.689 40.9142 116.645 40.8559C116.631 40.8413 116.602 40.8122 116.587 40.7976C116.413 40.6665 116.587 40.5499 116.428 40.4188C116.34 40.346 116.137 40.2148 116.108 40.1566C116.05 40.0691 115.977 40.0254 115.934 39.9234C115.861 39.7195 115.905 39.6466 115.745 39.4864C115.716 39.4572 115.658 39.4135 115.614 39.4572C115.541 39.5155 115.469 39.5592 115.367 39.5592C115.309 39.5592 115.265 39.6029 115.222 39.6029C114.771 39.9089 115.323 39.8506 115.062 40.1129C114.946 40.1711 115.047 40.2586 114.975 40.346C114.931 40.4042 114.946 40.4917 115.004 40.4771L115.193 40.4917C115.396 40.3897 115.352 40.7248 115.367 40.7831C115.411 40.9433 115.411 41.0162 115.643 41.1036ZM109.919 41.293C110.18 41.1619 108.699 42.7791 110.776 41.2347C110.805 41.2202 110.805 41.191 110.791 41.1764C110.703 41.1327 110.616 41.089 110.544 41.0599C110.398 40.987 110.297 41.0599 110.195 41.1473L109.861 41.4387C109.846 41.4533 109.817 41.4824 109.788 41.497C109.73 41.5261 109.687 41.4678 109.73 41.4241C109.788 41.3659 109.846 41.3221 109.919 41.293Z" fill="#3F362D"/>
</svg>
