<svg width="17" height="17" viewBox="0 0 17 17" fill="none" xmlns="http://www.w3.org/2000/svg">
<path d="M9.96877 8.50068L16.5313 1.9486C16.7274 1.75245 16.8376 1.48641 16.8376 1.20901C16.8376 0.931617 16.7274 0.665581 16.5313 0.469431C16.3351 0.273282 16.0691 0.163086 15.7917 0.163086C15.5143 0.163086 15.2483 0.273282 15.0521 0.469431L8.50002 7.03193L1.94793 0.469431C1.75178 0.273282 1.48575 0.163086 1.20835 0.163086C0.930954 0.163086 0.664917 0.273282 0.468768 0.469431C0.272618 0.665581 0.162422 0.931617 0.162422 1.20901C0.162422 1.48641 0.272618 1.75245 0.468768 1.9486L7.03127 8.50068L0.468768 15.0528C0.371134 15.1496 0.29364 15.2648 0.240756 15.3917C0.187872 15.5187 0.160645 15.6548 0.160645 15.7923C0.160645 15.9299 0.187872 16.066 0.240756 16.1929C0.29364 16.3199 0.371134 16.4351 0.468768 16.5319C0.565604 16.6296 0.680814 16.7071 0.80775 16.7599C0.934687 16.8128 1.07084 16.8401 1.20835 16.8401C1.34586 16.8401 1.48202 16.8128 1.60895 16.7599C1.73589 16.7071 1.8511 16.6296 1.94793 16.5319L8.50002 9.96943L15.0521 16.5319C15.1489 16.6296 15.2641 16.7071 15.3911 16.7599C15.518 16.8128 15.6542 16.8401 15.7917 16.8401C15.9292 16.8401 16.0653 16.8128 16.1923 16.7599C16.3192 16.7071 16.4344 16.6296 16.5313 16.5319C16.6289 16.4351 16.7064 16.3199 16.7593 16.1929C16.8122 16.066 16.8394 15.9299 16.8394 15.7923C16.8394 15.6548 16.8122 15.5187 16.7593 15.3917C16.7064 15.2648 16.6289 15.1496 16.5313 15.0528L9.96877 8.50068Z" fill="black"/>
</svg>
