<svg width="60" height="60" viewBox="0 0 60 60" fill="none" xmlns="http://www.w3.org/2000/svg">
<path d="M30 60C46.5685 60 60 46.5685 60 30C60 13.4315 46.5685 0 30 0C13.4315 0 0 13.4315 0 30C0 46.5685 13.4315 60 30 60Z" fill="#EA6D70"/>
<path d="M31.6412 29.8489L39.6392 21.8636C39.8783 21.6245 40.0126 21.3003 40.0126 20.9622C40.0126 20.6241 39.8783 20.2999 39.6392 20.0609C39.4001 19.8218 39.0759 19.6875 38.7378 19.6875C38.3998 19.6875 38.0755 19.8218 37.8365 20.0609L29.8511 28.0589L21.8658 20.0609C21.6267 19.8218 21.3025 19.6875 20.9644 19.6875C20.6263 19.6875 20.3021 19.8218 20.063 20.0609C19.824 20.2999 19.6897 20.6241 19.6897 20.9622C19.6897 21.3003 19.824 21.6245 20.063 21.8636L28.0611 29.8489L20.063 37.8343C19.944 37.9523 19.8496 38.0927 19.7851 38.2474C19.7207 38.4021 19.6875 38.5681 19.6875 38.7357C19.6875 38.9033 19.7207 39.0692 19.7851 39.2239C19.8496 39.3786 19.944 39.519 20.063 39.637C20.181 39.756 20.3215 39.8505 20.4762 39.9149C20.6309 39.9794 20.7968 40.0126 20.9644 40.0126C21.132 40.0126 21.2979 39.9794 21.4526 39.9149C21.6073 39.8505 21.7477 39.756 21.8658 39.637L29.8511 31.639L37.8365 39.637C37.9545 39.756 38.0949 39.8505 38.2496 39.9149C38.4043 39.9794 38.5702 40.0126 38.7378 40.0126C38.9054 40.0126 39.0714 39.9794 39.2261 39.9149C39.3808 39.8505 39.5212 39.756 39.6392 39.637C39.7582 39.519 39.8526 39.3786 39.9171 39.2239C39.9815 39.0692 40.0147 38.9033 40.0147 38.7357C40.0147 38.5681 39.9815 38.4021 39.9171 38.2474C39.8526 38.0927 39.7582 37.9523 39.6392 37.8343L31.6412 29.8489Z" fill="white"/>
</svg>
