<svg width="111" height="134" viewBox="0 0 111 134" fill="none" xmlns="http://www.w3.org/2000/svg">
<path d="M87.3949 0.00109863C89.2219 2.31179 84.4984 15.9516 83.8299 17.9258C78.7277 33.136 73.8259 47.5161 68.7236 62.7263C70.1273 62.6142 70.3947 62.7263 71.3305 62.9955L87.64 14.3588C91.0935 4.10651 91.0935 3.02968 93.1433 0.113268L87.3949 0.00109863ZM64.5571 75.3791L56.2687 100.146L33.52 33.5174C30.8909 34.4147 26.8358 36.8152 25.2539 38.2285L49.6959 110.421H55.6003L66.9189 76.1643C66.0945 75.6034 65.7826 75.5361 64.5571 75.3791ZM31.8936 28.8287L28.039 17.2528C27.5265 15.7497 22.7585 3.9719 23.9839 0.0684004L11.0611 0.00109863C13.6011 3.27645 14.069 5.63201 18.3246 18.195L23.4937 33.4276C25.499 31.8797 28.596 30.1972 31.8936 28.8287Z" fill="#BAA99B"/>
<path d="M103.125 94.8741C99.5824 104.521 94.9703 110.466 90.0463 114.818C87.5731 116.994 85.0331 118.766 82.2257 120.359C61.3932 132.406 33.8543 127.291 18.5028 104.521C17.567 103.107 16.7872 101.761 15.9628 100.303C2.90632 77.3981 6.22615 49.9614 24.8306 36.8375C25.9892 36.0075 27.2146 35.2896 28.44 34.5941C34.8123 30.915 41.3183 29.0978 47.7129 29.1203C51.5674 29.1427 54.6422 30.6682 56.0013 33.0238C57.0039 34.8185 57.8283 37.7349 57.0708 39.8213C50.7653 57.0056 49.0497 64.8351 51.055 68.6488C51.9908 70.4884 54.1074 71.4531 56.0459 71.9242C62.3959 73.4273 66.8075 73.517 72.6005 76.5904C73.1798 76.9045 73.6699 78.4749 74.3384 78.3852L76.6778 77.084C77.3017 76.7475 76.3882 77.241 75.6752 76.568C74.7394 75.6707 71.375 74.863 69.3475 73.8759C64.4903 71.4531 55.0432 72.2158 52.8597 66.4503C48.515 54.9641 64.4234 37.0843 62.1954 25.6879C60.6357 25.5308 58.9646 25.4635 57.405 25.3289C48.8046 25.0597 37.2632 26.6525 27.4597 32.3283C1.70316 47.202 -7.12001 80.3593 7.67439 106.293C22.4465 132.227 53.6618 142.255 81.0894 126.416C95.5719 118.026 102.078 103.691 104.061 95.2106L103.125 94.8741Z" fill="#BAA99B"/>
<path d="M95.3937 74.549C95.7279 74.235 95.6833 73.7639 95.5942 73.36C95.5719 73.2703 95.4605 73.1806 95.3937 73.1357C95.3268 73.0684 95.2377 73.0684 95.1486 73.0908C94.9481 73.1357 94.7698 73.0908 94.5916 72.9787C94.3019 72.8441 93.9677 72.8216 93.6781 72.7543C93.5221 72.687 92.72 72.1711 93.6112 72.0364C94.1459 71.9691 95.0595 71.341 95.4382 71.7224C95.2377 71.9691 95.9952 71.8345 95.0372 72.0813C94.8812 72.1037 94.6807 72.5973 94.9926 72.687C95.0595 72.7095 95.104 72.7095 95.1709 72.7319C95.3714 72.7768 95.5496 72.8441 95.7279 72.9787L95.9284 73.3152C95.9507 73.4947 96.0621 73.7639 95.9952 73.9209C95.7947 74.3247 96.7305 73.9433 96.9088 73.9882C97.0202 74.0331 97.5772 74.0106 97.7331 74.0106C98.1565 74.0331 98.6021 74.0106 99.0477 74.0106C99.5156 73.9882 100.139 73.8985 100.607 73.8312C101.409 73.719 101.833 73.6068 102.546 73.2927C102.835 73.1581 103.147 73.0235 103.415 72.8665C104.351 72.4403 104.752 71.9467 105.442 71.498C106.2 71.0269 107.559 69.1873 107.782 68.3573C107.893 67.9086 108.005 68.0208 108.049 67.5497C108.071 67.2805 107.96 67.5945 107.915 67.6394C107.759 67.7067 107.715 67.8413 107.581 67.9086C107.514 67.9759 107.492 67.8862 107.514 67.8413C107.604 67.7291 107.693 67.617 107.759 67.5048C107.804 67.4375 107.871 67.3926 107.915 67.3253C108.138 67.1234 108.116 66.7645 108.339 66.5401C108.472 66.3831 108.762 65.9569 108.851 65.7774C108.918 65.6428 109.23 65.0146 109.252 64.9922C109.431 64.723 109.52 64.6108 109.609 64.2967C109.653 64.1173 109.586 64.3416 109.653 64.1621C109.787 63.7583 108.851 64.0724 108.584 64.1173C107.693 64.2519 106.579 64.1621 105.687 64.05C104.506 63.9602 103.281 63.8256 102.39 63.8705C101.521 63.9378 100.741 64.2294 100.295 64.2967C99.5379 64.4538 98.7135 64.8127 97.956 65.0146C97.8668 65.0371 97.3098 65.1941 97.243 65.2165C96.2626 65.6203 96.53 65.5755 95.5719 65.9793C94.8589 66.428 94.5024 66.6747 93.9454 66.9888C93.8786 67.0337 93.4775 67.0337 93.6112 67.1234C93.6558 67.1459 93.7895 67.1907 93.834 67.2356C93.9677 67.4151 94.1014 67.6843 93.9677 67.9086C93.7895 68.2002 93.8786 68.5143 94.1682 68.6714C94.4579 68.8508 94.4133 68.8284 94.7252 68.8733C95.1263 69.0976 95.3268 69.5014 95.416 69.9501C95.4382 69.995 97.1538 69.8379 98.8026 69.3219C100.295 68.8284 101.231 68.5368 103.236 67.7067C104.484 67.1907 106.4 65.8447 106.712 65.7549C106.757 65.7549 106.913 65.7549 106.913 65.8447C106.913 65.8896 106.757 66.0242 106.735 66.0466C106.735 66.1363 104.841 67.6843 102.969 68.5368C101.766 69.0752 100.318 69.479 99.1146 69.9501C97.3767 70.6455 95.6165 70.8474 95.6165 70.8923C95.661 71.5205 95.4605 71.8121 95.5496 71.9018C94.6584 71.7897 95.5051 69.8379 94.5024 69.4341C93.7226 69.2546 93.9677 69.5687 93.3438 69.5463C92.8537 68.9181 93.8117 67.8413 93.0542 67.774C92.6531 67.8862 92.6754 68.1105 92.1852 67.6843C91.3163 67.3253 92.8091 66.6747 92.4303 66.3158C91.7396 66.4728 91.8288 66.1363 91.8065 65.8223C91.7619 65.6652 91.6282 65.5755 91.6505 65.4184C91.7619 64.8352 90.8707 66.1139 90.4919 65.2838C90.4251 65.1492 89.868 65.0819 89.623 64.9698C88.91 64.4538 89.467 64.9025 88.4198 64.8127C88.1747 64.7454 88.0856 64.6557 87.8851 65.0146C87.7291 65.2614 87.5286 65.3736 86.9938 65.5979C86.9047 65.5979 86.7933 65.5979 86.7042 65.6428C86.6596 65.6876 86.6596 65.7549 86.6819 65.7998C86.7933 65.9569 87.0607 66.4504 87.1052 66.6299C87.1052 66.8093 87.1275 67.0112 87.083 67.1907C87.0384 67.3702 86.9715 67.5497 86.8601 67.7067C86.6373 67.9759 86.7933 68.0432 86.7042 68.2675C86.6373 68.4695 86.6596 68.6938 86.6596 68.9181L86.4591 69.636C86.2363 70.3763 85.6793 70.7577 85.657 71.4083C85.9912 71.7672 85.7461 72.014 85.6793 72.1711C85.657 72.2608 85.6124 72.3505 85.5901 72.4403C85.5233 72.5973 85.3005 72.8889 85.3673 73.0908C85.3896 73.1806 85.4787 73.2254 85.5679 73.203C85.8798 73.0908 86.1026 74.2125 86.3031 74.5266C86.6151 75.0202 86.8601 74.8407 86.9938 75.2445C87.2166 75.8951 87.9742 76.2316 87.9519 76.2765C87.9296 76.3662 88.8654 77.1738 88.9545 77.2635C89.1105 77.3533 89.3556 77.5328 89.5561 77.4879C89.9126 77.3982 89.9572 77.6225 90.3805 77.4206C90.6479 77.286 90.893 77.286 91.1826 77.2635C91.1826 77.2635 92.0293 77.3533 92.1184 77.3982C92.4081 77.7571 92.6531 77.6898 93.0542 77.959C93.1433 78.0039 93.0988 78.4077 93.9677 78.2282C94.0345 78.0936 94.1905 78.0039 94.1237 77.8693C94.1014 77.0168 94.0345 77.3309 94.547 76.927C95.416 76.5232 94.5024 75.9624 94.5247 75.7829C94.5916 74.3247 95.104 75.4015 95.3937 74.549ZM78.438 56.8262C78.438 56.7365 78.4603 56.6468 78.4826 56.5346C78.5494 56.4224 78.5717 56.0635 78.6163 55.9065C78.6831 55.7719 78.6608 55.5924 78.7054 55.4578C78.7722 55.2559 78.75 55.0091 78.8391 54.8296V54.7848C78.9059 54.4483 79.0173 54.1117 79.0842 53.7752C79.2847 53.0125 79.5075 52.2946 79.7972 51.5767C79.8863 51.3075 79.9754 50.9934 80.0645 50.7242C80.0868 50.6121 80.1314 50.4999 80.1759 50.4101C80.2651 50.2755 80.3096 50.1409 80.3319 50.0063C80.421 49.6923 80.577 49.266 80.7329 48.9968C80.7998 48.8846 80.8666 48.75 80.9112 48.6154C81.0003 48.4135 81.3122 48.0097 81.4682 47.8751C81.5351 47.8078 81.5796 47.7405 81.6242 47.6732C81.7133 47.5386 81.8024 47.4489 81.9138 47.3367C82.1366 47.1572 82.3594 46.9553 82.6045 46.7534C82.7382 46.6412 82.8719 46.5739 83.0501 46.5515C83.1838 46.5515 83.3175 46.5739 83.4066 46.6861C83.4512 46.7759 83.5626 46.8432 83.6072 46.9553C83.6963 47.1124 83.7854 47.2694 83.8522 47.4489C83.9859 47.8078 84.1419 48.2116 84.231 48.593C84.2979 48.9744 84.4093 49.3782 84.4984 49.7596C84.6544 50.4101 84.9217 50.9486 85.2114 51.5543C85.2559 51.6664 85.3673 51.8235 85.4119 51.9357C85.5456 52.317 85.7907 52.676 85.9244 53.0574C86.0358 53.3714 86.1917 53.6855 86.3254 53.9996C86.4591 54.2912 86.5259 54.6277 86.6151 54.9418C86.7265 55.368 86.8379 55.7719 86.9047 56.1981C86.9938 56.4449 87.0161 56.7141 87.083 56.9609C87.1275 57.1403 87.1498 57.3198 87.1498 57.4993V57.5441C87.2166 57.9255 87.1944 58.2845 87.1721 58.6658C87.1498 58.935 87.1721 59.2042 87.1275 59.4735C87.083 59.81 86.9938 60.3484 86.8824 60.8419C86.8156 61.1784 86.771 61.5149 86.6819 61.8514C86.6373 62.0534 86.5705 62.2553 86.5037 62.4572C86.37 62.8834 86.2363 63.2872 86.1026 63.7359C86.0803 63.8256 86.058 63.9154 86.0358 64.0275C86.0135 64.0948 85.8798 64.3416 85.9021 64.4089C85.8798 64.4089 85.7238 65.0146 85.9689 64.88C86.7933 65.3287 88.0856 63.8256 88.6649 64.05C88.6426 64.0724 88.6426 64.1621 88.7094 64.1846C88.7986 64.1846 88.8654 64.1621 88.9545 64.0948C89.3556 64.0275 89.4002 64.1173 89.4447 64.1397C89.5338 64.207 89.6007 64.2967 89.6452 64.4089C89.6898 64.6108 89.8235 64.8127 90.0686 64.6781C90.1577 64.6333 90.2691 64.6108 90.3805 64.6333C90.6924 64.7903 90.6702 64.9249 90.7147 64.9473C90.6479 64.9922 90.7147 65.1044 90.8707 65.0146C91.0266 64.9249 91.2049 64.9025 91.3609 64.7903C91.6505 64.6333 91.851 64.8352 92.0293 65.0371C92.1184 65.1044 92.163 65.3736 92.1407 65.4857C92.1184 65.6428 92.2075 65.7549 92.2744 65.8896C92.3635 65.912 92.3635 65.912 92.4749 65.912C92.6977 65.8896 92.9428 66.3382 92.8314 66.5177C92.7645 66.6747 92.6754 66.8542 92.5863 67.0112C92.564 67.0337 92.2521 67.3478 92.4081 67.3926C92.4749 67.3926 93.0319 66.8093 93.1656 66.7645C93.3438 66.6972 93.4775 66.5626 93.6112 66.4504C94.0791 66.0466 94.5916 65.7998 95.104 65.4633C95.3714 65.3063 95.6388 65.1717 95.9061 65.0595C96.4186 64.88 96.9088 64.6108 97.3767 64.3865L97.4658 64.364C97.7109 64.2967 97.8668 64.207 98.1119 64.1397C98.3124 64.0724 98.5575 63.9827 98.7803 63.9602C98.914 63.9154 99.07 63.8705 99.226 63.8481C99.2482 63.8481 99.2928 63.8256 99.3151 63.8256C99.6047 63.7135 99.9167 63.6462 100.206 63.5789C100.451 63.5116 100.719 63.4443 100.964 63.3994C101.098 63.377 101.209 63.3321 101.343 63.3321C101.454 63.3545 101.565 63.3097 101.677 63.2872C101.9 63.2872 102.145 63.2872 102.345 63.2423C102.524 63.2199 102.679 63.2648 102.813 63.2423C103.036 63.2199 103.259 63.2423 103.459 63.2423C103.727 63.2648 103.949 63.2423 104.217 63.2872C104.462 63.3321 104.707 63.3545 104.952 63.3097C105.286 63.2648 105.621 63.2423 105.955 63.2423C106.133 63.2423 106.289 63.2872 106.445 63.2648C106.779 63.3321 107.113 63.3097 107.448 63.3097C107.826 63.3321 108.183 63.377 108.562 63.3994C108.651 63.3994 108.762 63.377 108.851 63.377C109.074 63.3994 109.275 63.4218 109.497 63.3994C109.698 63.377 109.965 63.4218 110.188 63.3994C110.389 63.3994 110.522 63.691 110.5 63.8929C110.433 64.2967 110.21 64.9025 110.01 65.2614C109.943 65.3736 109.921 65.4857 109.832 65.5979C109.72 65.7101 109.653 65.8447 109.564 65.9793C109.542 66.0242 109.52 66.069 109.497 66.0915C109.275 66.3158 109.208 66.6074 109.096 66.8766C109.052 67.0786 108.963 67.258 108.896 67.4599C108.807 67.7516 108.695 68.0656 108.606 68.3573C108.539 68.6265 108.428 68.9406 108.294 69.1873C108.183 69.3668 108.116 69.5463 108.049 69.7482C108.005 69.8155 107.982 69.8828 107.938 69.9277C107.826 70.0623 107.737 70.2417 107.604 70.3763C107.581 70.3988 107.581 70.4212 107.559 70.4436C107.448 70.7128 107.247 70.9148 107.069 71.1615C106.913 71.3859 106.668 71.6775 106.423 71.8345C106.378 71.8794 106.311 71.9243 106.267 71.9691C106.044 72.2159 105.799 72.4178 105.554 72.6422C105.375 72.7543 105.197 73.0011 105.019 73.0684C104.997 73.0908 104.974 73.0908 104.952 73.1133C104.752 73.2927 104.529 73.4049 104.306 73.5171C104.061 73.6741 103.905 73.8087 103.638 73.9209C103.504 73.9658 103.37 74.0555 103.214 74.1228C102.925 74.2125 102.613 74.2798 102.323 74.4144C102.122 74.4817 101.877 74.5042 101.655 74.549C101.632 74.549 101.61 74.549 101.588 74.5715C101.343 74.6612 101.075 74.6836 100.83 74.7061C100.518 74.7285 100.229 74.7734 99.9389 74.7958C99.6493 74.8183 99.2482 74.908 98.9586 74.8856C98.7358 74.8631 98.513 74.8631 98.2679 74.8631C98.0674 74.8631 97.8446 74.8631 97.644 74.8183C97.6217 74.8183 97.5772 74.8183 97.5549 74.8183C97.1761 74.8407 96.7974 74.751 96.4186 74.7061C96.3517 74.7061 96.0175 74.5715 96.0398 74.7285C96.0844 75.0202 96.1289 75.0426 95.9507 75.3342C95.8616 75.424 95.6833 75.5586 95.5496 75.5586C95.3714 75.5586 95.2823 75.5137 95.0817 75.581C95.0372 75.6034 94.9926 75.6932 95.0372 75.7605C95.2154 76.0746 95.4828 75.8726 95.5719 76.4784C95.6165 76.6803 95.26 77.0392 95.0817 77.0616C94.9258 77.1065 94.7252 77.1065 94.6807 77.3309C94.6584 77.4879 94.6584 77.6674 94.6807 77.8468C94.7252 78.116 94.6807 78.4974 94.4133 78.6545C94.2574 78.7442 94.1682 78.8339 93.9454 78.7218C93.8563 78.6769 93.7895 78.6769 93.7003 78.7442C93.6112 78.8115 93.5221 78.8564 93.4107 78.8788C93.3216 78.991 93.3661 79.1256 93.1879 79.2826C93.0542 79.4172 92.8537 79.3275 92.6977 79.2826C92.6086 79.2602 92.3858 79.2826 92.3635 79.3948C92.3189 79.5294 92.2744 79.6415 92.2521 79.7537C92.1852 79.9332 92.6309 80.0229 92.7423 80.0902C93.1656 80.337 93.5666 80.3594 93.9677 80.6735C94.2351 80.8978 94.547 81.1222 94.8367 81.3017C94.9035 81.3465 94.9481 81.3914 95.0149 81.4363L95.8838 82.199C96.1512 82.4458 96.3963 82.7599 96.6637 83.0291C96.7974 83.1861 96.931 83.3431 97.0424 83.5002C97.087 83.6124 97.1538 83.7021 97.243 83.7694C97.2875 83.8367 97.3321 83.8816 97.3544 83.9489C97.4658 84.1283 97.5549 84.3078 97.6663 84.4648C97.8223 84.6892 97.9337 84.9584 98.0896 85.1603C98.1119 85.2276 98.1342 85.2725 98.1565 85.3173C98.357 85.7436 98.5353 86.1474 98.7581 86.5512C98.8472 86.7531 98.914 86.955 99.0031 87.1569C99.0923 87.3364 99.1814 87.5159 99.226 87.6953C99.2928 87.8972 99.4042 88.0543 99.471 88.2562C99.627 88.7497 99.8944 89.1535 100.006 89.6471C100.028 89.6919 100.028 89.7368 100.05 89.7817C100.139 90.006 100.229 90.2304 100.318 90.4547C100.385 90.679 100.496 90.8809 100.563 91.1053C100.607 91.2174 100.696 91.3296 100.741 91.4418C100.875 91.8007 100.986 91.9353 101.209 92.2494C101.409 92.5859 101.788 92.9449 101.61 93.3711C101.387 93.7973 100.496 93.7749 100.095 93.7525C99.6939 93.7076 99.2928 93.5506 98.8917 93.5057C98.7803 93.4833 98.6912 93.4608 98.6021 93.4384C98.357 93.3262 98.0451 93.3038 97.7777 93.2141C97.6217 93.1692 97.4881 93.1243 97.3098 93.1019C97.1984 93.1019 97.087 93.0795 96.9979 93.0346C96.8419 92.9673 96.686 92.9449 96.53 92.9224C96.1067 92.8551 95.6165 92.6308 95.1931 92.4962C95.1709 92.4962 95.1263 92.4962 95.104 92.4737C94.8589 92.3616 94.5693 92.2718 94.3242 92.1597C94.0123 92.0026 93.7003 91.9129 93.3884 91.7334C93.2993 91.6661 93.1879 91.6213 93.0765 91.5764C92.7423 91.4418 92.4081 91.2847 92.0516 91.1726C92.007 91.1501 91.9402 91.1277 91.8956 91.1053L91.294 90.7688C91.2495 90.7463 91.2049 90.7239 91.138 90.7015C90.9152 90.6342 90.737 90.4996 90.5142 90.4098C90.3582 90.3425 90.2023 90.2752 90.0463 90.2079C89.9349 90.1406 89.8235 90.0509 89.6898 90.006C89.5561 89.9611 89.4002 89.9163 89.2887 89.849C88.91 89.6919 88.5312 89.5573 88.1747 89.4227C87.9296 89.333 87.6845 89.1087 87.4394 88.9965C87.3503 88.9516 87.1721 88.817 87.1052 88.7048C87.0384 88.5927 86.9047 88.5478 86.8156 88.4581C86.5259 88.144 86.2363 87.8075 85.9689 87.4486C85.8798 87.3139 85.7907 87.2242 85.6793 87.0672C85.4565 86.7531 85.2337 86.4615 85.0108 86.1474C84.8994 86.0128 84.8103 85.923 84.7212 85.766C84.6321 85.5641 84.4984 85.3622 84.3647 85.1827C84.3424 85.1379 84.3201 85.1154 84.2979 85.0706C84.231 84.8911 84.0973 84.7565 84.0305 84.577C83.9414 84.3751 83.7854 84.1956 83.6963 83.9937C83.5849 83.7245 83.4512 83.545 83.3398 83.2983C83.2729 83.1412 83.2061 82.9842 83.117 82.8496C83.0279 82.715 82.9833 82.558 82.8942 82.4234C82.7828 82.2214 82.6491 82.042 82.56 81.8176C82.4263 81.6382 82.2926 81.4138 82.1366 81.2344C81.9361 80.9651 81.8247 80.7184 81.6019 80.4716C81.5128 80.3819 81.3791 80.5613 81.3345 80.5838C81.2454 80.6959 81.2231 80.8081 81.2231 80.9427C81.0672 81.2119 80.8889 81.4811 80.7329 81.7503C80.6215 81.9747 80.421 82.1766 80.3319 82.4234C80.3319 82.4682 80.2873 82.5131 80.2651 82.5804C80.1759 82.7374 80.1314 82.9169 80.1091 83.0964C80.0645 83.2758 79.9754 83.2983 79.9531 83.5002C79.8863 83.9937 79.7526 84.4873 79.7303 84.9808C79.7303 85.3398 79.6189 85.766 79.4407 86.0801C79.3293 86.3044 79.2179 86.5288 79.0619 86.7082C78.8614 86.955 78.75 87.1793 78.5049 87.4037C77.9479 87.9421 77.5022 88.3459 76.7447 88.5702C76.5887 88.6375 76.4328 88.7048 76.2545 88.7497C76.054 88.8395 75.8535 88.8619 75.6529 88.9292C75.4524 88.9965 75.2519 89.0189 75.0736 89.0638C74.8286 89.1087 74.5835 89.1311 74.3384 89.0862C74.1601 89.0414 73.9819 89.0862 73.8036 89.0638C73.6031 89.0189 73.4249 88.9965 73.2466 88.9965C72.9792 89.0189 72.4222 88.8843 72.1549 88.817C71.6424 88.6824 71.5978 88.7273 71.0854 88.6151C70.8403 88.5478 70.1273 88.3235 69.8599 88.2786C69.7485 88.2562 69.5035 88.2562 69.4143 88.2113C69.0356 88.0543 68.6345 88.0543 68.2557 87.8748C67.9884 87.7626 67.7433 87.8075 67.5205 87.5607C67.008 86.9101 67.8101 86.0801 67.9884 85.4295C68.0552 85.1154 68.2557 84.8462 68.3226 84.5321C68.3449 84.42 68.4563 84.1508 68.4563 83.8816C68.5231 83.5899 68.5454 83.4553 68.5454 83.3207C68.5454 83.1637 68.5899 83.0066 68.6122 82.8496C68.6345 82.7823 68.6568 82.715 68.6345 82.6253C68.6122 82.2887 68.7905 81.3914 68.9464 81.0773C69.0578 80.8305 69.2138 80.5389 69.3029 80.2697C69.6817 79.3948 69.7263 79.3723 70.0828 79.0134C70.2833 78.8564 70.3501 78.6993 70.5506 78.5647C70.6621 78.475 70.818 78.4077 70.9071 78.3179C71.0408 78.2058 71.1968 78.1385 71.3305 78.0487C71.4196 78.0039 71.531 77.9814 71.5978 77.9141C71.687 77.8693 71.7761 77.802 71.8429 77.7571C71.9766 77.6674 72.2885 77.5328 72.3554 77.443C73.2243 77.0168 72.957 77.1065 73.6922 76.5008C73.7368 76.5008 74.3161 76.1867 74.071 76.0521C73.8036 75.9175 73.514 75.7829 73.2243 75.6483C73.1798 75.6259 73.0684 75.6034 73.0238 75.6259C72.6896 75.3791 73.2689 75.7156 72.5782 75.3342C72.2885 75.1548 71.9989 75.0202 71.7092 74.8856C71.3973 74.751 71.1745 74.6612 70.9963 74.5042C70.9963 74.4593 70.9294 74.4144 70.8849 74.392C70.4838 74.1452 70.0828 73.876 69.6594 73.6966C69.2806 73.5171 68.835 73.2254 68.4563 73.1357C68.0106 72.9787 67.5873 72.7319 67.1417 72.5524C66.9635 72.4851 65.582 71.857 65.2701 71.7224C65.181 71.6775 65.0919 71.6326 65.0027 71.5653C64.8245 71.4532 64.624 71.3634 64.4457 71.2737C64.067 71.0942 63.5322 70.7577 63.2203 70.4661C63.042 70.309 62.8415 70.1744 62.6633 69.995C62.5296 69.8379 62.3736 69.6809 62.2177 69.5463C62.1731 69.5238 62.1508 69.5014 62.1285 69.4565C61.8834 69.1873 61.6384 68.9406 61.4155 68.6489C61.3933 68.6041 61.3487 68.5592 61.3041 68.5368C61.1259 68.3573 61.0145 68.0208 60.8585 67.8189C60.6803 67.617 60.5466 67.3926 60.4352 67.1683C60.1901 66.6523 59.9673 66.1139 59.6776 65.6203C59.5885 65.4409 59.544 65.2614 59.4771 65.0595C59.4103 64.8576 59.4548 64.6108 59.6554 64.4986C59.9227 64.3865 60.0341 64.3416 60.3238 64.4089C60.5689 64.4762 61.1259 64.5435 61.371 64.4986C61.4378 64.4762 61.5047 64.4762 61.5492 64.4762C61.7498 64.5211 61.9503 64.4762 62.1508 64.4762C62.1731 64.4762 62.1954 64.4762 62.2399 64.4762C62.6187 64.4313 63.0198 64.4538 63.4208 64.4089C63.5322 64.4089 63.6436 64.4089 63.755 64.3865C63.8887 64.3416 64.0224 64.364 64.1338 64.3416C64.3343 64.364 64.5349 64.3416 64.7354 64.3192C65.0473 64.3192 65.3592 64.3192 65.6712 64.2743C65.9163 64.2967 66.1613 64.2519 66.4064 64.2294C66.451 64.2294 66.5178 64.2519 66.5624 64.2519C66.7406 64.207 66.8966 64.2294 67.0749 64.2294C67.4759 64.2519 67.8324 64.2519 68.2112 64.2967C68.4563 64.3416 68.7013 64.364 68.9464 64.4089C69.1024 64.4313 69.2806 64.4762 69.4366 64.4986C69.704 64.5211 69.9713 64.6108 70.2387 64.6557C70.4615 64.7006 70.7735 64.7903 70.974 64.88C71.0854 64.9473 71.1968 64.9922 71.3082 65.0371C71.4864 65.0819 71.6424 65.1492 71.7984 65.239C71.9766 65.3287 72.1771 65.396 72.3777 65.4633C72.6228 65.553 72.8456 65.6652 73.0684 65.8223C73.1352 65.8671 73.2243 65.912 73.2912 65.9344C73.6031 66.0915 74.3161 66.6074 74.5612 66.8766C74.7171 67.0337 74.8731 67.2132 75.0514 67.3478C75.185 67.5048 75.3633 67.6394 75.497 67.8189C75.5861 67.931 75.7198 68.0432 75.8312 68.1554C75.9871 68.3124 76.1431 68.4695 76.3214 68.6041C76.455 68.7835 76.5664 68.963 76.7001 69.1425C76.8338 69.2995 76.9675 69.4341 77.1012 69.5912C77.3463 69.8828 77.5914 70.1969 77.8587 70.4661C78.0815 70.6904 78.2821 70.9148 78.5049 71.1391C78.5272 71.184 78.5494 71.1615 78.5717 71.1391C78.6386 71.0269 78.438 70.2193 78.3935 70.0398C78.3712 69.9501 78.3935 69.8379 78.3489 69.7482C78.2821 69.5912 78.2375 69.2995 78.2152 69.12C78.1707 68.806 78.1038 68.4695 78.0815 68.1554C78.037 67.931 78.0147 67.6843 78.0147 67.4599C77.9701 67.3029 77.9701 67.1234 77.9256 66.9664C77.881 66.7645 77.881 66.5626 77.8587 66.3607C77.8587 65.912 77.7696 65.4409 77.7473 64.9922C77.725 64.6781 77.6805 64.364 77.7028 64.05C77.6582 63.691 77.6359 63.3321 77.6359 62.9731C77.6582 62.6142 77.6582 62.2553 77.6359 61.8963C77.6136 61.7617 77.6136 61.6271 77.6359 61.4701C77.6582 61.0887 77.6582 60.6849 77.725 60.3259C77.7696 59.9894 77.8365 59.6305 77.881 59.294C77.9033 59.0696 77.9479 58.8453 77.9924 58.621C77.9924 58.5312 78.037 58.4639 78.0593 58.3742C78.1038 58.1947 78.1707 58.0152 78.1929 57.8358C78.1929 57.746 78.2152 57.6339 78.2598 57.5441C78.3043 57.432 78.3266 57.2974 78.3489 57.1628C78.3712 57.0506 78.4157 56.9384 78.438 56.8262ZM85.3228 64.0724C85.5679 63.018 85.9244 61.8739 86.214 60.7971C86.3923 60.1016 86.5037 58.8229 86.4591 58.105C86.4591 57.589 86.5259 57.0057 86.37 56.5122C86.0358 55.054 85.7684 54.4258 85.3451 53.2368C85.2559 53.0125 85.1891 52.8106 85.0777 52.5862C84.8549 52.1151 84.6544 51.7113 84.4315 51.2178C84.2979 50.9037 84.1419 50.5896 84.0082 50.2755C83.8968 50.0288 83.7854 49.625 83.7186 49.3558C83.6963 49.1987 83.6294 48.8173 83.6072 48.6827C83.518 48.5257 83.4066 47.9424 83.3621 47.8302C83.1615 47.6059 83.3844 47.561 83.0501 47.5162C82.8942 47.4713 83.0279 47.6059 82.8942 47.6508C82.6491 47.7181 82.7159 47.7405 82.5377 47.92C82.5154 47.9424 82.5154 47.9649 82.4931 47.9873C82.4486 48.1219 82.3372 48.1892 82.2703 48.3238C81.7356 49.0865 80.5547 51.6664 80.2873 52.5862C80.0645 53.4163 79.708 54.2239 79.5521 55.0988C79.3738 55.9962 79.1065 56.8936 79.1065 57.8133C79.1065 58.0377 78.8391 59.5632 78.7945 60.0343C78.6608 61.2906 78.4603 62.4123 78.5717 63.7135C78.5272 63.9827 78.6163 64.4089 78.6386 64.7006C78.6831 65.9793 78.9505 68.806 79.3293 69.8604C79.5521 70.4436 79.6189 71.184 79.7303 71.7897C79.7526 71.9691 79.8194 72.1486 79.8417 72.3281C79.8417 72.3954 79.8863 72.4627 79.9531 72.5076C80.0422 72.5973 80.0868 72.373 80.0868 72.3057C80.1091 72.1037 80.1536 71.9243 80.2205 71.7224C80.3542 71.2513 80.4879 70.7577 80.6438 70.2866C80.7552 70.0174 80.8221 69.6809 80.8889 69.3892C81.0003 69.0303 81.0449 68.6714 81.1786 68.3573C81.29 68.0656 81.3568 67.774 81.4459 67.4824C81.5573 67.3253 81.5351 67.0337 81.6019 66.8318C81.6687 66.585 81.7356 66.3382 81.8024 66.069C81.8693 65.7998 81.9361 65.5306 81.9807 65.239C82.0029 65.1941 82.0029 65.1268 82.0252 65.0819C82.1366 64.6557 82.1812 64.2743 82.2703 63.8481C82.3149 63.5564 82.3372 63.2872 82.3817 62.9956C82.4263 62.7712 82.4931 62.4347 82.4931 62.188C82.4931 62.0982 82.4931 61.9861 82.5154 61.8963C82.6491 61.2906 82.6268 60.6624 82.8051 60.0343C82.8496 59.967 82.8496 59.8773 82.8719 59.7875C82.8719 59.451 82.9165 59.1369 82.961 58.8004C83.0056 58.3966 83.0056 57.9704 83.0724 57.5666C83.0724 57.5217 83.0724 57.4768 83.0947 57.432L83.1615 56.243C83.1838 56.1532 83.1838 56.0635 83.1615 55.9738L83.0947 54.6502C83.0724 54.4931 82.9833 53.9547 83.0501 53.865C83.0947 53.9098 83.0947 53.9996 83.1393 54.0669C83.3175 54.3585 83.4512 54.7399 83.6963 55.8392C83.83 57.2076 83.5626 59.1818 83.518 59.5856C83.3398 61.1336 83.1615 61.9187 83.0501 63.4667C83.0279 63.7808 82.7382 64.9249 82.7382 64.9249C82.6268 65.3063 82.3149 66.8542 82.2926 66.8542C82.2035 67.1234 82.1812 67.4824 82.0921 67.7516C81.9361 68.29 81.4459 70.309 81.4459 70.3315C81.4459 70.3315 80.577 71.6326 80.8221 71.4083C81.0226 71.2513 81.1786 71.0718 81.4014 70.9148C81.691 70.7353 81.9138 70.5109 82.1589 70.2866C82.56 69.9277 81.847 69.6585 82.0921 69.1873C82.1366 69.0527 82.1589 68.8284 82.2926 68.7835C82.3817 68.7611 82.4931 68.7387 82.5154 68.6489C82.56 68.4022 82.1812 68.3124 82.3149 67.8189C82.3594 67.617 82.5377 67.5721 82.6936 67.5048C82.9387 67.4375 82.8942 66.9215 83.2061 66.8542C83.3398 66.8318 83.5626 66.8542 83.5849 66.6747C83.6072 66.4504 83.4512 66.2709 83.4958 66.1363C83.6294 65.7549 83.9859 65.6203 84.3647 65.6203C84.5207 65.6203 84.6098 65.7325 84.7212 65.8223C84.788 65.8896 84.8994 65.7774 84.8994 65.7101C84.8994 64.9922 84.8994 65.2614 85.3228 64.0724ZM68.5231 67.3926C69.5257 67.617 70.9294 68.2451 71.7761 68.8284C71.9543 68.9854 72.2663 69.2098 72.4668 69.3219C73.5585 69.9501 74.6057 71.0045 75.4524 71.6326C76.1654 72.1711 77.0343 73.2927 78.1929 74.1677C78.2375 74.1901 78.3935 74.3023 79.0173 75.065C79.0396 74.8631 79.0842 74.7734 79.1956 74.6163C79.3738 74.392 79.4852 74.1228 79.6635 73.8985C79.9086 73.4273 79.4407 73.6517 79.2401 73.2703C78.9505 72.6646 78.2375 72.2384 77.9924 71.857C77.5468 71.0269 76.9898 70.825 76.7447 70.3988C76.7001 70.2866 76.5887 70.2193 76.5219 70.1296C76.3436 69.9052 76.0986 69.6585 75.8757 69.4341C75.4747 69.0527 75.1628 68.6714 74.8063 68.3124C74.5612 68.0432 74.2493 67.6394 73.9596 67.4375C73.915 67.4151 73.8705 67.3702 73.8259 67.3253C73.4471 66.9439 72.9347 66.7645 72.4891 66.428C72.3108 66.2934 72.0657 66.1812 71.8652 66.069C70.5506 65.3736 69.1692 64.9922 67.6542 65.0595C66.9189 65.0819 65.7603 65.0371 64.9805 65.0146C64.5126 64.9698 63.042 64.9922 62.641 65.1268C62.1508 65.239 60.9031 65.0595 60.3238 64.9473C60.1455 64.9249 60.1901 65.3063 60.2569 65.3736C60.4352 65.6203 60.9477 66.5626 61.1927 66.9215C61.2373 66.9888 61.2819 67.0786 61.3487 67.1683C61.4601 67.3702 61.7052 67.5721 61.8389 67.7964C62.0617 68.1105 62.6187 68.8733 62.9084 69.0976C63.2648 69.3668 63.5545 69.6585 64.0892 70.0398C64.312 70.2193 64.5126 70.3763 64.7354 70.5334C64.9805 70.6904 65.2256 70.8474 65.4706 70.9821C65.6266 71.0718 66.2505 71.3859 66.4064 71.4532C66.6738 71.5653 68.0106 72.1935 68.0552 72.1935C68.4117 72.2832 69.1915 72.53 69.5703 72.687C70.261 72.9562 70.3056 72.8665 70.9517 73.2254C71.3305 73.4049 71.6424 73.5844 72.0212 73.7639C72.3108 73.9658 72.4891 74.0331 72.7787 74.235C72.9792 74.3696 73.3357 74.5266 73.5585 74.6612C74.3384 75.065 74.0264 75.065 75.0736 75.4688C75.1182 75.4913 75.1405 75.5137 75.185 75.5361C75.3633 75.6259 75.5415 75.7156 75.7198 75.8053C76.1877 75.9848 76.5442 76.5905 77.0343 76.5457C77.1457 76.5457 77.324 76.4559 77.4354 76.3886C77.7473 76.254 77.7919 76.2316 78.1484 76.1867C78.3043 76.1643 78.4603 76.1419 78.6163 76.097C78.7054 76.0746 78.6608 75.9175 78.6163 75.8726C78.5272 75.738 78.4157 75.6259 78.3266 75.5137C78.0815 75.1772 77.7919 74.908 77.5245 74.6163C77.5022 74.5939 77.4577 74.549 77.4354 74.5266C77.2349 74.392 77.0566 74.235 76.8784 74.0555C76.8561 74.0106 76.8338 73.9882 76.7893 73.9658C76.5219 73.7639 76.3659 73.5171 76.1208 73.3152C75.9649 73.1806 75.8089 73.0684 75.6752 72.9114C75.6529 72.8889 75.6307 72.8665 75.6084 72.8665C75.4301 72.7319 75.2742 72.5749 75.1182 72.4403C75.0291 72.3505 74.9177 72.2608 74.8286 72.1711C74.6726 72.0364 74.5389 71.857 74.3607 71.7448C74.227 71.6326 74.0933 71.5205 73.9819 71.4083C73.8036 71.2288 73.6031 71.0494 73.4026 70.8923C73.3357 70.8474 73.2689 70.8026 73.2021 70.7353C72.8678 70.3988 72.5114 70.1969 72.1549 69.9052C71.8875 69.6809 71.5756 69.5014 71.3082 69.2771C71.2414 69.2322 71.1745 69.1649 71.1077 69.12C70.7957 68.9406 70.4615 68.7835 70.1719 68.6041C69.9045 68.447 69.548 68.3573 69.2584 68.2675C69.1024 68.2227 68.991 68.1554 68.8573 68.1329C68.5899 68.0432 68.3226 67.9759 68.0552 67.9086C67.8101 67.8637 67.5427 67.7964 67.2977 67.6843C67.2308 67.6618 67.164 67.6394 67.0749 67.6394C66.8966 67.5945 66.7184 67.5272 66.5624 67.4599C66.4064 67.4151 66.2505 67.3253 66.0722 67.3029C66.0054 67.3029 65.9608 67.2805 65.9163 67.258C65.6712 67.1683 65.4484 67.101 65.2256 67.0112C64.7799 66.8542 64.3343 66.742 63.911 66.5177C63.8887 66.5177 63.911 66.4728 63.9333 66.4504C64.0224 66.4055 64.4012 66.5177 64.5126 66.5401C64.624 66.585 64.7131 66.5626 64.8022 66.6074C65.0919 66.6747 65.3592 66.6523 65.6489 66.742C66.8966 67.0112 67.3199 67.1234 68.5231 67.3926ZM83.3175 74.7958C83.1838 74.7285 83.117 74.549 83.0724 74.4144C83.0501 74.3023 83.2061 73.8536 83.2507 73.7639C83.3398 73.6293 83.5626 73.3825 83.5849 73.2703C83.6517 73.046 83.3844 73.0235 83.2507 72.8889C83.2061 72.8216 83.0947 72.6422 83.0279 72.5973C82.8942 72.5076 82.8496 72.3281 82.7828 72.3057C82.5822 72.2608 82.404 72.2608 82.2926 72.0813C82.2035 71.9243 82.1144 71.7448 82.0698 71.5653C82.0475 71.4083 82.0698 71.2961 81.9584 71.1615C81.8915 71.0718 81.8024 71.2961 81.7579 71.341C81.5796 71.4532 81.1563 71.6999 81.0672 71.8794C81.0003 72.0589 80.8889 72.2159 80.7998 72.373C80.5547 72.7768 80.4433 73.1357 80.2651 73.5395C80.2428 73.5844 80.2205 73.7414 80.3096 73.6966C80.3765 73.6293 80.421 73.562 80.4879 73.5171C80.6215 73.3376 80.7107 73.2927 80.8666 73.1806C81.0449 73.0684 80.5993 73.7414 80.4656 73.8985C80.3319 74.0331 80.2205 74.2125 80.0645 74.3471C79.9308 74.4817 79.8417 74.6612 79.708 74.8183C79.5966 74.9529 79.4852 75.1099 79.4629 75.3118C79.6858 75.4688 79.6189 75.424 79.5743 75.6932C79.5521 75.9175 79.6858 75.9624 79.708 76.1419C79.708 76.5232 79.9977 76.9943 80.3319 77.1738C80.5101 77.2635 80.5101 77.3982 80.7552 77.4206C80.8666 77.443 81.2454 77.443 81.29 77.5103C81.3345 77.6225 81.1563 77.6449 81.0894 77.6449C81.0449 77.6449 81.0226 77.7347 81.0894 77.7347C81.4236 77.802 81.8247 77.7347 82.1812 77.7347C82.7159 77.6674 83.2729 77.6898 83.8077 77.7122C83.83 77.7122 84.2979 77.7571 84.2087 77.8468C83.8968 77.8693 83.3175 77.802 83.0724 77.959C82.961 78.0263 82.7382 77.959 82.6936 78.0263C82.6714 78.1385 82.961 78.1609 83.0279 78.1833C83.0501 78.1833 83.5849 78.3628 83.6294 78.3628C83.9191 78.475 84.231 78.5198 84.5429 78.6096C84.8772 78.6769 85.2559 78.632 85.5901 78.6096C85.8798 78.5872 85.7461 78.4525 85.6347 78.3179C85.4119 77.9814 85.6124 77.7571 85.501 77.5552C85.4119 77.3757 85.2782 77.2411 85.0777 77.3533C84.788 77.5552 84.4984 77.3084 84.2756 77.1514C84.0973 77.0392 84.1865 76.8149 84.1419 76.6578C84.0973 76.5232 84.0528 76.3886 84.0082 76.254C83.8968 75.9399 83.5626 76.1867 83.4066 75.7829C83.2952 75.4464 83.3844 75.3342 83.518 75.0426C83.5626 74.908 83.4066 74.8407 83.3175 74.7958ZM96.9979 90.5669C96.0844 90.1406 96.0621 90.1855 95.2377 89.5349C95.1486 89.4676 94.547 88.9741 94.4579 88.8843C94.3019 88.6824 94.2351 88.6824 94.0568 88.5029C93.9231 88.3683 93.6781 88.1889 93.5666 88.0318C93.4107 87.7851 92.3635 86.9101 91.8956 86.0801C91.8065 85.9455 91.6728 85.9006 91.6282 85.8109C90.8261 84.7565 90.6256 84.6443 90.2245 84.1956C89.4893 83.3207 88.4198 82.3785 87.5286 81.6157C87.2166 81.369 86.4368 80.6959 86.1026 80.494C85.4565 80.0902 85.0331 79.7537 84.3424 79.4621C84.0751 79.3275 83.7854 79.1256 83.518 78.991C83.4735 78.9685 83.4289 78.9461 83.4066 78.9461C83.0279 78.8115 82.6714 78.6769 82.2926 78.5872C81.9807 78.475 81.7133 78.2506 81.4014 78.1609C81.3568 78.1609 81.29 78.1609 81.3122 78.2282C81.3568 78.4525 81.4682 78.6545 81.5796 78.8564C81.6242 79.3948 82.0252 79.821 82.3149 80.2473C82.4931 80.494 82.6268 80.6735 82.7828 80.9203C83.0724 81.369 83.5403 82.1093 83.7631 82.558C83.8968 82.8047 84.2533 83.3656 84.387 83.6124C84.5429 83.8591 84.6544 84.1732 84.8103 84.42C85.0108 84.7116 85.2782 85.1154 85.4787 85.4071C85.7015 85.6987 86.058 86.2596 86.2586 86.5736C86.2586 86.5736 87.7068 88.0767 87.7291 88.0991C88.0187 88.3683 89.5784 89.2208 89.9126 89.3106C90.1577 89.3779 90.4251 89.5125 90.6702 89.6246C91.0044 89.7817 91.2717 89.8714 91.6059 90.006C92.0293 90.1631 92.4972 90.3874 92.9205 90.522C93.0765 90.5893 93.2324 90.6342 93.3884 90.7239C93.4552 90.7688 93.5444 90.8136 93.6112 90.8361C93.834 90.9258 94.1237 91.0828 94.3465 91.1501C94.5916 91.2399 94.7921 91.3745 95.0372 91.4194C95.0595 91.4418 95.104 91.4642 95.1486 91.4867C96.4186 92.1597 97.8223 92.384 99.4265 92.6757C99.7161 92.6757 100.674 92.9897 100.719 92.6532C100.652 92.5635 100.585 92.4962 100.541 92.3616C100.451 92.1821 100.385 91.9578 100.251 91.8007C100.184 91.711 100.139 91.6437 100.095 91.554C99.9835 91.2847 99.7384 90.9707 99.6493 90.7239C99.5379 90.4098 99.4042 90.0958 99.2928 89.7817C99.1146 89.2657 98.9586 88.7497 98.7803 88.2113C98.7581 88.144 98.7358 88.0767 98.7135 88.0094C98.513 87.7402 98.4238 87.471 98.2679 87.1793C98.201 87.0896 98.1565 86.9774 98.0896 86.8877C98.0451 86.7531 97.9782 86.6634 97.9337 86.5288C97.9114 86.4166 97.8223 86.3269 97.8 86.2147C97.7109 86.0576 97.644 85.8782 97.5326 85.7211C97.3989 85.5641 97.3544 85.4071 97.2653 85.2276C97.1984 85.1154 97.1538 85.0257 97.087 84.936C97.0647 84.8911 97.0202 84.8686 96.9979 84.8238C96.6191 84.1956 96.4631 83.9713 95.9507 83.388C95.7947 83.3656 93.99 81.7055 93.433 81.369C93.121 81.1895 92.7868 81.01 92.4972 80.8305C92.0738 80.5838 91.0489 79.4621 90.581 79.7986C90.4919 79.8435 90.4251 79.8883 90.3359 79.8659C89.9349 79.7537 89.9572 79.5294 89.7566 79.4396C89.6452 79.3723 89.4002 79.3499 89.3333 79.4621C89.2219 79.664 89.2219 79.7761 89.0214 79.9332C88.8431 80.0678 88.7986 80.1127 88.5535 80.1127C88.3752 80.0902 88.1079 79.8435 88.041 79.7088C87.9519 79.5518 87.8405 79.2153 87.6623 79.148C87.4617 79.0583 87.4172 79.0807 87.2166 79.0807C86.9493 79.1031 86.9493 79.1256 86.7487 78.9461C86.6819 78.8788 86.5928 78.8339 86.5259 78.8564C86.058 78.9461 85.5901 79.0583 85.1222 79.0583C85.1 79.0583 85.0777 79.0807 85.0554 79.1031C85.1 79.148 85.1222 79.1929 85.1891 79.2153C85.4565 79.3275 85.7238 79.4621 85.9912 79.6191C86.1694 79.7313 86.37 79.8659 86.5705 79.9556C86.771 80.0902 86.9715 80.2248 87.1721 80.3594C87.64 80.6062 87.9296 80.9876 88.3307 81.3017C88.4421 81.3914 88.5535 81.5036 88.6426 81.5933C88.754 81.683 88.8654 81.7728 88.9768 81.8625C89.0882 81.9747 90.0463 82.8945 90.0463 82.9169C90.2245 83.1637 90.4696 83.3431 90.6479 83.5675C90.6924 83.6124 90.7593 83.6796 90.8038 83.7245C91.0266 83.8591 91.2495 84.1956 91.45 84.3975C91.4945 84.4424 91.5168 84.4873 91.5614 84.5321C91.6282 84.6892 91.7396 84.8238 91.8733 84.9584C92.0738 85.1827 92.2744 85.4295 92.4749 85.6763C92.5195 85.7211 92.564 85.7884 92.6086 85.8333C92.6977 86.0352 92.8537 86.1922 92.9874 86.3493C93.2547 86.6634 93.5444 86.9774 93.7672 87.3139C93.8117 87.3812 93.8563 87.4261 93.9009 87.471C94.2796 87.8075 94.5916 88.2113 94.9703 88.5478C95.1931 88.7497 95.3937 88.9965 95.661 89.176C95.8393 89.3106 95.9952 89.4676 96.2181 89.5798C96.5523 89.7368 96.8419 89.9611 97.1761 90.1182C97.1984 90.1182 97.1984 90.1182 97.2207 90.1406C97.3989 90.3201 97.6663 90.3425 97.8446 90.5669C97.9782 90.679 98.0896 90.8361 98.2456 90.9482C98.3124 91.0155 98.2456 91.0828 98.201 91.038C97.3544 90.7015 97.5103 90.8136 96.9979 90.5669ZM81.0894 79.5967C81.1117 79.4621 81.1786 79.3499 81.1117 79.1929C81.0672 79.0358 81.0449 78.8564 80.978 78.6993C80.9558 78.5423 80.8221 78.4077 80.7775 78.2282C80.7775 78.1609 80.5993 78.1385 80.5547 78.1385C80.3319 78.1609 80.2651 78.0712 80.0645 77.9814C79.9754 77.9366 79.864 77.9366 79.7972 78.0263C79.6412 78.2955 79.6189 78.8115 79.4629 79.0807C79.3738 79.2153 79.307 79.3499 79.1956 79.4845C79.151 79.5294 79.1287 79.5967 79.0842 79.664C78.6831 80.494 77.0343 81.9074 76.2991 82.6253C76.0763 82.8272 75.2964 83.5899 74.2715 84.3751C72.7564 85.4968 73.0015 85.093 71.7984 85.7211C71.6201 85.8109 70.8403 85.8782 71.0408 85.7436C71.531 85.4744 71.9989 85.093 72.4891 84.7789C72.8678 84.5546 73.1575 84.2629 73.5363 84.0386C73.6254 83.9713 73.6922 83.904 73.7814 83.8591C74.0264 83.6348 74.2938 83.4104 74.5612 83.2085C74.628 83.1637 74.6949 83.0964 74.7617 83.0515C75.0959 82.7374 75.4524 82.4682 75.7643 82.1541C76.0763 81.8625 76.4105 81.5933 76.7224 81.2568C76.7893 81.1671 77.2126 80.7408 77.2349 80.6735C77.3463 80.4716 77.5468 80.3819 77.6582 80.2024C77.7919 79.9781 77.9924 79.8659 78.1261 79.6415C78.1707 79.5967 78.2152 79.5294 78.2598 79.4845C78.4603 79.305 78.594 79.0807 78.6831 78.8339C78.7722 78.6545 79.1065 78.0263 79.1065 77.8693C79.1065 77.8468 79.1733 77.4206 79.1287 77.3757C78.9728 77.0841 79.0173 76.8822 78.9059 76.6354C78.8391 76.4111 78.1929 76.6354 78.0147 76.6803C76.7893 76.9046 75.2742 78.1609 73.4917 78.632C73.2466 78.6993 72.6228 78.8339 72.3554 78.8564C72.244 78.8788 71.9989 78.9237 71.8875 78.9685C70.9963 79.3275 71.1299 79.1929 70.5284 80.0229C70.3056 80.337 69.8377 80.9203 69.704 81.2792C69.5257 81.7279 69.3252 83.2758 69.2806 83.7694C69.2361 84.3302 68.7236 85.609 68.4563 86.1249C68.0775 87.0672 68.3894 86.7531 68.6122 87.1345C68.7013 87.1569 68.9687 87.2242 69.0356 87.2466C69.1915 87.2691 69.3475 87.2915 69.5035 87.3364C69.704 87.4037 69.9045 87.4486 70.1273 87.4934C70.1273 87.4934 71.9543 87.8972 71.9766 87.8972C72.1549 87.9645 72.3777 87.9645 72.5559 88.0543C72.7564 88.1216 73.0015 88.1664 73.2021 88.2337C73.2689 88.2562 73.3135 88.2786 73.3803 88.2786C73.6031 88.2562 74.0487 88.5254 75.341 88.1216C75.6084 88.0543 76.0763 87.9645 76.3214 87.8524C78.0147 87.1569 79.0619 85.8557 79.2624 83.9937C79.307 83.5226 79.307 83.3207 79.4407 82.872C79.5298 82.6028 79.5743 82.356 79.6635 82.0868C79.864 81.3914 81.0672 79.8659 81.0894 79.5967ZM86.214 65.9344C86.058 65.7101 86.058 65.5755 85.7907 65.5082C85.4342 65.4184 85.3005 65.396 85.1668 66.1139C85.0554 66.7196 84.8326 66.0017 84.387 66.3382C83.9637 66.6299 84.4093 67.2805 84.3201 67.3926C84.231 67.5048 83.9414 67.4375 83.8745 67.3702C83.7854 67.3029 83.7408 67.3478 83.6072 67.3702C83.4066 67.3926 83.518 67.6618 83.2952 67.7964C83.117 67.931 82.8496 67.8637 82.8051 68.0208C82.6268 68.5143 83.2729 68.7387 83.518 68.8957C83.5403 68.9181 83.518 68.963 83.4958 68.963C83.117 69.5014 82.6045 68.9406 82.961 69.9501C83.0279 70.2417 82.6936 70.5782 82.9387 70.6231C83.0056 70.6231 83.0724 70.7801 83.0724 70.8474C83.1393 71.2288 82.4263 70.8026 82.6268 71.6775C82.7828 72.2384 83.0947 71.8794 83.3398 71.9018C83.2729 71.9467 83.3175 72.1262 83.4289 72.1711C83.674 72.3057 83.6072 72.3057 83.8745 72.4851C84.0305 72.5973 83.9191 73.5395 84.2533 73.4273C85.2782 73.0235 84.4984 73.3376 84.9663 72.3057C85.3451 71.4307 84.9886 70.7353 85.1 70.4885C85.3451 69.9725 85.9021 69.5463 85.9244 69.3219C85.9466 68.3573 86.6373 67.0561 86.4591 66.6747C86.3923 66.4953 86.5259 66.4504 86.4145 66.2485C86.3477 66.1588 86.2586 66.0242 86.214 65.9344ZM85.1222 76.7924C85.4787 76.613 85.3673 76.8373 85.4342 76.8822C85.657 76.9495 85.7907 77.0616 85.9021 76.8149C86.3254 76.5905 85.9021 77.5103 85.9466 77.7571C85.9912 77.8468 86.0803 78.0936 86.214 78.0936C86.4145 78.0936 86.37 78.116 86.5482 78.1385C86.8824 78.2058 86.8824 77.8917 86.8824 78.2955C86.8156 78.4525 87.4617 78.3852 87.5508 78.4525C88.2193 78.6993 87.9965 78.6993 88.3975 79.2377C88.4866 79.3499 88.7094 79.5294 88.7986 79.3275C88.8654 79.2153 88.8654 79.1929 88.9545 79.0807C89.1773 78.7666 89.2219 78.6545 89.868 78.8564C89.9126 78.8564 90.4473 78.2506 90.2245 79.1031C90.4251 79.4621 90.4696 79.3723 90.6924 79.1929C90.8484 79.0807 90.6924 78.7666 90.893 78.8564C90.9821 78.8788 91.0044 79.1031 91.138 79.2377C91.3386 79.4621 91.3386 79.4621 91.6951 79.3275C91.9624 79.2377 91.9624 78.3628 92.6086 78.8564C92.6977 78.9012 92.8091 78.9237 92.8759 78.8339C92.9428 78.7218 92.8091 78.6096 92.7423 78.5423C92.4749 78.1609 92.0516 78.116 91.6505 78.0263C91.5168 78.0039 91.4054 77.9814 91.294 77.9141C91.1158 77.802 91.0044 77.802 90.8038 77.8917C90.6033 77.959 90.4028 78.0263 90.2023 78.0487C90.1354 78.0487 90.0909 78.0487 90.024 78.0712C89.8458 78.1385 89.6452 78.1609 89.4447 78.1609C89.3779 78.1609 89.3333 78.1833 89.2665 78.1833C88.9545 78.2058 88.8209 78.0936 88.5535 77.9366C88.4866 77.9141 88.2638 77.5103 88.2416 77.443C88.2193 77.3757 88.1747 77.3084 88.1079 77.2635C87.8182 77.0616 87.5286 76.8597 87.2835 76.5905C87.1944 76.5008 87.0607 76.4559 86.9938 76.3662C86.9493 76.3213 86.927 76.254 86.8824 76.2316C86.5482 75.9848 86.8601 75.7829 86.5705 75.5137C86.4368 75.3791 86.058 75.1548 85.9912 75.0426C85.8798 74.8631 85.7238 74.7734 85.657 74.5939C85.5233 74.235 85.6124 74.0779 85.3005 73.7863C85.2559 73.7414 85.1445 73.6517 85.0777 73.719C84.944 73.8312 84.788 73.8985 84.6098 73.9209C84.5207 73.9209 84.4315 73.9882 84.3201 74.0106C83.4958 74.5715 84.5207 74.4817 84.0305 74.9529C83.8077 75.065 84.0082 75.2221 83.8745 75.4015C83.8077 75.4913 83.8077 75.6483 83.9191 75.6483L84.2756 75.6707C84.6544 75.4688 84.5652 76.1194 84.6098 76.2092C84.6989 76.5008 84.6989 76.6578 85.1222 76.7924ZM74.4721 77.1514C74.94 76.9046 72.1994 79.9332 76.0763 77.0392C76.0986 77.0168 76.1208 76.9495 76.0763 76.9495C75.9203 76.8597 75.7643 76.7924 75.6084 76.7251C75.3633 76.5905 75.1628 76.7251 74.9622 76.9046L74.3607 77.443C74.3161 77.4655 74.2715 77.5103 74.227 77.5328C74.1156 77.6001 74.0264 77.4879 74.1156 77.3982C74.227 77.3084 74.3384 77.2187 74.4721 77.1514Z" fill="#BAA99B"/>
</svg>
