<svg width="44" height="54" viewBox="0 0 44 54" fill="none" xmlns="http://www.w3.org/2000/svg">
<g clip-path="url(#clip0_836_451)">
<path d="M34.7579 0.000488281C35.4888 0.931663 33.5993 6.42831 33.332 7.22388C31.2911 13.3534 29.3304 19.1483 27.2894 25.2778C27.8509 25.2326 27.9579 25.2778 28.3322 25.3863L34.856 5.78643C36.2374 1.65491 36.2374 1.22096 37.0573 0.045691L34.7579 0.000488281ZM25.6228 30.3767L22.3075 40.3574L13.208 13.507C12.1564 13.8687 10.5343 14.836 9.90156 15.4056L19.6783 44.498H22.0401L26.5675 30.6931C26.2378 30.4671 26.113 30.44 25.6228 30.3767ZM12.5574 11.6176L11.0156 6.95266C10.8106 6.34694 8.90338 1.60066 9.39356 0.0276099L4.22443 0.000488281C5.24043 1.32041 5.42759 2.26966 7.12983 7.33236L9.19749 13.4709C9.99959 12.8471 11.2384 12.169 12.5574 11.6176Z" fill="#FEFEFE"/>
<path d="M41.05 38.2329C39.633 42.1203 37.7881 44.5161 35.8185 46.2699C34.8292 47.1469 33.8132 47.8611 32.6903 48.503C24.3573 53.3577 13.3417 51.2965 7.20113 42.1203C6.82682 41.5508 6.51489 41.0083 6.18513 40.4207C0.962527 31.1903 2.29046 20.1338 9.73222 14.845C10.1957 14.5105 10.6858 14.2212 11.176 13.941C13.7249 12.4583 16.3273 11.7261 18.8851 11.7351C20.427 11.7441 21.6569 12.3589 22.2005 13.3081C22.6016 14.0314 22.9313 15.2067 22.6283 16.0474C20.1061 22.9725 19.4199 26.1276 20.222 27.6645C20.5963 28.4058 21.443 28.7946 22.2183 28.9844C24.7584 29.5902 26.523 29.6263 28.8402 30.8649C29.0719 30.9914 29.268 31.6243 29.5353 31.5881L30.4711 31.0638C30.7207 30.9282 30.3553 31.127 30.0701 30.8558C29.6958 30.4942 28.35 30.1687 27.539 29.771C25.5961 28.7946 21.8173 29.102 20.9439 26.7785C19.206 22.1498 25.5694 14.9445 24.6781 10.3519C24.0543 10.2886 23.3859 10.2615 22.762 10.2072C19.3219 10.0988 14.7053 10.7406 10.7839 13.0279C0.481263 19.0218 -3.04801 32.3837 2.86976 42.8345C8.77861 53.2854 21.2647 57.3265 32.2358 50.9439C38.0288 47.5627 40.6311 41.7858 41.4243 38.3685L41.05 38.2329Z" fill="#FEFEFE"/>
<path d="M37.9575 30.0422C38.0911 29.9157 38.0733 29.7258 38.0377 29.5631C38.0288 29.5269 37.9842 29.4908 37.9575 29.4727C37.9307 29.4456 37.8951 29.4456 37.8594 29.4546C37.7792 29.4727 37.7079 29.4546 37.6366 29.4094C37.5208 29.3552 37.3871 29.3461 37.2712 29.319C37.2088 29.2919 36.888 29.0839 37.2445 29.0297C37.4584 29.0026 37.8238 28.7494 37.9753 28.9031C37.8951 29.0026 38.1981 28.9483 37.8149 29.0478C37.7525 29.0568 37.6723 29.2557 37.797 29.2919C37.8238 29.3009 37.8416 29.3009 37.8683 29.3099C37.9486 29.328 38.0198 29.3552 38.0911 29.4094L38.1714 29.545C38.1803 29.6173 38.2248 29.7258 38.1981 29.7891C38.1179 29.9518 38.4922 29.7981 38.5635 29.8162C38.6081 29.8343 38.8309 29.8253 38.8933 29.8253C39.0626 29.8343 39.2408 29.8253 39.4191 29.8253C39.6062 29.8162 39.8558 29.7801 40.0429 29.7529C40.3638 29.7077 40.5331 29.6625 40.8183 29.536C40.9342 29.4817 41.0589 29.4275 41.1659 29.3642C41.5402 29.1924 41.7006 28.9935 41.9769 28.8127C42.2799 28.6229 42.8236 27.8815 42.9127 27.547C42.9573 27.3662 43.0018 27.4114 43.0196 27.2216C43.0286 27.1131 42.984 27.2397 42.9662 27.2577C42.9038 27.2849 42.886 27.3391 42.8325 27.3662C42.8058 27.3934 42.7968 27.3572 42.8058 27.3391C42.8414 27.2939 42.877 27.2487 42.9038 27.2035C42.9216 27.1764 42.9483 27.1583 42.9662 27.1312C43.0553 27.0498 43.0464 26.9052 43.1355 26.8148C43.189 26.7515 43.3048 26.5797 43.3405 26.5074C43.3672 26.4531 43.492 26.2 43.5009 26.191C43.5722 26.0825 43.6079 26.0373 43.6435 25.9107C43.6613 25.8384 43.6346 25.9288 43.6613 25.8565C43.7148 25.6937 43.3405 25.8203 43.2335 25.8384C42.877 25.8926 42.4314 25.8565 42.0749 25.8113C41.6026 25.7751 41.1124 25.7209 40.7559 25.7389C40.4083 25.7661 40.0964 25.8836 39.9182 25.9107C39.6151 25.974 39.2854 26.1186 38.9824 26.2C38.9467 26.209 38.7239 26.2723 38.6972 26.2814C38.305 26.4441 38.412 26.426 38.0288 26.5887C37.7436 26.7696 37.601 26.869 37.3782 26.9956C37.3514 27.0137 37.191 27.0137 37.2445 27.0498C37.2623 27.0589 37.3158 27.0769 37.3336 27.095C37.3871 27.1673 37.4405 27.2758 37.3871 27.3662C37.3158 27.4838 37.3514 27.6103 37.4673 27.6736C37.5831 27.7459 37.5653 27.7369 37.6901 27.755C37.8505 27.8454 37.9307 28.0081 37.9664 28.1889C37.9753 28.207 38.6615 28.1437 39.321 27.9358C39.9182 27.7369 40.2925 27.6194 41.0946 27.2849C41.5937 27.0769 42.3601 26.5345 42.4849 26.4983C42.5027 26.4983 42.5651 26.4983 42.5651 26.5345C42.5651 26.5526 42.5027 26.6068 42.4938 26.6159C42.4938 26.652 41.7363 27.2758 40.9876 27.6194C40.5064 27.8363 39.9271 27.9991 39.4458 28.1889C38.7507 28.4692 38.0466 28.5505 38.0466 28.5686C38.0644 28.8218 37.9842 28.9393 38.0198 28.9754C37.6634 28.9302 38.002 28.1437 37.601 27.981C37.289 27.9087 37.3871 28.0352 37.1375 28.0262C36.9415 27.7731 37.3247 27.3391 37.0217 27.312C36.8612 27.3572 36.8702 27.4476 36.6741 27.2758C36.3265 27.1312 36.9236 26.869 36.7721 26.7244C36.4958 26.7876 36.5315 26.652 36.5226 26.5255C36.5048 26.4622 36.4513 26.426 36.4602 26.3627C36.5048 26.1277 36.1483 26.643 35.9968 26.3085C35.97 26.2542 35.7472 26.2271 35.6492 26.1819C35.364 25.974 35.5868 26.1548 35.1679 26.1186C35.0699 26.0915 35.0342 26.0554 34.954 26.2C34.8916 26.2994 34.8114 26.3447 34.5975 26.4351C34.5619 26.4351 34.5173 26.4351 34.4817 26.4531C34.4638 26.4712 34.4638 26.4983 34.4728 26.5164C34.5173 26.5797 34.6243 26.7786 34.6421 26.8509C34.6421 26.9232 34.651 27.0046 34.6332 27.0769C34.6154 27.1493 34.5886 27.2216 34.5441 27.2849C34.4549 27.3934 34.5173 27.4205 34.4817 27.5109C34.4549 27.5922 34.4638 27.6827 34.4638 27.7731L34.3836 28.0624C34.2945 28.3607 34.0717 28.5144 34.0628 28.7766C34.1965 28.9212 34.0984 29.0206 34.0717 29.0839C34.0628 29.1201 34.045 29.1563 34.0361 29.1924C34.0093 29.2557 33.9202 29.3732 33.9469 29.4546C33.9558 29.4908 33.9915 29.5088 34.0271 29.4998C34.1519 29.4546 34.241 29.9066 34.3212 30.0332C34.446 30.2321 34.5441 30.1598 34.5975 30.3225C34.6867 30.5847 34.9897 30.7203 34.9808 30.7384C34.9718 30.7745 35.3462 31.1 35.3818 31.1361C35.4442 31.1723 35.5422 31.2446 35.6224 31.2265C35.765 31.1904 35.7829 31.2808 35.9522 31.1994C36.0591 31.1452 36.1572 31.1452 36.273 31.1361C36.273 31.1361 36.6117 31.1723 36.6474 31.1904C36.7632 31.335 36.8612 31.3079 37.0217 31.4164C37.0573 31.4345 37.0395 31.5972 37.3871 31.5249C37.4138 31.4706 37.4762 31.4345 37.4495 31.3802C37.4405 31.0367 37.4138 31.1633 37.6188 31.0005C37.9664 30.8378 37.601 30.6118 37.6099 30.5395C37.6366 29.9518 37.8416 30.3858 37.9575 30.0422ZM31.1752 22.9002C31.1752 22.864 31.1841 22.8279 31.193 22.7827C31.2198 22.7375 31.2287 22.5928 31.2465 22.5295C31.2732 22.4753 31.2643 22.403 31.2822 22.3487C31.3089 22.2674 31.3 22.1679 31.3356 22.0956V22.0775C31.3624 21.9419 31.4069 21.8063 31.4337 21.6707C31.5139 21.3633 31.603 21.074 31.7189 20.7847C31.7545 20.6762 31.7902 20.5497 31.8258 20.4412C31.8347 20.396 31.8525 20.3508 31.8704 20.3146C31.906 20.2604 31.9238 20.2061 31.9328 20.1519C31.9684 20.0253 32.0308 19.8535 32.0932 19.7451C32.1199 19.6999 32.1466 19.6456 32.1645 19.5914C32.2001 19.51 32.3249 19.3473 32.3873 19.293C32.414 19.2659 32.4318 19.2388 32.4497 19.2117C32.4853 19.1574 32.521 19.1213 32.5655 19.0761C32.6546 19.0037 32.7438 18.9224 32.8418 18.841C32.8953 18.7958 32.9488 18.7687 33.0201 18.7596C33.0735 18.7596 33.127 18.7687 33.1626 18.8139C33.1805 18.85 33.225 18.8772 33.2429 18.9224C33.2785 18.9857 33.3142 19.0489 33.3409 19.1213C33.3944 19.2659 33.4568 19.4286 33.4924 19.5823C33.5191 19.736 33.5637 19.8988 33.5993 20.0524C33.6617 20.3146 33.7687 20.5316 33.8845 20.7757C33.9024 20.8209 33.9469 20.8842 33.9648 20.9294C34.0182 21.0831 34.1163 21.2277 34.1697 21.3814C34.2143 21.508 34.2767 21.6345 34.3302 21.7611C34.3836 21.8786 34.4104 22.0142 34.446 22.1408C34.4906 22.3126 34.5351 22.4753 34.5619 22.6471C34.5975 22.7465 34.6064 22.855 34.6332 22.9545C34.651 23.0268 34.6599 23.0991 34.6599 23.1714V23.1895C34.6867 23.3432 34.6777 23.4878 34.6688 23.6415C34.6599 23.75 34.6688 23.8585 34.651 23.967C34.6332 24.1026 34.5975 24.3196 34.553 24.5185C34.5262 24.6541 34.5084 24.7897 34.4728 24.9253C34.4549 25.0067 34.4282 25.088 34.4015 25.1694C34.348 25.3412 34.2945 25.5039 34.241 25.6847C34.2321 25.7209 34.2232 25.757 34.2143 25.8022C34.2054 25.8293 34.1519 25.9288 34.1608 25.9559C34.1519 25.9559 34.0895 26.2 34.1876 26.1458C34.5173 26.3266 35.0342 25.7209 35.2659 25.8113C35.257 25.8203 35.257 25.8565 35.2838 25.8655C35.3194 25.8655 35.3462 25.8565 35.3818 25.8293C35.5422 25.8022 35.5601 25.8384 35.5779 25.8474C35.6135 25.8745 35.6403 25.9107 35.6581 25.9559C35.6759 26.0373 35.7294 26.1186 35.8274 26.0644C35.8631 26.0463 35.9076 26.0373 35.9522 26.0463C36.077 26.1096 36.0681 26.1638 36.0859 26.1729C36.0591 26.191 36.0859 26.2362 36.1483 26.2C36.2107 26.1638 36.282 26.1548 36.3443 26.1096C36.4602 26.0463 36.5404 26.1277 36.6117 26.209C36.6474 26.2362 36.6652 26.3447 36.6563 26.3899C36.6474 26.4531 36.683 26.4983 36.7097 26.5526C36.7454 26.5616 36.7454 26.5616 36.79 26.5616C36.8791 26.5526 36.9771 26.7334 36.9325 26.8057C36.9058 26.869 36.8702 26.9413 36.8345 27.0046C36.8256 27.0137 36.7008 27.1402 36.7632 27.1583C36.79 27.1583 37.0128 26.9232 37.0662 26.9052C37.1375 26.878 37.191 26.8238 37.2445 26.7786C37.4316 26.6159 37.6366 26.5164 37.8416 26.3808C37.9486 26.3175 38.0555 26.2633 38.1624 26.2181C38.3674 26.1458 38.5635 26.0373 38.7507 25.9469L38.7863 25.9378C38.8843 25.9107 38.9467 25.8745 39.0448 25.8474C39.125 25.8203 39.223 25.7841 39.3121 25.7751C39.3656 25.757 39.428 25.7389 39.4904 25.7299C39.4993 25.7299 39.5171 25.7209 39.526 25.7209C39.6419 25.6757 39.7667 25.6485 39.8825 25.6214C39.9806 25.5943 40.0875 25.5672 40.1855 25.5491C40.239 25.54 40.2836 25.522 40.337 25.522C40.3816 25.531 40.4262 25.5129 40.4707 25.5039C40.5599 25.5039 40.6579 25.5039 40.7381 25.4858C40.8094 25.4768 40.8718 25.4948 40.9253 25.4858C41.0144 25.4768 41.1035 25.4858 41.1837 25.4858C41.2907 25.4948 41.3798 25.4858 41.4867 25.5039C41.5848 25.522 41.6828 25.531 41.7808 25.5129C41.9145 25.4948 42.0482 25.4858 42.1819 25.4858C42.2532 25.4858 42.3156 25.5039 42.378 25.4948C42.5116 25.522 42.6453 25.5129 42.779 25.5129C42.9305 25.522 43.0731 25.54 43.2246 25.5491C43.2603 25.5491 43.3048 25.54 43.3405 25.54C43.4296 25.5491 43.5098 25.5581 43.5989 25.5491C43.6792 25.54 43.7861 25.5581 43.8752 25.5491C43.9554 25.5491 44.0089 25.6666 44 25.748C43.9733 25.9107 43.8841 26.1548 43.8039 26.2994C43.7772 26.3447 43.7683 26.3899 43.7326 26.4351C43.6881 26.4803 43.6613 26.5345 43.6257 26.5887C43.6168 26.6068 43.6079 26.6249 43.5989 26.6339C43.5098 26.7244 43.4831 26.8419 43.4385 26.9504C43.4207 27.0317 43.385 27.1041 43.3583 27.1854C43.3227 27.3029 43.2781 27.4295 43.2425 27.547C43.2157 27.6555 43.1712 27.7821 43.1177 27.8815C43.0731 27.9539 43.0464 28.0262 43.0196 28.1076C43.0018 28.1347 42.9929 28.1618 42.9751 28.1799C42.9305 28.2341 42.8949 28.3064 42.8414 28.3607C42.8325 28.3697 42.8325 28.3788 42.8236 28.3878C42.779 28.4963 42.6988 28.5777 42.6275 28.6771C42.5651 28.7675 42.4671 28.885 42.369 28.9483C42.3512 28.9664 42.3245 28.9845 42.3067 29.0026C42.2175 29.102 42.1195 29.1834 42.0215 29.2738C41.9502 29.319 41.8789 29.4184 41.8076 29.4456C41.7987 29.4546 41.7897 29.4546 41.7808 29.4636C41.7006 29.536 41.6115 29.5812 41.5224 29.6264C41.4243 29.6896 41.362 29.7439 41.255 29.7891C41.2015 29.8072 41.1481 29.8433 41.0857 29.8705C40.9698 29.9066 40.845 29.9337 40.7292 29.988C40.649 30.0151 40.5509 30.0241 40.4618 30.0422C40.4529 30.0422 40.444 30.0422 40.4351 30.0513C40.337 30.0874 40.2301 30.0965 40.1321 30.1055C40.0073 30.1146 39.8914 30.1326 39.7756 30.1417C39.6597 30.1507 39.4993 30.1869 39.3834 30.1778C39.2943 30.1688 39.2052 30.1688 39.1071 30.1688C39.0269 30.1688 38.9378 30.1688 38.8576 30.1507C38.8487 30.1507 38.8309 30.1507 38.822 30.1507C38.6704 30.1598 38.5189 30.1236 38.3674 30.1055C38.3407 30.1055 38.207 30.0513 38.2159 30.1146C38.2337 30.2321 38.2516 30.2411 38.1803 30.3586C38.1446 30.3948 38.0733 30.4491 38.0198 30.4491C37.9486 30.4491 37.9129 30.431 37.8327 30.4581C37.8149 30.4671 37.797 30.5033 37.8149 30.5304C37.8862 30.657 37.9931 30.5756 38.0288 30.8197C38.0466 30.9011 37.904 31.0457 37.8327 31.0548C37.7703 31.0729 37.6901 31.0729 37.6723 31.1633C37.6634 31.2265 37.6634 31.2989 37.6723 31.3712C37.6901 31.4797 37.6723 31.6334 37.5653 31.6966C37.5029 31.7328 37.4673 31.769 37.3782 31.7238C37.3425 31.7057 37.3158 31.7057 37.2801 31.7328C37.2445 31.7599 37.2088 31.778 37.1643 31.7871C37.1286 31.8323 37.1464 31.8865 37.0751 31.9498C37.0217 32.004 36.9415 31.9679 36.8791 31.9498C36.8434 31.9407 36.7543 31.9498 36.7454 31.995C36.7276 32.0492 36.7097 32.0944 36.7008 32.1396C36.6741 32.212 36.8523 32.2481 36.8969 32.2752C37.0662 32.3747 37.2267 32.3837 37.3871 32.5103C37.494 32.6007 37.6188 32.6911 37.7347 32.7634C37.7614 32.7815 37.7792 32.7996 37.806 32.8177L38.1535 33.1251C38.2605 33.2245 38.3585 33.3511 38.4655 33.4596C38.5189 33.5228 38.5724 33.5861 38.617 33.6494C38.6348 33.6946 38.6615 33.7308 38.6972 33.7579C38.715 33.785 38.7328 33.8031 38.7417 33.8302C38.7863 33.9025 38.822 33.9749 38.8665 34.0381C38.9289 34.1286 38.9735 34.237 39.0359 34.3184C39.0448 34.3455 39.0537 34.3636 39.0626 34.3817C39.1428 34.5535 39.2141 34.7162 39.3032 34.8789C39.3389 34.9603 39.3656 35.0416 39.4013 35.123C39.4369 35.1953 39.4726 35.2677 39.4904 35.34C39.5171 35.4213 39.5617 35.4846 39.5884 35.566C39.6508 35.7649 39.7577 35.9276 39.8023 36.1265C39.8112 36.1446 39.8112 36.1627 39.8201 36.1808C39.8558 36.2712 39.8914 36.3616 39.9271 36.452C39.9538 36.5424 39.9984 36.6237 40.0251 36.7141C40.0429 36.7593 40.0786 36.8046 40.0964 36.8498C40.1499 36.9944 40.1944 37.0486 40.2836 37.1752C40.3638 37.3108 40.5153 37.4555 40.444 37.6272C40.3549 37.799 39.9984 37.79 39.838 37.7809C39.6775 37.7628 39.5171 37.6996 39.3567 37.6815C39.3121 37.6724 39.2765 37.6634 39.2408 37.6544C39.1428 37.6092 39.018 37.6001 38.9111 37.564C38.8487 37.5459 38.7952 37.5278 38.7239 37.5188C38.6794 37.5188 38.6348 37.5097 38.5991 37.4916C38.5368 37.4645 38.4744 37.4555 38.412 37.4464C38.2427 37.4193 38.0466 37.3289 37.8773 37.2747C37.8683 37.2747 37.8505 37.2747 37.8416 37.2656C37.7436 37.2204 37.6277 37.1843 37.5297 37.139C37.4049 37.0758 37.2801 37.0396 37.1554 36.9673C37.1197 36.9402 37.0751 36.9221 37.0306 36.904C36.8969 36.8498 36.7632 36.7865 36.6206 36.7413C36.6028 36.7322 36.5761 36.7232 36.5582 36.7141L36.3176 36.5785C36.2998 36.5695 36.282 36.5605 36.2552 36.5514C36.1661 36.5243 36.0948 36.4701 36.0057 36.4339C35.9433 36.4068 35.8809 36.3796 35.8185 36.3525C35.774 36.3254 35.7294 36.2892 35.6759 36.2712C35.6224 36.2531 35.5601 36.235 35.5155 36.2079C35.364 36.1446 35.2125 36.0903 35.0699 36.0361C34.9718 35.9999 34.8738 35.9095 34.7758 35.8643C34.7401 35.8463 34.6688 35.792 34.6421 35.7468C34.6154 35.7016 34.5619 35.6835 34.5262 35.6474C34.4104 35.5208 34.2945 35.3852 34.1876 35.2405C34.1519 35.1863 34.1163 35.1501 34.0717 35.0868C33.9826 34.9603 33.8935 34.8428 33.8043 34.7162C33.7598 34.6619 33.7241 34.6258 33.6885 34.5625C33.6528 34.4811 33.5993 34.3998 33.5459 34.3274C33.537 34.3094 33.5281 34.3003 33.5191 34.2822C33.4924 34.2099 33.4389 34.1557 33.4122 34.0833C33.3765 34.002 33.3142 33.9297 33.2785 33.8483C33.2339 33.7398 33.1805 33.6675 33.1359 33.568C33.1092 33.5048 33.0824 33.4415 33.0468 33.3872C33.0111 33.333 32.9933 33.2697 32.9577 33.2155C32.9131 33.1341 32.8596 33.0618 32.824 32.9714C32.7705 32.899 32.717 32.8086 32.6546 32.7363C32.5744 32.6278 32.5299 32.5284 32.4408 32.4289C32.4051 32.3928 32.3516 32.4651 32.3338 32.4741C32.2982 32.5193 32.2892 32.5645 32.2892 32.6188C32.2269 32.7273 32.1556 32.8358 32.0932 32.9442C32.0486 33.0346 31.9684 33.116 31.9328 33.2155C31.9328 33.2335 31.9149 33.2516 31.906 33.2787C31.8704 33.342 31.8525 33.4143 31.8436 33.4867C31.8258 33.559 31.7902 33.568 31.7812 33.6494C31.7545 33.8483 31.701 34.0472 31.6921 34.2461C31.6921 34.3907 31.6476 34.5625 31.5763 34.6891C31.5317 34.7795 31.4871 34.8699 31.4248 34.9422C31.3445 35.0416 31.3 35.1321 31.2019 35.2225C30.9791 35.4394 30.8009 35.6022 30.4979 35.6926C30.4355 35.7197 30.3731 35.7468 30.3018 35.7649C30.2216 35.8011 30.1414 35.8101 30.0612 35.8372C29.981 35.8643 29.9007 35.8734 29.8294 35.8915C29.7314 35.9095 29.6334 35.9186 29.5353 35.9005C29.464 35.8824 29.3927 35.9005 29.3214 35.8915C29.2412 35.8734 29.1699 35.8643 29.0986 35.8643C28.9917 35.8734 28.7689 35.8191 28.6619 35.792C28.457 35.7378 28.4391 35.7558 28.2341 35.7106C28.1361 35.6835 27.8509 35.5931 27.744 35.575C27.6994 35.566 27.6014 35.566 27.5657 35.5479C27.4142 35.4846 27.2538 35.4846 27.1023 35.4123C26.9953 35.3671 26.8973 35.3852 26.8082 35.2857C26.6032 35.0236 26.924 34.6891 26.9953 34.4269C27.0221 34.3003 27.1023 34.1918 27.129 34.0653C27.1379 34.0201 27.1825 33.9116 27.1825 33.8031C27.2092 33.6856 27.2181 33.6313 27.2181 33.5771C27.2181 33.5138 27.236 33.4505 27.2449 33.3872C27.2538 33.3601 27.2627 33.333 27.2538 33.2968C27.2449 33.1612 27.3162 32.7996 27.3786 32.673C27.4231 32.5736 27.4855 32.4561 27.5212 32.3476C27.6727 31.995 27.6905 31.9859 27.8331 31.8413C27.9133 31.778 27.94 31.7147 28.0203 31.6605C28.0648 31.6243 28.1272 31.5972 28.1629 31.561C28.2163 31.5158 28.2787 31.4887 28.3322 31.4526C28.3678 31.4345 28.4124 31.4254 28.4391 31.3983C28.4748 31.3802 28.5104 31.3531 28.5372 31.335C28.5906 31.2989 28.7154 31.2446 28.7421 31.2085C29.0897 31.0367 28.9828 31.0729 29.2769 30.8288C29.2947 30.8288 29.5264 30.7022 29.4284 30.6479C29.3214 30.5937 29.2056 30.5395 29.0897 30.4852C29.0719 30.4762 29.0273 30.4671 29.0095 30.4762C28.8758 30.3767 29.1076 30.5123 28.8313 30.3586C28.7154 30.2863 28.5996 30.2321 28.4837 30.1778C28.3589 30.1236 28.2698 30.0874 28.1985 30.0241C28.1985 30.0061 28.1718 29.988 28.1539 29.9789C27.9935 29.8795 27.8331 29.771 27.6638 29.6987C27.5123 29.6264 27.334 29.5088 27.1825 29.4727C27.0043 29.4094 26.8349 29.3099 26.6567 29.2376C26.5854 29.2105 26.0328 28.9574 25.908 28.9031C25.8724 28.885 25.8367 28.867 25.8011 28.8398C25.7298 28.7946 25.6496 28.7585 25.5783 28.7223C25.4268 28.65 25.2129 28.5144 25.0881 28.3969C25.0168 28.3336 24.9366 28.2793 24.8653 28.207C24.8118 28.1437 24.7494 28.0804 24.6871 28.0262C24.6692 28.0172 24.6603 28.0081 24.6514 27.99C24.5534 27.8815 24.4553 27.7821 24.3662 27.6646C24.3573 27.6465 24.3395 27.6284 24.3217 27.6194C24.2504 27.547 24.2058 27.4114 24.1434 27.3301C24.0721 27.2487 24.0186 27.1583 23.9741 27.0679C23.876 26.86 23.7869 26.643 23.6711 26.4441C23.6354 26.3718 23.6176 26.2994 23.5908 26.2181C23.5641 26.1367 23.5819 26.0373 23.6621 25.9921C23.7691 25.9469 23.8137 25.9288 23.9295 25.9559C24.0275 25.983 24.2504 26.0102 24.3484 25.9921C24.3751 25.983 24.4019 25.983 24.4197 25.983C24.4999 26.0011 24.5801 25.983 24.6603 25.983C24.6692 25.983 24.6781 25.983 24.696 25.983C24.8475 25.9649 25.0079 25.974 25.1683 25.9559C25.2129 25.9559 25.2574 25.9559 25.302 25.9469C25.3555 25.9288 25.409 25.9378 25.4535 25.9288C25.5337 25.9378 25.6139 25.9288 25.6941 25.9197C25.8189 25.9197 25.9437 25.9197 26.0685 25.9017C26.1665 25.9107 26.2645 25.8926 26.3626 25.8836C26.3804 25.8836 26.4071 25.8926 26.425 25.8926C26.4963 25.8745 26.5586 25.8836 26.6299 25.8836C26.7904 25.8926 26.933 25.8926 27.0845 25.9107C27.1825 25.9288 27.2805 25.9378 27.3786 25.9559C27.441 25.9649 27.5123 25.983 27.5746 25.9921C27.6816 26.0011 27.7885 26.0373 27.8955 26.0554C27.9846 26.0734 28.1094 26.1096 28.1896 26.1458C28.2341 26.1729 28.2787 26.191 28.3233 26.209C28.3946 26.2271 28.457 26.2542 28.5193 26.2904C28.5906 26.3266 28.6709 26.3537 28.7511 26.3808C28.8491 26.417 28.9382 26.4622 29.0273 26.5255C29.0541 26.5435 29.0897 26.5616 29.1165 26.5707C29.2412 26.6339 29.5264 26.8419 29.6245 26.9504C29.6869 27.0137 29.7492 27.086 29.8205 27.1402C29.874 27.2035 29.9453 27.2577 29.9988 27.3301C30.0344 27.3753 30.0879 27.4205 30.1325 27.4657C30.1949 27.529 30.2572 27.5922 30.3285 27.6465C30.382 27.7188 30.4266 27.7911 30.48 27.8635C30.5335 27.9267 30.587 27.981 30.6405 28.0443C30.7385 28.1618 30.8365 28.2884 30.9435 28.3969C31.0326 28.4873 31.1128 28.5777 31.2019 28.6681C31.2109 28.6862 31.2198 28.6771 31.2287 28.6681C31.2554 28.6229 31.1752 28.2974 31.1574 28.2251C31.1485 28.1889 31.1574 28.1437 31.1396 28.1076C31.1128 28.0443 31.095 27.9267 31.0861 27.8544C31.0683 27.7279 31.0415 27.5922 31.0326 27.4657C31.0148 27.3753 31.0059 27.2758 31.0059 27.1854C30.988 27.1221 30.988 27.0498 30.9702 26.9865C30.9524 26.9052 30.9524 26.8238 30.9435 26.7424C30.9435 26.5616 30.9078 26.3718 30.8989 26.191C30.89 26.0644 30.8722 25.9378 30.8811 25.8113C30.8633 25.6666 30.8544 25.522 30.8544 25.3773C30.8633 25.2327 30.8633 25.088 30.8544 24.9434C30.8455 24.8891 30.8455 24.8349 30.8544 24.7716C30.8633 24.6179 30.8633 24.4552 30.89 24.3105C30.9078 24.1749 30.9346 24.0303 30.9524 23.8947C30.9613 23.8043 30.9791 23.7139 30.997 23.6235C30.997 23.5873 31.0148 23.5602 31.0237 23.524C31.0415 23.4517 31.0683 23.3794 31.0772 23.307C31.0772 23.2709 31.0861 23.2257 31.1039 23.1895C31.1217 23.1443 31.1306 23.0901 31.1396 23.0358C31.1485 22.9906 31.1663 22.9454 31.1752 22.9002ZM33.9291 25.8203C34.0271 25.3954 34.1697 24.9343 34.2856 24.5004C34.3569 24.2201 34.4015 23.7048 34.3836 23.4155C34.3836 23.2076 34.4104 22.9725 34.348 22.7736C34.2143 22.186 34.1074 21.9329 33.938 21.4537C33.9024 21.3633 33.8756 21.282 33.8311 21.1915C33.7419 21.0017 33.6617 20.839 33.5726 20.6401C33.5191 20.5135 33.4568 20.3869 33.4033 20.2604C33.3587 20.1609 33.3142 19.9982 33.2874 19.8897C33.2785 19.8264 33.2518 19.6727 33.2429 19.6185C33.2072 19.5552 33.1626 19.3202 33.1448 19.275C33.0646 19.1845 33.1537 19.1665 33.0201 19.1484C32.9577 19.1303 33.0111 19.1845 32.9577 19.2026C32.8596 19.2298 32.8864 19.2388 32.8151 19.3111C32.8062 19.3202 32.8062 19.3292 32.7972 19.3382C32.7794 19.3925 32.7349 19.4196 32.7081 19.4738C32.4942 19.7812 32.0219 20.8209 31.9149 21.1915C31.8258 21.526 31.6832 21.8515 31.6208 22.2041C31.5495 22.5657 31.4426 22.9273 31.4426 23.298C31.4426 23.3884 31.3356 24.0032 31.3178 24.193C31.2643 24.6993 31.1841 25.1513 31.2287 25.6757C31.2109 25.7841 31.2465 25.9559 31.2554 26.0734C31.2732 26.5887 31.3802 27.7279 31.5317 28.1528C31.6208 28.3878 31.6476 28.6862 31.6921 28.9302C31.701 29.0026 31.7278 29.0749 31.7367 29.1472C31.7367 29.1743 31.7545 29.2015 31.7812 29.2195C31.8169 29.2557 31.8347 29.1653 31.8347 29.1382C31.8436 29.0568 31.8615 28.9845 31.8882 28.9031C31.9417 28.7133 31.9951 28.5144 32.0575 28.3245C32.1021 28.216 32.1288 28.0804 32.1556 27.9629C32.2001 27.8183 32.2179 27.6736 32.2714 27.547C32.316 27.4295 32.3427 27.312 32.3784 27.1945C32.4229 27.1312 32.414 27.0137 32.4408 26.9323C32.4675 26.8328 32.4942 26.7334 32.521 26.6249C32.5477 26.5164 32.5744 26.4079 32.5923 26.2904C32.6012 26.2723 32.6012 26.2452 32.6101 26.2271C32.6546 26.0554 32.6725 25.9017 32.7081 25.7299C32.7259 25.6124 32.7349 25.5039 32.7527 25.3864C32.7705 25.2959 32.7972 25.1603 32.7972 25.0609C32.7972 25.0247 32.7972 24.9795 32.8062 24.9434C32.8596 24.6993 32.8507 24.4461 32.922 24.193C32.9398 24.1659 32.9398 24.1297 32.9488 24.0936C32.9488 23.958 32.9666 23.8314 32.9844 23.6958C33.0022 23.533 33.0022 23.3613 33.029 23.1985C33.029 23.1805 33.029 23.1624 33.0379 23.1443L33.0646 22.6652C33.0735 22.629 33.0735 22.5928 33.0646 22.5567L33.0379 22.0233C33.029 21.96 32.9933 21.743 33.0201 21.7069C33.0379 21.7249 33.0379 21.7611 33.0557 21.7882C33.127 21.9057 33.1805 22.0594 33.2785 22.5024C33.332 23.0539 33.225 23.8495 33.2072 24.0122C33.1359 24.636 33.0646 24.9524 33.0201 25.5762C33.0111 25.7028 32.8953 26.1638 32.8953 26.1638C32.8507 26.3175 32.7259 26.9413 32.717 26.9413C32.6814 27.0498 32.6725 27.1945 32.6368 27.3029C32.5744 27.5199 32.3784 28.3336 32.3784 28.3426C32.3784 28.3426 32.0308 28.867 32.1288 28.7766C32.209 28.7133 32.2714 28.6409 32.3605 28.5777C32.4764 28.5053 32.5655 28.4149 32.6636 28.3245C32.824 28.1799 32.5388 28.0714 32.6368 27.8815C32.6546 27.8273 32.6636 27.7369 32.717 27.7188C32.7527 27.7098 32.7972 27.7007 32.8062 27.6646C32.824 27.5651 32.6725 27.529 32.7259 27.3301C32.7438 27.2487 32.8151 27.2306 32.8775 27.2035C32.9755 27.1764 32.9577 26.9684 33.0824 26.9413C33.1359 26.9323 33.225 26.9413 33.2339 26.869C33.2429 26.7786 33.1805 26.7063 33.1983 26.652C33.2518 26.4983 33.3944 26.4441 33.5459 26.4441C33.6083 26.4441 33.6439 26.4893 33.6885 26.5255C33.7152 26.5526 33.7598 26.5074 33.7598 26.4803C33.7598 26.191 33.7598 26.2994 33.9291 25.8203ZM27.2092 27.1583C27.6103 27.2487 28.1718 27.5018 28.5104 27.7369C28.5817 27.8002 28.7065 27.8906 28.7867 27.9358C29.2234 28.1889 29.6423 28.6138 29.981 28.867C30.2662 29.0839 30.6137 29.536 31.0772 29.8885C31.095 29.8976 31.1574 29.9428 31.4069 30.2502C31.4158 30.1688 31.4337 30.1326 31.4782 30.0694C31.5495 29.9789 31.5941 29.8705 31.6654 29.7801C31.7634 29.5902 31.5763 29.6806 31.496 29.5269C31.3802 29.2828 31.095 29.1111 30.997 28.9574C30.8187 28.6229 30.5959 28.5415 30.4979 28.3697C30.48 28.3245 30.4355 28.2974 30.4087 28.2612C30.3375 28.1708 30.2394 28.0714 30.1503 27.981C29.9899 27.8273 29.8651 27.6736 29.7225 27.529C29.6245 27.4205 29.4997 27.2577 29.3838 27.1764C29.366 27.1673 29.3482 27.1493 29.3304 27.1312C29.1789 26.9775 28.9739 26.9052 28.7956 26.7696C28.7243 26.7153 28.6263 26.6701 28.5461 26.6249C28.0203 26.3447 27.4677 26.191 26.8617 26.2181C26.5675 26.2271 26.1041 26.209 25.7922 26.2C25.605 26.1819 25.0168 26.191 24.8564 26.2452C24.6603 26.2904 24.1612 26.2181 23.9295 26.1729C23.8582 26.1638 23.876 26.3175 23.9028 26.3447C23.9741 26.4441 24.1791 26.8238 24.2771 26.9684C24.2949 26.9956 24.3127 27.0317 24.3395 27.0679C24.384 27.1493 24.4821 27.2306 24.5355 27.321C24.6247 27.4476 24.8475 27.755 24.9633 27.8454C25.1059 27.9539 25.2218 28.0714 25.4357 28.2251C25.5248 28.2974 25.605 28.3607 25.6941 28.424C25.7922 28.4873 25.8902 28.5505 25.9883 28.6048C26.0506 28.6409 26.3002 28.7675 26.3626 28.7946C26.4695 28.8398 27.0043 29.093 27.0221 29.093C27.1647 29.1291 27.4766 29.2286 27.6281 29.2919C27.9044 29.4004 27.9222 29.3642 28.1807 29.5088C28.3322 29.5812 28.457 29.6535 28.6085 29.7258C28.7243 29.8072 28.7956 29.8343 28.9115 29.9157C28.9917 29.9699 29.1343 30.0332 29.2234 30.0874C29.5353 30.2502 29.4106 30.2502 29.8294 30.4129C29.8473 30.4219 29.8562 30.431 29.874 30.44C29.9453 30.4762 30.0166 30.5123 30.0879 30.5485C30.2751 30.6208 30.4177 30.8649 30.6137 30.8468C30.6583 30.8468 30.7296 30.8107 30.7742 30.7836C30.8989 30.7293 30.9167 30.7203 31.0593 30.7022C31.1217 30.6931 31.1841 30.6841 31.2465 30.666C31.2822 30.657 31.2643 30.5937 31.2465 30.5756C31.2109 30.5214 31.1663 30.4762 31.1306 30.431C31.0326 30.2954 30.9167 30.1869 30.8098 30.0694C30.8009 30.0603 30.7831 30.0422 30.7742 30.0332C30.6939 29.9789 30.6226 29.9157 30.5513 29.8433C30.5424 29.8253 30.5335 29.8162 30.5157 29.8072C30.4087 29.7258 30.3464 29.6264 30.2483 29.545C30.1859 29.4908 30.1236 29.4456 30.0701 29.3823C30.0612 29.3732 30.0523 29.3642 30.0433 29.3642C29.972 29.3099 29.9097 29.2467 29.8473 29.1924C29.8116 29.1563 29.7671 29.1201 29.7314 29.0839C29.669 29.0297 29.6156 28.9574 29.5443 28.9122C29.4908 28.867 29.4373 28.8218 29.3927 28.7766C29.3214 28.7042 29.2412 28.6319 29.161 28.5686C29.1343 28.5505 29.1076 28.5325 29.0808 28.5053C28.9471 28.3697 28.8045 28.2884 28.6619 28.1708C28.555 28.0804 28.4302 28.0081 28.3233 27.9177C28.2965 27.8996 28.2698 27.8725 28.2431 27.8544C28.1183 27.7821 27.9846 27.7188 27.8687 27.6465C27.7618 27.5832 27.6192 27.547 27.5033 27.5109C27.441 27.4928 27.3964 27.4657 27.3429 27.4566C27.236 27.4205 27.129 27.3934 27.0221 27.3662C26.924 27.3482 26.8171 27.321 26.7191 27.2758C26.6923 27.2668 26.6656 27.2577 26.6299 27.2577C26.5586 27.2397 26.4873 27.2125 26.425 27.1854C26.3626 27.1673 26.3002 27.1312 26.2289 27.1221C26.2021 27.1221 26.1843 27.1131 26.1665 27.1041C26.0685 27.0679 25.9793 27.0408 25.8902 27.0046C25.712 26.9413 25.5337 26.8961 25.3644 26.8057C25.3555 26.8057 25.3644 26.7876 25.3733 26.7786C25.409 26.7605 25.5605 26.8057 25.605 26.8148C25.6496 26.8328 25.6852 26.8238 25.7209 26.8419C25.8367 26.869 25.9437 26.86 26.0595 26.8961C26.5586 27.0046 26.728 27.0498 27.2092 27.1583ZM33.127 30.1417C33.0735 30.1146 33.0468 30.0422 33.029 29.988C33.0201 29.9428 33.0824 29.762 33.1003 29.7258C33.1359 29.6716 33.225 29.5721 33.2339 29.5269C33.2607 29.4365 33.1537 29.4275 33.1003 29.3732C33.0824 29.3461 33.0379 29.2738 33.0111 29.2557C32.9577 29.2195 32.9398 29.1472 32.9131 29.1382C32.8329 29.1201 32.7616 29.1201 32.717 29.0478C32.6814 28.9845 32.6457 28.9122 32.6279 28.8398C32.619 28.7766 32.6279 28.7314 32.5833 28.6771C32.5566 28.6409 32.521 28.7314 32.5031 28.7494C32.4318 28.7946 32.2625 28.8941 32.2269 28.9664C32.2001 29.0387 32.1556 29.102 32.1199 29.1653C32.0219 29.328 31.9773 29.4727 31.906 29.6354C31.8971 29.6535 31.8882 29.7168 31.9238 29.6987C31.9506 29.6716 31.9684 29.6444 31.9951 29.6264C32.0486 29.554 32.0843 29.536 32.1466 29.4908C32.2179 29.4456 32.0397 29.7168 31.9862 29.7801C31.9328 29.8343 31.8882 29.9066 31.8258 29.9609C31.7723 30.0151 31.7367 30.0874 31.6832 30.1507C31.6386 30.205 31.5941 30.2682 31.5852 30.3496C31.6743 30.4129 31.6476 30.3948 31.6297 30.5033C31.6208 30.5937 31.6743 30.6118 31.6832 30.6841C31.6832 30.8378 31.7991 31.0276 31.9328 31.1C32.0041 31.1361 32.0041 31.1904 32.1021 31.1994C32.1466 31.2085 32.2982 31.2085 32.316 31.2356C32.3338 31.2808 32.2625 31.2898 32.2358 31.2898C32.2179 31.2898 32.209 31.326 32.2358 31.326C32.3695 31.3531 32.5299 31.326 32.6725 31.326C32.8864 31.2989 33.1092 31.3079 33.3231 31.3169C33.332 31.3169 33.5191 31.335 33.4835 31.3712C33.3587 31.3802 33.127 31.3531 33.029 31.4164C32.9844 31.4435 32.8953 31.4164 32.8775 31.4435C32.8685 31.4887 32.9844 31.4978 33.0111 31.5068C33.0201 31.5068 33.2339 31.5791 33.2518 31.5791C33.3676 31.6243 33.4924 31.6424 33.6172 31.6786C33.7509 31.7057 33.9024 31.6876 34.0361 31.6786C34.1519 31.6695 34.0984 31.6153 34.0539 31.561C33.9648 31.4254 34.045 31.335 34.0004 31.2537C33.9648 31.1813 33.9113 31.1271 33.8311 31.1723C33.7152 31.2537 33.5993 31.1542 33.5102 31.0909C33.4389 31.0457 33.4746 30.9553 33.4568 30.892C33.4389 30.8378 33.4211 30.7836 33.4033 30.7293C33.3587 30.6027 33.225 30.7022 33.1626 30.5395C33.1181 30.4039 33.1537 30.3586 33.2072 30.2411C33.225 30.1869 33.1626 30.1598 33.127 30.1417ZM38.5991 36.4972C38.2337 36.3254 38.2248 36.3435 37.8951 36.0813C37.8594 36.0542 37.6188 35.8553 37.5831 35.8191C37.5208 35.7378 37.494 35.7378 37.4227 35.6654C37.3693 35.6112 37.2712 35.5389 37.2267 35.4756C37.1643 35.3761 36.7454 35.0236 36.5582 34.6891C36.5226 34.6348 36.4691 34.6167 36.4513 34.5806C36.1304 34.1557 36.0502 34.1105 35.8898 33.9297C35.5957 33.5771 35.1679 33.1974 34.8114 32.89C34.6867 32.7906 34.3747 32.5193 34.241 32.438C33.9826 32.2752 33.8132 32.1396 33.537 32.0221C33.43 31.9679 33.3142 31.8865 33.2072 31.8323C33.1894 31.8232 33.1716 31.8142 33.1626 31.8142C33.0111 31.7599 32.8685 31.7057 32.717 31.6695C32.5923 31.6243 32.4853 31.5339 32.3605 31.4978C32.3427 31.4978 32.316 31.4978 32.3249 31.5249C32.3427 31.6153 32.3873 31.6966 32.4318 31.778C32.4497 31.995 32.6101 32.1668 32.7259 32.3385C32.7972 32.438 32.8507 32.5103 32.9131 32.6097C33.029 32.7906 33.2161 33.0889 33.3052 33.2697C33.3587 33.3691 33.5013 33.5952 33.5548 33.6946C33.6172 33.7941 33.6617 33.9206 33.7241 34.0201C33.8043 34.1376 33.9113 34.3003 33.9915 34.4178C34.0806 34.5354 34.2232 34.7614 34.3034 34.888C34.3034 34.888 34.8827 35.4937 34.8916 35.5027C35.0075 35.6112 35.6314 35.9547 35.765 35.9909C35.8631 36.018 35.97 36.0723 36.0681 36.1175C36.2017 36.1808 36.3087 36.2169 36.4424 36.2712C36.6117 36.3344 36.7989 36.4248 36.9682 36.4791C37.0306 36.5062 37.093 36.5243 37.1554 36.5605C37.1821 36.5785 37.2177 36.5966 37.2445 36.6057C37.3336 36.6418 37.4495 36.7051 37.5386 36.7322C37.6366 36.7684 37.7168 36.8226 37.8149 36.8407C37.8238 36.8498 37.8416 36.8588 37.8594 36.8678C38.3674 37.139 38.9289 37.2295 39.5706 37.347C39.6864 37.347 40.0697 37.4736 40.0875 37.3379C40.0608 37.3018 40.034 37.2747 40.0162 37.2204C39.9806 37.1481 39.9538 37.0577 39.9003 36.9944C39.8736 36.9582 39.8558 36.9311 39.838 36.895C39.7934 36.7865 39.6954 36.6599 39.6597 36.5605C39.6151 36.4339 39.5617 36.3073 39.5171 36.1808C39.4458 35.9728 39.3834 35.7649 39.3121 35.5479C39.3032 35.5208 39.2943 35.4937 39.2854 35.4666C39.2052 35.3581 39.1695 35.2496 39.1071 35.1321C39.0804 35.0959 39.0626 35.0507 39.0359 35.0145C39.018 34.9603 38.9913 34.9241 38.9735 34.8699C38.9646 34.8247 38.9289 34.7885 38.92 34.7433C38.8843 34.68 38.8576 34.6077 38.813 34.5444C38.7596 34.4811 38.7417 34.4178 38.7061 34.3455C38.6794 34.3003 38.6615 34.2642 38.6348 34.228C38.6259 34.2099 38.6081 34.2009 38.5991 34.1828C38.4476 33.9297 38.3853 33.8393 38.1803 33.6042C38.1179 33.5952 37.396 32.9262 37.1732 32.7906C37.0484 32.7182 36.9147 32.6459 36.7989 32.5736C36.6295 32.4741 36.2196 32.0221 36.0324 32.1577C35.9968 32.1758 35.97 32.1939 35.9344 32.1848C35.774 32.1396 35.7829 32.0492 35.7027 32.0131C35.6581 31.9859 35.5601 31.9769 35.5333 32.0221C35.4888 32.1035 35.4888 32.1487 35.4085 32.212C35.3372 32.2662 35.3194 32.2843 35.2214 32.2843C35.1501 32.2752 35.0431 32.1758 35.0164 32.1216C34.9808 32.0583 34.9362 31.9227 34.8649 31.8955C34.7847 31.8594 34.7669 31.8684 34.6867 31.8684C34.5797 31.8775 34.5797 31.8865 34.4995 31.8142C34.4728 31.7871 34.4371 31.769 34.4104 31.778C34.2232 31.8142 34.0361 31.8594 33.8489 31.8594C33.84 31.8594 33.8311 31.8684 33.8222 31.8775C33.84 31.8955 33.8489 31.9136 33.8756 31.9227C33.9826 31.9679 34.0895 32.0221 34.1965 32.0854C34.2678 32.1306 34.348 32.1848 34.4282 32.221C34.5084 32.2752 34.5886 32.3295 34.6688 32.3837C34.856 32.4832 34.9718 32.6369 35.1323 32.7634C35.1768 32.7996 35.2214 32.8448 35.257 32.881C35.3016 32.9171 35.3462 32.9533 35.3907 32.9894C35.4353 33.0346 35.8185 33.4053 35.8185 33.4143C35.8898 33.5138 35.9878 33.5861 36.0591 33.6765C36.077 33.6946 36.1037 33.7217 36.1215 33.7398C36.2107 33.7941 36.2998 33.9297 36.38 34.011C36.3978 34.0291 36.4067 34.0472 36.4245 34.0653C36.4513 34.1286 36.4958 34.1828 36.5493 34.237C36.6295 34.3274 36.7097 34.4269 36.79 34.5263C36.8078 34.5444 36.8256 34.5715 36.8434 34.5896C36.8791 34.671 36.9415 34.7343 36.9949 34.7976C37.1019 34.9241 37.2177 35.0507 37.3069 35.1863C37.3247 35.2134 37.3425 35.2315 37.3603 35.2496C37.5118 35.3852 37.6366 35.5479 37.7881 35.6835C37.8773 35.7649 37.9575 35.8643 38.0644 35.9367C38.1357 35.9909 38.1981 36.0542 38.2872 36.0994C38.4209 36.1627 38.5368 36.2531 38.6704 36.3164C38.6794 36.3164 38.6794 36.3164 38.6883 36.3254C38.7596 36.3977 38.8665 36.4068 38.9378 36.4972C38.9913 36.5424 39.0359 36.6057 39.0982 36.6509C39.125 36.678 39.0982 36.7051 39.0804 36.687C38.7417 36.5514 38.8041 36.5966 38.5991 36.4972ZM32.2358 32.0764C32.2447 32.0221 32.2714 31.9769 32.2447 31.9136C32.2269 31.8503 32.2179 31.778 32.1912 31.7147C32.1823 31.6514 32.1288 31.5972 32.111 31.5249C32.111 31.4978 32.0397 31.4887 32.0219 31.4887C31.9328 31.4978 31.906 31.4616 31.8258 31.4254C31.7902 31.4074 31.7456 31.4074 31.7189 31.4435C31.6565 31.552 31.6476 31.7599 31.5852 31.8684C31.5495 31.9227 31.5228 31.9769 31.4782 32.0311C31.4604 32.0492 31.4515 32.0764 31.4337 32.1035C31.2732 32.438 30.6137 33.0075 30.3196 33.2968C30.2305 33.3782 29.9186 33.6856 29.5086 34.002C28.9026 34.454 29.0006 34.2913 28.5193 34.5444C28.448 34.5806 28.1361 34.6077 28.2163 34.5535C28.4124 34.445 28.5996 34.2913 28.7956 34.1647C28.9471 34.0743 29.063 33.9568 29.2145 33.8664C29.2502 33.8393 29.2769 33.8121 29.3125 33.7941C29.4106 33.7036 29.5175 33.6132 29.6245 33.5319C29.6512 33.5138 29.6779 33.4867 29.7047 33.4686C29.8384 33.342 29.981 33.2335 30.1057 33.107C30.2305 32.9894 30.3642 32.881 30.489 32.7454C30.5157 32.7092 30.685 32.5374 30.6939 32.5103C30.7385 32.4289 30.8187 32.3928 30.8633 32.3204C30.9167 32.23 30.997 32.1848 31.0504 32.0944C31.0683 32.0764 31.0861 32.0492 31.1039 32.0311C31.1841 31.9588 31.2376 31.8684 31.2732 31.769C31.3089 31.6966 31.4426 31.4435 31.4426 31.3802C31.4426 31.3712 31.4693 31.1994 31.4515 31.1813C31.3891 31.0638 31.4069 30.9824 31.3624 30.883C31.3356 30.7926 31.0772 30.883 31.0059 30.9011C30.5157 30.9915 29.9097 31.4978 29.1967 31.6876C29.0986 31.7147 28.8491 31.769 28.7421 31.778C28.6976 31.7871 28.5996 31.8051 28.555 31.8232C28.1985 31.9679 28.252 31.9136 28.0113 32.2481C27.9222 32.3747 27.7351 32.6097 27.6816 32.7544C27.6103 32.9352 27.5301 33.559 27.5123 33.7579C27.4944 33.9839 27.2894 34.4992 27.1825 34.7071C27.031 35.0868 27.1558 34.9603 27.2449 35.114C27.2805 35.123 27.3875 35.1501 27.4142 35.1592C27.4766 35.1682 27.539 35.1773 27.6014 35.1953C27.6816 35.2225 27.7618 35.2405 27.8509 35.2586C27.8509 35.2586 28.5817 35.4213 28.5906 35.4213C28.6619 35.4485 28.7511 35.4485 28.8224 35.4846C28.9026 35.5118 29.0006 35.5298 29.0808 35.557C29.1076 35.566 29.1254 35.575 29.1521 35.575C29.2412 35.566 29.4195 35.6745 29.9364 35.5118C30.0433 35.4846 30.2305 35.4485 30.3285 35.4033C31.0059 35.123 31.4248 34.5987 31.505 33.8483C31.5228 33.6584 31.5228 33.5771 31.5763 33.3963C31.6119 33.2878 31.6297 33.1883 31.6654 33.0799C31.7456 32.7996 32.2269 32.1848 32.2358 32.0764ZM34.2856 26.5707C34.2232 26.4803 34.2232 26.426 34.1163 26.3989C33.9737 26.3627 33.9202 26.3537 33.8667 26.643C33.8222 26.8871 33.733 26.5978 33.5548 26.7334C33.3855 26.8509 33.5637 27.1131 33.5281 27.1583C33.4924 27.2035 33.3765 27.1764 33.3498 27.1493C33.3142 27.1221 33.2963 27.1402 33.2429 27.1493C33.1626 27.1583 33.2072 27.2668 33.1181 27.321C33.0468 27.3753 32.9398 27.3482 32.922 27.4114C32.8507 27.6103 33.1092 27.7007 33.2072 27.764C33.2161 27.7731 33.2072 27.7911 33.1983 27.7911C33.0468 28.0081 32.8418 27.7821 32.9844 28.1889C33.0111 28.3064 32.8775 28.4421 32.9755 28.4601C33.0022 28.4601 33.029 28.5234 33.029 28.5505C33.0557 28.7042 32.7705 28.5325 32.8507 28.885C32.9131 29.1111 33.0379 28.9664 33.1359 28.9754C33.1092 28.9935 33.127 29.0659 33.1716 29.0839C33.2696 29.1382 33.2429 29.1382 33.3498 29.2105C33.4122 29.2557 33.3676 29.6354 33.5013 29.5902C33.9113 29.4275 33.5993 29.554 33.7865 29.1382C33.938 28.7856 33.7954 28.5053 33.84 28.4059C33.938 28.198 34.1608 28.0262 34.1697 27.9358C34.1786 27.547 34.4549 27.0227 34.3836 26.869C34.3569 26.7967 34.4104 26.7786 34.3658 26.6972C34.3391 26.6611 34.3034 26.6068 34.2856 26.5707ZM33.8489 30.9463C33.9915 30.874 33.9469 30.9644 33.9737 30.9824C34.0628 31.0096 34.1163 31.0548 34.1608 30.9553C34.3302 30.8649 34.1608 31.2356 34.1786 31.335C34.1965 31.3712 34.2321 31.4706 34.2856 31.4706C34.3658 31.4706 34.348 31.4797 34.4193 31.4887C34.553 31.5158 34.553 31.3893 34.553 31.552C34.5262 31.6153 34.7847 31.5882 34.8203 31.6153C35.0877 31.7147 34.9986 31.7147 35.159 31.9317C35.1947 31.9769 35.2838 32.0492 35.3194 31.9679C35.3462 31.9227 35.3462 31.9136 35.3818 31.8684C35.4709 31.7419 35.4888 31.6966 35.7472 31.778C35.765 31.778 35.9789 31.5339 35.8898 31.8775C35.97 32.0221 35.9878 31.9859 36.077 31.9136C36.1394 31.8684 36.077 31.7419 36.1572 31.778C36.1928 31.7871 36.2017 31.8775 36.2552 31.9317C36.3354 32.0221 36.3354 32.0221 36.478 31.9679C36.585 31.9317 36.585 31.5791 36.8434 31.778C36.8791 31.7961 36.9236 31.8051 36.9504 31.769C36.9771 31.7238 36.9236 31.6786 36.8969 31.6514C36.79 31.4978 36.6206 31.4797 36.4602 31.4435C36.4067 31.4345 36.3622 31.4254 36.3176 31.3983C36.2463 31.3531 36.2017 31.3531 36.1215 31.3893C36.0413 31.4164 35.9611 31.4435 35.8809 31.4526C35.8542 31.4526 35.8363 31.4526 35.8096 31.4616C35.7383 31.4887 35.6581 31.4978 35.5779 31.4978C35.5511 31.4978 35.5333 31.5068 35.5066 31.5068C35.3818 31.5158 35.3283 31.4706 35.2214 31.4074C35.1947 31.3983 35.1055 31.2356 35.0966 31.2085C35.0877 31.1813 35.0699 31.1542 35.0431 31.1361C34.9273 31.0548 34.8114 30.9734 34.7134 30.8649C34.6777 30.8288 34.6243 30.8107 34.5975 30.7745C34.5797 30.7564 34.5708 30.7293 34.553 30.7203C34.4193 30.6208 34.5441 30.5395 34.4282 30.431C34.3747 30.3767 34.2232 30.2863 34.1965 30.2411C34.1519 30.1688 34.0895 30.1326 34.0628 30.0603C34.0093 29.9157 34.045 29.8524 33.9202 29.7349C33.9024 29.7168 33.8578 29.6806 33.8311 29.7077C33.7776 29.7529 33.7152 29.7801 33.6439 29.7891C33.6083 29.7891 33.5726 29.8162 33.5281 29.8253C33.1983 30.0513 33.6083 30.0151 33.4122 30.205C33.3231 30.2502 33.4033 30.3134 33.3498 30.3858C33.3231 30.4219 33.3231 30.4852 33.3676 30.4852L33.5102 30.4943C33.6617 30.4129 33.6261 30.6751 33.6439 30.7112C33.6796 30.8288 33.6796 30.892 33.8489 30.9463ZM29.5888 31.0909C29.776 30.9915 28.6798 32.212 30.2305 31.0457C30.2394 31.0367 30.2483 31.0096 30.2305 31.0096C30.1681 30.9734 30.1057 30.9463 30.0433 30.9192C29.9453 30.8649 29.8651 30.9192 29.7849 30.9915L29.5443 31.2085C29.5264 31.2175 29.5086 31.2356 29.4908 31.2446C29.4462 31.2717 29.4106 31.2265 29.4462 31.1904C29.4908 31.1542 29.5353 31.1181 29.5888 31.0909Z" fill="#FEFEFE"/>
</g>
<defs>
<clipPath id="clip0_836_451">
<rect width="44" height="54" fill="white"/>
</clipPath>
</defs>
</svg>
