<svg width="128" height="128" viewBox="0 0 128 128" fill="none" xmlns="http://www.w3.org/2000/svg">
<g clip-path="url(#clip0_779_476)">
<path fill-rule="evenodd" clip-rule="evenodd" d="M63.9999 0C99.4254 0 128 28.7415 128 63.9999C128 99.4254 99.4254 128 63.9999 128C28.7415 128 0 99.4254 0 63.9999C0 28.7415 28.7415 0 63.9999 0ZM63.9999 2.33942C98.0886 2.33942 125.66 29.9112 125.66 63.9999C125.66 98.0886 98.0886 125.66 63.9999 125.66C29.9112 125.66 2.33942 98.0886 2.33942 63.9999C2.33942 29.9112 29.9112 2.33942 63.9999 2.33942Z" fill="#009846"/>
<path fill-rule="evenodd" clip-rule="evenodd" d="M61.6603 93.9112C60.8248 95.0809 60.6577 95.5822 58.9867 95.9164C58.3183 96.0835 57.6499 96.0835 56.9815 95.7493C56.146 95.5822 51.4671 91.5718 50.4645 90.7363C44.616 85.7232 38.7674 80.7102 33.2531 75.6971C32.4176 75.0287 29.9111 72.8564 29.4098 72.0209C29.0755 71.3525 28.9084 70.8512 28.9084 70.1828C28.9084 68.3447 30.2453 66.8408 31.9163 66.5066C33.2531 66.3395 34.4228 66.6737 35.4254 67.5092C42.6108 74.0261 50.9658 81.3786 57.4828 86.7258C69.1799 68.846 80.2086 51.8016 91.0702 35.5928C92.407 33.7547 93.4096 31.7494 95.749 32.0837C97.7543 32.2508 99.2582 33.9218 99.0911 36.0941C98.7569 37.7651 97.5872 39.1019 96.5846 40.6058C84.8875 58.3186 73.6917 76.3656 61.6603 93.9112Z" fill="#009846"/>
</g>
<defs>
<clipPath id="clip0_779_476">
<rect width="128" height="128" fill="white"/>
</clipPath>
</defs>
</svg>
